<svg xmlns="http://www.w3.org/2000/svg" viewBox="0 0 23.381 13.32">
  <defs>
    <style>
      .cls-1 {
        fill: #faffd8;
        stroke: #faffd8;
        stroke-width: 0.3px;
      }
    </style>
  </defs>
  <g id="noun_Stack_Up_128775" data-name="noun_Stack Up_128775" transform="translate(-206.839 117.385)">
    <g id="Group_7" data-name="Group 7" transform="translate(206.989 -117.235)">
      <path id="Path_99" data-name="Path 99" class="cls-1" d="M23.449,29.765a4.962,4.962,0,0,0-1.807.308l-6.787,2.769a1.771,1.771,0,0,0-.615.385.781.781,0,0,0-.25.538.79.79,0,0,0,.25.558,1.775,1.775,0,0,0,.615.384l.75.308-.75.288a2.107,2.107,0,0,0-.615.385.747.747,0,0,0,0,1.115,2.107,2.107,0,0,0,.615.384l.75.288-.75.308a1.771,1.771,0,0,0-.615.385.782.782,0,0,0-.25.538.79.79,0,0,0,.25.558,1.771,1.771,0,0,0,.615.385l6.787,2.769a5.307,5.307,0,0,0,3.615,0l6.787-2.769a1.774,1.774,0,0,0,.615-.385.726.726,0,0,0,0-1.1,1.771,1.771,0,0,0-.615-.385l-.731-.308.731-.288a2.111,2.111,0,0,0,.615-.384.747.747,0,0,0,0-1.115,2.107,2.107,0,0,0-.615-.385l-.731-.288.731-.308a1.778,1.778,0,0,0,.615-.384.791.791,0,0,0,.25-.558.783.783,0,0,0-.25-.538,1.771,1.771,0,0,0-.615-.385l-6.787-2.769a4.884,4.884,0,0,0-1.807-.308Zm0,.519a4.506,4.506,0,0,1,1.615.269l6.787,2.75a1.644,1.644,0,0,1,.443.269c.1.1.115.154.115.193,0,.058-.019.115-.115.192a1.025,1.025,0,0,1-.443.269L25.064,37a5.155,5.155,0,0,1-3.23,0l-6.787-2.769a1.024,1.024,0,0,1-.442-.269.259.259,0,0,1-.1-.192.337.337,0,0,1,.1-.193,1.641,1.641,0,0,1,.442-.269l6.787-2.75a4.508,4.508,0,0,1,1.615-.269Zm11.96,3.365a.365.365,0,0,0-.173.077l-1.4,1.346c-.269.231.115.615.346.365l.981-.923v4.057a.25.25,0,1,0,.5,0V34.514l.961.9a.258.258,0,1,0,.365-.366l-1.4-1.327a.29.29,0,0,0-.173-.077ZM16.277,35.283l5.365,2.192a5.307,5.307,0,0,0,3.615,0l5.364-2.192,1.231.5a1.257,1.257,0,0,1,.443.269.26.26,0,0,1,.115.193c0,.039-.019.1-.115.192a1.627,1.627,0,0,1-.443.269l-6.787,2.769a5.155,5.155,0,0,1-3.23,0l-6.787-2.769a1.624,1.624,0,0,1-.442-.269.335.335,0,0,1-.1-.192.293.293,0,0,1,.1-.193,1.255,1.255,0,0,1,.442-.269l1.231-.5Zm0,2.481,5.365,2.172a5.307,5.307,0,0,0,3.615,0l5.364-2.172,1.231.481a1.252,1.252,0,0,1,.443.288c.1.077.115.135.115.173,0,.058-.019.115-.115.193a1.244,1.244,0,0,1-.443.288l-6.787,2.75a5.155,5.155,0,0,1-3.23,0l-6.787-2.75A1.25,1.25,0,0,1,14.6,38.9a.222.222,0,0,1,0-.366,1.242,1.242,0,0,1,.442-.288l1.231-.481Z" transform="translate(-13.989 -29.765)"/>
    </g>
  </g>
</svg>
