<svg xmlns="http://www.w3.org/2000/svg" viewBox="0 0 16.673 15.296">
  <defs>
    <style>
      .cls-1 {
        fill: #faffd8;
        stroke: #faffd8;
        stroke-width: 0.7px;
      }
    </style>
  </defs>
  <g id="Group_6" data-name="Group 6" transform="translate(0.355 0.35)">
    <path id="Path_92" data-name="Path 92" class="cls-1" d="M23.571,970.362a7.377,7.377,0,0,0-7.177,5.531l-.969-1.725a.228.228,0,1,0-.4.221l1.254,2.238a.228.228,0,0,0,.306.093l2.231-1.14a.228.228,0,1,0-.207-.406l-1.8.912s0,0,0-.007a6.861,6.861,0,1,1,.007,3.157.228.228,0,1,0-.442.107,7.379,7.379,0,1,0,7.191-8.98Zm.064,3.414a.228.228,0,0,0-.2.235v3.649a.228.228,0,0,0,.086.178l2.281,1.825a.228.228,0,1,0,.285-.356l-2.2-1.753v-3.542a.228.228,0,0,0-.257-.235Z" transform="translate(-14.994 -970.362)"/>
  </g>
</svg>
