<svg xmlns="http://www.w3.org/2000/svg" viewBox="0 0 21.201 21.201">
  <defs>
    <style>
      .cls-1 {
        fill: #77567a;
        stroke: #77567a;
        stroke-width: 0.4px;
      }
    </style>
  </defs>
  <g id="noun_Camera_1354651" transform="translate(-16.8 -16.8)">
    <g id="Group_4" data-name="Group 4" transform="translate(17 17)">
      <path id="Path_89" data-name="Path 89" class="cls-1" d="M19.206,969.362A2.208,2.208,0,0,0,17,971.568v16.389a2.208,2.208,0,0,0,2.206,2.206H35.595a2.208,2.208,0,0,0,2.206-2.206V971.568a2.208,2.208,0,0,0-2.206-2.206Zm0,.63H35.595a1.566,1.566,0,0,1,1.576,1.576v7.879H32.118a4.728,4.728,0,0,0-9.435,0H17.63v-7.879A1.566,1.566,0,0,1,19.206,969.992Zm14.5,1.891a1.261,1.261,0,1,0,1.261,1.261A1.261,1.261,0,0,0,33.7,971.883Zm-6.3,3.782a4.1,4.1,0,1,1-4.1,4.1A4.092,4.092,0,0,1,27.4,975.665Zm-9.77,4.412h5.052a4.728,4.728,0,0,0,9.435,0h5.052v7.879a1.566,1.566,0,0,1-1.576,1.576H19.206a1.566,1.566,0,0,1-1.576-1.576Z" transform="translate(-17 -969.362)"/>
    </g>
  </g>
</svg>
