<svg xmlns="http://www.w3.org/2000/svg" viewBox="0 0 156.865 54"><defs><style type="text/css">@import url('https://fonts.googleapis.com/css?family=Niramit');</style><style>.a{fill:#683a68;font-size:30px;font-family:Niramit-Bold, Niramit;font-weight:700;}.b{fill:#ffb86f;}.c{fill:#48acf0;}.d{fill:#542ffc;}.e{fill:#a497ae;}</style></defs><g transform="translate(-193 -674)"><text style="font-family: 'Niramit', sans-serif;" class="a" transform="translate(246.865 712)"><tspan x="0" y="0">FourVill</tspan></text><g transform="translate(193 682.978)"><g transform="translate(0 0)"><path class="b" d="M98.944,17.2S93.331,8.422,97.034,2.36a4.93,4.93,0,0,1,9.113,3.046,4.93,4.93,0,0,1,6.869,6.719C109.313,18.186,98.944,17.2,98.944,17.2Z" transform="translate(-78.687 0)"/><path class="c" d="M245,201.9s5.613,8.775,1.91,14.837A4.93,4.93,0,0,1,237.8,213.7a4.93,4.93,0,0,1-6.869-6.718C234.631,200.915,245,201.9,245,201.9Z" transform="translate(-227.064 -180.908)"/><path class="d" d="M268.073,40.2a4.929,4.929,0,0,1,4.682-2.337,4.93,4.93,0,0,1,6.719-6.869c6.062,3.7,5.073,14.073,5.073,14.073s-8.775,5.613-14.837,1.91A4.93,4.93,0,0,1,268.073,40.2Z" transform="translate(-267.35 -27.127)"/><path class="e" d="M77.355,175.077a4.93,4.93,0,0,1-6.719,6.869c-6.062-3.7-5.073-14.073-5.073-14.073s8.775-5.613,14.837-1.909a4.93,4.93,0,0,1-3.046,9.113Z" transform="translate(-44.568 -147.616)"/></g></g></g></svg>