<svg xmlns="http://www.w3.org/2000/svg" viewBox="0 0 29.915 21.001">
  <defs>
    <style>
      .cls-1 {
        fill: #77567a;
        stroke: #77567a;
        stroke-width: 0.2px;
      }
    </style>
  </defs>
  <g id="noun_Mail_1707175" transform="translate(151.1 230.557)">
    <g id="Group_9" data-name="Group 9" transform="translate(-151 -230.457)">
      <path id="Path_100" data-name="Path 100" class="cls-1" d="M12.6,974.362a2.642,2.642,0,0,0-2.6,2.681V992.47a2.652,2.652,0,0,0,2.6,2.693H37.115a2.652,2.652,0,0,0,2.6-2.693V977.043a2.642,2.642,0,0,0-2.6-2.681H12.6Zm0,.743H37.115a1.809,1.809,0,0,1,1.207.476L26.03,987.258a1.632,1.632,0,0,1-2.322-.012L11.393,975.581a1.809,1.809,0,0,1,1.207-.476Zm-1.648,1.079,9.182,8.706-8.915,8.891a2.018,2.018,0,0,1-.476-1.312V977.043a1.973,1.973,0,0,1,.209-.859Zm27.812,0a1.974,1.974,0,0,1,.209.859V992.47a2.017,2.017,0,0,1-.476,1.312l-8.891-8.9Zm-9.692,9.2,8.822,8.845a1.769,1.769,0,0,1-.778.186H12.6a1.769,1.769,0,0,1-.778-.186l8.845-8.833,2.53,2.391a2.412,2.412,0,0,0,3.343,0l2.53-2.4Z" transform="translate(-10 -974.362)"/>
    </g>
  </g>
</svg>
