<svg xmlns="http://www.w3.org/2000/svg" viewBox="0 0 9.767 27.274">
  <defs>
    <style>
      .cls-1 {
        fill: none;
        stroke: #fff;
        opacity: 0.75;
      }
    </style>
  </defs>
  <path id="noun_podcast_1931674" class="cls-1" d="M23.527-7.362h2.641v-1a4.388,4.388,0,0,0-4.383-4.384A4.388,4.388,0,0,0,17.4-8.366v1h2.641a.218.218,0,0,1,.218.218.218.218,0,0,1-.218.218H17.4v1.6h2.641a.218.218,0,0,1,.218.218.218.218,0,0,1-.218.218H17.4v1.6h2.641a.218.218,0,0,1,.218.218.218.218,0,0,1-.218.218H17.4v1.6h2.641a.218.218,0,0,1,.218.218.218.218,0,0,1-.218.218H17.4v1.6h2.641a.218.218,0,1,1,0,.435H17.4V2.208A4.385,4.385,0,0,0,21.568,6.58v6.508H17.684a.218.218,0,0,0,0,.435h8.2a.218.218,0,0,0,0-.435H22V6.58a4.385,4.385,0,0,0,4.166-4.372v-1H23.527a.218.218,0,1,1,0-.435h2.641v-1.6H23.527a.218.218,0,0,1-.218-.218.218.218,0,0,1,.218-.218h2.641v-1.6H23.527a.218.218,0,0,1-.218-.218.218.218,0,0,1,.218-.218h2.641v-1.6H23.527a.218.218,0,0,1-.218-.218.218.218,0,0,1,.218-.218h2.641v-1.6H23.527a.218.218,0,0,1-.218-.218A.218.218,0,0,1,23.527-7.362Z" transform="translate(-16.902 13.25)"/>
</svg>
