<svg xmlns="http://www.w3.org/2000/svg" viewBox="0 0 15.383 15.383">
  <defs>
    <style>
      .cls-1 {
        fill: #fff;
        stroke: #fff;
        stroke-width: 0.4px;
      }
    </style>
  </defs>
  <path id="Path_89" data-name="Path 89" class="cls-1" d="M18.589,969.362A1.591,1.591,0,0,0,17,970.951v11.8a1.591,1.591,0,0,0,1.589,1.589h11.8a1.591,1.591,0,0,0,1.589-1.589v-11.8a1.591,1.591,0,0,0-1.589-1.589Zm0,.454h11.8a1.128,1.128,0,0,1,1.135,1.135v5.675H27.89a3.406,3.406,0,0,0-6.8,0H17.454v-5.675A1.128,1.128,0,0,1,18.589,969.816Zm10.443,1.362a.908.908,0,1,0,.908.908A.908.908,0,0,0,29.032,971.178Zm-4.54,2.724a2.951,2.951,0,1,1-2.951,2.951A2.948,2.948,0,0,1,24.491,973.9Zm-7.037,3.178h3.639a3.406,3.406,0,0,0,6.8,0h3.639v5.675a1.128,1.128,0,0,1-1.135,1.135h-11.8a1.128,1.128,0,0,1-1.135-1.135Z" transform="translate(-16.8 -969.162)"/>
</svg>
