<svg id="tile-1" xmlns="http://www.w3.org/2000/svg" xmlns:xlink="http://www.w3.org/1999/xlink" viewBox="0 0 519.09 310.784"><defs><style type="text/css">@import url('https://fonts.googleapis.com/css?family=Niramit');</style><style>.a,.j{fill:#fff;}.a,.c{stroke:#707070;}.b{clip-path:url(#a);}.c{fill:#2c374c;}.d,.f,.g,.h{fill:#77567a;}.d,.e,.k,.l,.q{font-size:15px;}.d,.g,.h,.k,.n,.q{font-family:Niramit-Regular, Niramit;}.e{fill:#f1fffa;}.e,.l{font-family:Niramit-SemiBold, Niramit;font-weight:600;}.g{font-size:13px;}.h,.n{font-size:8px;}.i,.o,.r,.t{fill:none;}.i{stroke:#683a68;}.k,.m,.n{fill:#a497ae;}.l,.q{fill:#683a68;}.o{stroke:#dce8e4;}.p{fill:#cec3ce;}.r{stroke:#a497ae;}.s{stroke:none;}.u{filter:url(#d);}.v{filter:url(#b);}</style><clipPath id="a"><rect class="a" width="519.09" height="310.784" transform="translate(0 0)"/></clipPath><filter id="b" x="118.399" y="18.866" width="321.36" height="504.009" filterUnits="userSpaceOnUse"><feOffset dx="30" dy="1" input="SourceAlpha"/><feGaussianBlur stdDeviation="25" result="c"/><feFlood flood-color="#383535" flood-opacity="0.051"/><feComposite operator="in" in2="c"/><feComposite in="SourceGraphic"/></filter><filter id="d" x="-68.392" y="99.786" width="322.485" height="504.009" filterUnits="userSpaceOnUse"><feOffset dx="30" dy="1" input="SourceAlpha"/><feGaussianBlur stdDeviation="25" result="e"/><feFlood flood-color="#383535" flood-opacity="0.051"/><feComposite operator="in" in2="e"/><feComposite in="SourceGraphic"/></filter></defs><g class="b"><g transform="translate(347.313 31.304)"><g class="c" transform="translate(0 0)"><path class="s" d="M5,0H166.752a5,5,0,0,1,5,5V354.009a0,0,0,0,1,0,0H0a0,0,0,0,1,0,0V5A5,5,0,0,1,5,0Z"/><path class="t" d="M5,.5H166.752a4.5,4.5,0,0,1,4.5,4.5V353.009a.5.5,0,0,1-.5.5H1a.5.5,0,0,1-.5-.5V5A4.5,4.5,0,0,1,5,.5Z"/></g><text style="font-family: 'Niramit', sans-serif;" class="d" transform="translate(40.171 43.229)"><tspan x="0" y="0"># activewear</tspan></text><text style="font-family: 'Niramit', sans-serif;" class="d" transform="translate(40.171 75.848)"><tspan x="0" y="0"># vaporware</tspan></text><text style="font-family: 'Niramit', sans-serif;" class="e" transform="translate(40.171 108.466)"><tspan x="0" y="0"># airmax</tspan></text><text style="font-family: 'Niramit', sans-serif;" class="d" transform="translate(40.171 141.085)"><tspan x="0" y="0"># football</tspan></text><text style="font-family: 'Niramit', sans-serif;" class="d" transform="translate(40.171 173.703)"><tspan x="0" y="0"># basketball</tspan></text><text style="font-family: 'Niramit', sans-serif;" class="d" transform="translate(40.171 207.447)"><tspan x="0" y="0"># fall2018</tspan></text><g transform="translate(38.288 257.398)"><path class="f" d="M9.58,1.866H5.374L6.7.524A.308.308,0,0,0,6.264.091L4.637,1.737,3.009.091a.308.308,0,0,0-.437.433L3.9,1.866H.924A.924.924,0,0,0,0,2.789V8.964a.924.924,0,0,0,.923.923h.508l-.09.09a.308.308,0,1,0,.435.435L2.3,9.887H8.222l.525.525a.308.308,0,0,0,.435-.435l-.09-.09H9.58a.924.924,0,0,0,.923-.923V2.789a.924.924,0,0,0-.923-.923Zm.308,7.1a.308.308,0,0,1-.308.308H.924a.308.308,0,0,1-.308-.308V2.789a.308.308,0,0,1,.308-.308H9.58a.308.308,0,0,1,.308.308Zm0,0" transform="translate(-0.001 0)"/><path class="f" d="M66.231,151H61.923a.924.924,0,0,0-.923.923v3.692a.924.924,0,0,0,.923.923h4.308a.924.924,0,0,0,.923-.923v-3.692A.924.924,0,0,0,66.231,151Zm.308,4.615a.308.308,0,0,1-.308.308H61.923a.308.308,0,0,1-.308-.308v-3.692a.308.308,0,0,1,.308-.308h4.308a.308.308,0,0,1,.308.308Zm0,0" transform="translate(-59.749 -147.903)"/><path class="f" d="M392.615,166a.615.615,0,1,0,.615.615A.616.616,0,0,0,392.615,166Zm0,0" transform="translate(-383.959 -162.595)"/><path class="f" d="M392.923,256h-.615a.308.308,0,0,0,0,.615h.615a.308.308,0,1,0,0-.615Zm0,0" transform="translate(-383.959 -250.749)"/><path class="f" d="M392.923,316h-.615a.308.308,0,0,0,0,.615h.615a.308.308,0,1,0,0-.615Zm0,0" transform="translate(-383.959 -309.518)"/><path class="f" d="M392.923,376h-.615a.308.308,0,0,0,0,.615h.615a.308.308,0,1,0,0-.615Zm0,0" transform="translate(-383.959 -368.287)"/></g><g transform="translate(38.288 289.986)"><path class="f" d="M6.871,1.339H3.854L4.807.376a.221.221,0,0,0-.314-.31L3.326,1.245,2.159.065a.221.221,0,0,0-.314.31l.952.963H.663A.663.663,0,0,0,0,2V6.429a.663.663,0,0,0,.662.662h.365l-.065.065a.221.221,0,1,0,.312.312l.377-.377H5.9l.377.377a.221.221,0,1,0,.312-.312l-.065-.065h.35a.663.663,0,0,0,.662-.662V2a.663.663,0,0,0-.662-.662Zm.221,5.09a.221.221,0,0,1-.221.221H.663a.221.221,0,0,1-.221-.221V2A.221.221,0,0,1,.663,1.78H6.871A.221.221,0,0,1,7.092,2Zm0,0" transform="translate(-0.001 0)"/><path class="f" d="M64.751,151H61.662a.663.663,0,0,0-.662.662v2.648a.663.663,0,0,0,.662.662h3.089a.663.663,0,0,0,.662-.662v-2.648A.663.663,0,0,0,64.751,151Zm.221,3.31a.221.221,0,0,1-.221.221H61.662a.221.221,0,0,1-.221-.221v-2.648a.221.221,0,0,1,.221-.221h3.089a.221.221,0,0,1,.221.221Zm0,0" transform="translate(-60.103 -148.779)"/><path class="f" d="M392.441,166a.441.441,0,1,0,.441.441A.442.442,0,0,0,392.441,166Zm0,0" transform="translate(-386.233 -163.558)"/><path class="f" d="M392.662,256h-.441a.221.221,0,0,0,0,.441h.441a.221.221,0,0,0,0-.441Zm0,0" transform="translate(-386.233 -252.234)"/><path class="f" d="M392.662,316h-.441a.221.221,0,0,0,0,.441h.441a.221.221,0,0,0,0-.441Zm0,0" transform="translate(-386.233 -311.351)"/><path class="f" d="M392.662,376h-.441a.221.221,0,0,0,0,.441h.441a.221.221,0,0,0,0-.441Zm0,0" transform="translate(-386.233 -370.469)"/></g><text style="font-family: 'Niramit', sans-serif;" class="g" transform="translate(55.838 267.095)"><tspan x="0" y="0">worldcup</tspan></text><text style="font-family: 'Niramit', sans-serif;" class="h" transform="translate(50.214 294.965)"><tspan x="0" y="0">winbledom</tspan></text><line class="i" x2="68.417" transform="translate(40.485 236.32)"/></g><g transform="translate(163.399 92.866)"><g class="v" transform="matrix(1, 0, 0, 1, -163.4, -92.87)"><path class="j" d="M5,0H166.36a5,5,0,0,1,5,5V354.009a0,0,0,0,1,0,0H0a0,0,0,0,1,0,0V5A5,5,0,0,1,5,0Z" transform="translate(163.4 92.87)"/></g><text style="font-family: 'Niramit', sans-serif;" class="k" transform="translate(34.653 39.03)"><tspan x="0" y="0"># blog</tspan></text><text style="font-family: 'Niramit', sans-serif;" class="l" transform="translate(34.653 72.774)"><tspan x="0" y="0"># instagram</tspan></text><text style="font-family: 'Niramit', sans-serif;" class="k" transform="translate(34.653 105.392)"><tspan x="0" y="0"># twitter</tspan></text><text style="font-family: 'Niramit', sans-serif;" class="k" transform="translate(34.653 138.011)"><tspan x="0" y="0"># tipstuesday</tspan></text><text style="font-family: 'Niramit', sans-serif;" class="k" transform="translate(34.653 170.629)"><tspan x="0" y="0"># collaborations</tspan></text><text style="font-family: 'Niramit', sans-serif;" class="k" transform="translate(34.653 203.248)"><tspan x="0" y="0"># ads</tspan></text><g transform="translate(60.889 258.602)"><path class="m" d="M6.871,1.339H3.854L4.807.376a.221.221,0,0,0-.314-.31L3.326,1.245,2.159.065a.221.221,0,0,0-.314.31l.952.963H.663A.663.663,0,0,0,0,2V6.429a.663.663,0,0,0,.662.662h.365l-.065.065a.221.221,0,1,0,.312.312l.377-.377H5.9l.377.377a.221.221,0,1,0,.312-.312l-.065-.065h.35a.663.663,0,0,0,.662-.662V2a.663.663,0,0,0-.662-.662Zm.221,5.09a.221.221,0,0,1-.221.221H.663a.221.221,0,0,1-.221-.221V2A.221.221,0,0,1,.663,1.78H6.871A.221.221,0,0,1,7.092,2Zm0,0" transform="translate(-0.001 0)"/><path class="m" d="M64.751,151H61.662a.663.663,0,0,0-.662.662v2.648a.663.663,0,0,0,.662.662h3.089a.663.663,0,0,0,.662-.662v-2.648A.663.663,0,0,0,64.751,151Zm.221,3.31a.221.221,0,0,1-.221.221H61.662a.221.221,0,0,1-.221-.221v-2.648a.221.221,0,0,1,.221-.221h3.089a.221.221,0,0,1,.221.221Zm0,0" transform="translate(-60.103 -148.779)"/><path class="m" d="M392.441,166a.441.441,0,1,0,.441.441A.442.442,0,0,0,392.441,166Zm0,0" transform="translate(-386.233 -163.558)"/><path class="m" d="M392.662,256h-.441a.221.221,0,0,0,0,.441h.441a.221.221,0,0,0,0-.441Zm0,0" transform="translate(-386.233 -252.234)"/><path class="m" d="M392.662,316h-.441a.221.221,0,0,0,0,.441h.441a.221.221,0,0,0,0-.441Zm0,0" transform="translate(-386.233 -311.351)"/><path class="m" d="M392.662,376h-.441a.221.221,0,0,0,0,.441h.441a.221.221,0,0,0,0-.441Zm0,0" transform="translate(-386.233 -370.469)"/></g><g transform="translate(60.889 286.22)"><path class="m" d="M6.871,1.339H3.854L4.807.376a.221.221,0,0,0-.314-.31L3.326,1.245,2.159.065a.221.221,0,0,0-.314.31l.952.963H.663A.663.663,0,0,0,0,2V6.429a.663.663,0,0,0,.662.662h.365l-.065.065a.221.221,0,1,0,.312.312l.377-.377H5.9l.377.377a.221.221,0,1,0,.312-.312l-.065-.065h.35a.663.663,0,0,0,.662-.662V2a.663.663,0,0,0-.662-.662Zm.221,5.09a.221.221,0,0,1-.221.221H.663a.221.221,0,0,1-.221-.221V2A.221.221,0,0,1,.663,1.78H6.871A.221.221,0,0,1,7.092,2Zm0,0" transform="translate(-0.001 0)"/><path class="m" d="M64.751,151H61.662a.663.663,0,0,0-.662.662v2.648a.663.663,0,0,0,.662.662h3.089a.663.663,0,0,0,.662-.662v-2.648A.663.663,0,0,0,64.751,151Zm.221,3.31a.221.221,0,0,1-.221.221H61.662a.221.221,0,0,1-.221-.221v-2.648a.221.221,0,0,1,.221-.221h3.089a.221.221,0,0,1,.221.221Zm0,0" transform="translate(-60.103 -148.779)"/><path class="m" d="M392.441,166a.441.441,0,1,0,.441.441A.442.442,0,0,0,392.441,166Zm0,0" transform="translate(-386.233 -163.558)"/><path class="m" d="M392.662,256h-.441a.221.221,0,0,0,0,.441h.441a.221.221,0,0,0,0-.441Zm0,0" transform="translate(-386.233 -252.234)"/><path class="m" d="M392.662,316h-.441a.221.221,0,0,0,0,.441h.441a.221.221,0,0,0,0-.441Zm0,0" transform="translate(-386.233 -311.351)"/><path class="m" d="M392.662,376h-.441a.221.221,0,0,0,0,.441h.441a.221.221,0,0,0,0-.441Zm0,0" transform="translate(-386.233 -370.469)"/></g><text style="font-family: 'Niramit', sans-serif;" class="n" transform="translate(72.815 262.953)"><tspan x="0" y="0">worldcup</tspan></text><text style="font-family: 'Niramit', sans-serif;" class="n" transform="translate(72.815 291.199)"><tspan x="0" y="0">winbledom</tspan></text><line class="o" x2="68.417" transform="translate(63.086 232.554)"/></g><g transform="translate(-23.392 173.786)"><g class="u" transform="matrix(1, 0, 0, 1, 23.39, -173.79)"><path class="p" d="M5,0H167.485a5,5,0,0,1,5,5V354.009a0,0,0,0,1,0,0H0a0,0,0,0,1,0,0V5A5,5,0,0,1,5,0Z" transform="translate(-23.39 173.79)"/></g><text style="font-family: 'Niramit', sans-serif;" class="k" transform="translate(35.778 39.095)"><tspan x="0" y="0"># activewear</tspan></text><text style="font-family: 'Niramit', sans-serif;" class="q" transform="translate(35.778 71.713)"><tspan x="0" y="0"># vaporware</tspan></text><text style="font-family: 'Niramit', sans-serif;" class="k" transform="translate(35.778 105.457)"><tspan x="0" y="0"># airmax</tspan></text><text style="font-family: 'Niramit', sans-serif;" class="k" transform="translate(35.778 138.075)"><tspan x="0" y="0"># football</tspan></text><text style="font-family: 'Niramit', sans-serif;" class="k" transform="translate(35.778 170.694)"><tspan x="0" y="0"># basketball</tspan></text><text style="font-family: 'Niramit', sans-serif;" class="k" transform="translate(35.778 203.312)"><tspan x="0" y="0"># 2018</tspan></text><g transform="translate(33.895 258.602)"><path class="m" d="M6.871,1.339H3.854L4.807.376a.221.221,0,0,0-.314-.31L3.326,1.245,2.159.065a.221.221,0,0,0-.314.31l.952.963H.663A.663.663,0,0,0,0,2V6.429a.663.663,0,0,0,.662.662h.365l-.065.065a.221.221,0,1,0,.312.312l.377-.377H5.9l.377.377a.221.221,0,1,0,.312-.312l-.065-.065h.35a.663.663,0,0,0,.662-.662V2a.663.663,0,0,0-.662-.662Zm.221,5.09a.221.221,0,0,1-.221.221H.663a.221.221,0,0,1-.221-.221V2A.221.221,0,0,1,.663,1.78H6.871A.221.221,0,0,1,7.092,2Zm0,0" transform="translate(-0.001 0)"/><path class="m" d="M64.751,151H61.662a.663.663,0,0,0-.662.662v2.648a.663.663,0,0,0,.662.662h3.089a.663.663,0,0,0,.662-.662v-2.648A.663.663,0,0,0,64.751,151Zm.221,3.31a.221.221,0,0,1-.221.221H61.662a.221.221,0,0,1-.221-.221v-2.648a.221.221,0,0,1,.221-.221h3.089a.221.221,0,0,1,.221.221Zm0,0" transform="translate(-60.103 -148.779)"/><path class="m" d="M392.441,166a.441.441,0,1,0,.441.441A.442.442,0,0,0,392.441,166Zm0,0" transform="translate(-386.233 -163.558)"/><path class="m" d="M392.662,256h-.441a.221.221,0,0,0,0,.441h.441a.221.221,0,0,0,0-.441Zm0,0" transform="translate(-386.233 -252.234)"/><path class="m" d="M392.662,316h-.441a.221.221,0,0,0,0,.441h.441a.221.221,0,0,0,0-.441Zm0,0" transform="translate(-386.233 -311.351)"/><path class="m" d="M392.662,376h-.441a.221.221,0,0,0,0,.441h.441a.221.221,0,0,0,0-.441Zm0,0" transform="translate(-386.233 -370.469)"/></g><g transform="translate(33.895 286.22)"><path class="m" d="M6.871,1.339H3.854L4.807.376a.221.221,0,0,0-.314-.31L3.326,1.245,2.159.065a.221.221,0,0,0-.314.31l.952.963H.663A.663.663,0,0,0,0,2V6.429a.663.663,0,0,0,.662.662h.365l-.065.065a.221.221,0,1,0,.312.312l.377-.377H5.9l.377.377a.221.221,0,1,0,.312-.312l-.065-.065h.35a.663.663,0,0,0,.662-.662V2a.663.663,0,0,0-.662-.662Zm.221,5.09a.221.221,0,0,1-.221.221H.663a.221.221,0,0,1-.221-.221V2A.221.221,0,0,1,.663,1.78H6.871A.221.221,0,0,1,7.092,2Zm0,0" transform="translate(-0.001 0)"/><path class="m" d="M64.751,151H61.662a.663.663,0,0,0-.662.662v2.648a.663.663,0,0,0,.662.662h3.089a.663.663,0,0,0,.662-.662v-2.648A.663.663,0,0,0,64.751,151Zm.221,3.31a.221.221,0,0,1-.221.221H61.662a.221.221,0,0,1-.221-.221v-2.648a.221.221,0,0,1,.221-.221h3.089a.221.221,0,0,1,.221.221Zm0,0" transform="translate(-60.103 -148.779)"/><path class="m" d="M392.441,166a.441.441,0,1,0,.441.441A.442.442,0,0,0,392.441,166Zm0,0" transform="translate(-386.233 -163.558)"/><path class="m" d="M392.662,256h-.441a.221.221,0,0,0,0,.441h.441a.221.221,0,0,0,0-.441Zm0,0" transform="translate(-386.233 -252.234)"/><path class="m" d="M392.662,316h-.441a.221.221,0,0,0,0,.441h.441a.221.221,0,0,0,0-.441Zm0,0" transform="translate(-386.233 -311.351)"/><path class="m" d="M392.662,376h-.441a.221.221,0,0,0,0,.441h.441a.221.221,0,0,0,0-.441Zm0,0" transform="translate(-386.233 -370.469)"/></g><text style="font-family: 'Niramit', sans-serif;" class="n" transform="translate(45.82 262.953)"><tspan x="0" y="0">worldcup</tspan></text><text style="font-family: 'Niramit', sans-serif;" class="n" transform="translate(45.82 291.199)"><tspan x="0" y="0">winbledom</tspan></text><line class="r" x2="68.417" transform="translate(36.091 232.554)"/></g></g></svg>