<svg id="tile-3"  xmlns="http://www.w3.org/2000/svg" xmlns:xlink="http://www.w3.org/1999/xlink" viewBox="0 0 698.035 482.253"><defs><style type="text/css">@import url('https://fonts.googleapis.com/css?family=Niramit');</style><style>.a{fill:#ffb86f;}.b{fill:#ebfbf9;}.c{fill:#f1fffa;}.d,.k{fill:#fff;}.e{fill:#515355;}.f{fill:#c79d45;}.g{fill:#979899;}.h{fill:#3d3e40;}.i{fill:#dfddda;}.j{fill:#e5e4e1;}.k{font-size:8px;font-family:HindGuntur-Bold, Hind Guntur;}.k,.l,.n{font-weight:700;}.l,.m,.q{fill:#77567a;}.l,.m{font-size:18px;}.l,.n{font-family:Niramit-Bold, Niramit;}.m,.o{font-family:SegoeUIEmoji, Segoe UI Emoji;}.o{font-weight:400;}.p{fill:#a497ae;}.p,.q,.r{font-size:10px;font-family:Niramit-Regular, Niramit;}.r{fill:#cec3ce;}.s{filter:url(#g);}.t{filter:url(#e);}.u{filter:url(#c);}.v{filter:url(#a);}</style><filter id="a" x="0" y="0" width="329.052" height="468.546" filterUnits="userSpaceOnUse"><feOffset dx="15" dy="20" input="SourceAlpha"/><feGaussianBlur stdDeviation="25" result="b"/><feFlood flood-opacity="0.051"/><feComposite operator="in" in2="b"/><feComposite in="SourceGraphic"/></filter><filter id="c" x="158.894" y="59.375" width="358.789" height="235.104" filterUnits="userSpaceOnUse"><feOffset dx="15" dy="20" input="SourceAlpha"/><feGaussianBlur stdDeviation="25" result="d"/><feFlood flood-opacity="0.051"/><feComposite operator="in" in2="d"/><feComposite in="SourceGraphic"/></filter><filter id="e" x="227.176" y="164.023" width="358.789" height="235.104" filterUnits="userSpaceOnUse"><feOffset dx="15" dy="20" input="SourceAlpha"/><feGaussianBlur stdDeviation="25" result="f"/><feFlood flood-opacity="0.051"/><feComposite operator="in" in2="f"/><feComposite in="SourceGraphic"/></filter><filter id="g" x="339.246" y="261.992" width="358.789" height="220.26" filterUnits="userSpaceOnUse"><feOffset dx="15" dy="20" input="SourceAlpha"/><feGaussianBlur stdDeviation="25" result="h"/><feFlood flood-opacity="0.051"/><feComposite operator="in" in2="h"/><feComposite in="SourceGraphic"/></filter></defs><g transform="translate(-250.727 -619)"><g class="v" transform="matrix(1, 0, 0, 1, 250.73, 619)"><rect class="a" width="179.052" height="318.546" rx="3" transform="translate(60 55)"/></g><g class="u" transform="matrix(1, 0, 0, 1, 250.73, 619)"><rect class="b" width="208.789" height="85.104" transform="translate(218.89 114.38)"/></g><g class="t" transform="matrix(1, 0, 0, 1, 250.73, 619)"><rect class="c" width="208.789" height="85.104" transform="translate(287.18 219.02)"/></g><g class="s" transform="matrix(1, 0, 0, 1, 250.73, 619)"><rect class="d" width="208.789" height="70.26" transform="translate(399.25 316.99)"/></g><g transform="translate(267.018 894.609) rotate(-43)"><g transform="translate(0 0)"><path class="e" d="M17.6,17.846l-3.53,3.743L0,8.317,7.844,0l3.072,2.88L6.607,7.449,9.289,9.981l3.977-4.216,3.025,2.9-3.977,4.216Z" transform="translate(0 91.662)"/><path class="e" d="M19.374,12.835l-3.311-1.783-4.309,4.569,1.965,3.2-3.94,4.159L0,5.074,4.782,0,23.294,8.676ZM12.221,8.889,9.341,7.33q-.972-.52-2.48-1.362T4.736,4.715q.411.551,1.294,1.866T9.4,11.9Z" transform="translate(13.048 80.959)"/><path class="e" d="M16.8,8.478a5.718,5.718,0,0,1,1.7,2.854,5.983,5.983,0,0,1-.229,3.4,9.752,9.752,0,0,1-2.2,3.467,16.343,16.343,0,0,1-2.422,2.173,12.07,12.07,0,0,1-2.558,1.336L7.7,18.522a15.565,15.565,0,0,0,3-1.44,11.6,11.6,0,0,0,2.344-1.861,2.88,2.88,0,0,0,.889-1.528,1.242,1.242,0,0,0-.385-1.107,1.144,1.144,0,0,0-.655-.3,2.542,2.542,0,0,0-.92.1q-.551.146-2.672,1.04a12.336,12.336,0,0,1-3.166.884,5.116,5.116,0,0,1-2.308-.25,6.14,6.14,0,0,1-2.111-1.367A4.959,4.959,0,0,1,.027,8.416,8.52,8.52,0,0,1,2.626,3.5,15,15,0,0,1,7.825,0L9.66,3.935A11.607,11.607,0,0,0,5.542,6.488a2.443,2.443,0,0,0-.759,1.326,1.081,1.081,0,0,0,.327.946,1.279,1.279,0,0,0,1.144.27,22.393,22.393,0,0,0,3.384-1.2A8.986,8.986,0,0,1,13.8,6.961,5.245,5.245,0,0,1,16.8,8.478Z" transform="translate(25.57 66.211)"/><path class="e" d="M25.425,13.271l-3.592,3.81L16.115,11.67l-4.159,4.419L17.674,21.5l-3.639,3.831L0,12.06,3.582,8.245l5.2,4.918,4.159-4.419L7.74,3.821,11.343,0Z" transform="translate(34.829 51.017)"/><path class="e" d="M14.067,17.092,0,3.821,3.6,0,17.674,13.271Z" transform="translate(49.239 43.957)"/><path class="e" d="M16.667,3.369q3.55,3.348,3.753,6.836t-2.958,6.82q-3.119,3.311-6.643,3.327t-7.1-3.327Q.2,13.713.011,10.21T2.974,3.358Q6.14,0,9.612,0T16.667,3.369ZM7.538,13.053Q11.619,16.9,14.3,14.062a3.358,3.358,0,0,0,1.04-3.077A7.466,7.466,0,0,0,12.9,7.371a7.555,7.555,0,0,0-3.779-2.23,3.317,3.317,0,0,0-3,1.164Q3.416,9.17,7.538,13.053Z" transform="translate(58.663 30.8)"/><path class="e" d="M26.709,13.256l-4.679,4.985L7.246,14.036l-.083.088q2.511,2.022,3.743,3.187l6.342,5.983-3.176,3.369L0,13.381,4.679,8.416l14.607,4.1.052-.057q-2.256-1.871-3.545-3.088l-6.352-6L12.637,0Z" transform="translate(70.895 11.436)"/><path class="f" d="M16.141,9.154l-1.461,1.56L17.4,13.282l-3.54,3.753L11.14,14.467l-5.292,5.6-2.792-2.63L0,3.514,3.332,0l8.51,8.026L13.3,6.467ZM8.3,11.753l-1.637-1.56Q6.2,9.757,5.448,8.983q-.4-.373-.769-.785l-.1.1a14.09,14.09,0,0,1,.686,2.048L6.113,14.1Z" transform="translate(90.971 0)"/><path class="g" d="M13.131,16.822a5.718,5.718,0,0,1-2.885,1.648,5.973,5.973,0,0,1-3.4-.286,9.757,9.757,0,0,1-3.426-2.266,16.307,16.307,0,0,1-2.131-2.459A12.045,12.045,0,0,1,0,10.86L3.254,7.528a15.5,15.5,0,0,0,1.388,3.031,11.623,11.623,0,0,0,1.819,2.376,2.88,2.88,0,0,0,1.5.9,1.242,1.242,0,0,0,1.112-.364,1.149,1.149,0,0,0,.328-.65,2.537,2.537,0,0,0-.083-.92q-.135-.556-.972-2.688A12.375,12.375,0,0,1,7.48,6.041a5.1,5.1,0,0,1,.291-2.3,6.145,6.145,0,0,1,1.4-2.079,4.959,4.959,0,0,1,4.3-1.622A8.616,8.616,0,0,1,18.35,2.7,15,15,0,0,1,21.765,7.97L17.8,9.742a11.592,11.592,0,0,0-2.485-4.159A2.438,2.438,0,0,0,14,4.8a1.081,1.081,0,0,0-.951.312,1.279,1.279,0,0,0-.291,1.138,22.431,22.431,0,0,0,1.144,3.4,8.883,8.883,0,0,1,.8,4.159,5.245,5.245,0,0,1-1.575,3Z" transform="translate(99.543 14.836)"/><path class="g" d="M22.606,11.6l-8.13,8.317a7.806,7.806,0,0,1-5.645,2.708,8.545,8.545,0,0,1-5.89-2.838A8.482,8.482,0,0,1,0,14.067,7.633,7.633,0,0,1,2.551,8.416L10.765,0l3.758,3.67L6.58,11.831A4.615,4.615,0,0,0,5.052,14.5a3.306,3.306,0,0,0,3.275,3.207,4.848,4.848,0,0,0,2.6-1.653l7.907-8.1Z" transform="translate(113.59 24.183)"/><path class="g" d="M6.009,19.728l6.9-12.736-.083-.083q-2.287,2.74-3.639,4.159L3.3,17.077,0,13.843,13.516,0,18.47,4.86l-6.7,12.648.078.073,12.419-7.065,4.99,4.871L15.741,29.23,12.3,25.877l5.921-6.072q.463-.473,1.04-1.04t2.89-2.708l-.088-.083L9.565,23.2Z" transform="translate(125.8 38.806)"/><path class="g" d="M6.009,19.723l6.9-12.736L12.824,6.9q-2.287,2.74-3.639,4.159L3.317,17.077,0,13.843,13.516,0,18.5,4.86l-6.7,12.648.078.073,12.419-7.065,4.99,4.871L15.767,29.23,12.31,25.877l5.921-6.072q.463-.473,1.04-1.04t2.89-2.708l-.088-.083L9.57,23.2Z" transform="translate(144.743 57.296)"/><path class="g" d="M8.219,21.864,0,13.843,13.516,0l8.219,8.021-2.942,3.02L14.311,6.669,12.185,8.848l4.159,4.05-2.927,3L9.258,11.852l-2.552,2.6,4.481,4.372Z" transform="translate(163.67 75.771)"/><path class="g" d="M8.66,12.445,3.743,17.482,0,13.843,13.516,0l4.533,4.424q5.645,5.505,1.653,9.6a5.706,5.706,0,0,1-5.978,1.43l-1.851,9.96L7.631,21.251l1.98-7.9Zm2.745-2.812.717.7q1.96,1.913,3.639.177,1.393-1.43-.52-3.306L14.5,6.482Z" transform="translate(174.498 86.355)"/><path class="h" d="M.208.01,0,.223a46.538,46.538,0,0,1,.619,4.8h.7C1.258,3.608,1.1,2.188.925.868.723.541.775-.088.208.01Z" transform="translate(118.112 182.119)"/><path class="h" d="M0,.383V2.437H1.871A9.817,9.817,0,0,0,.717.019.608.608,0,0,0,0,.383Z" transform="translate(128.493 184.704)"/><path class="h" d="M.3.038,0,.34A24.774,24.774,0,0,1,.9,5.392h.873a15.856,15.856,0,0,0-.7-4.918C.837.241.593-.118.3.038Z" transform="translate(122.66 181.748)"/><path class="h" d="M98.441,12.783c-.078-1.606-.27-3.27-1.528-4.325l-.052.567c-.151-.088-.239-.322-.447-.265.036.52.634,1.04.52,1.632-2.37-1.851-3.176-5.469-6.482-5.588A62.188,62.188,0,0,1,85.819,0l-3.8,4.018a8.806,8.806,0,0,0-4.133.281c-.561.213-1.242.639-1.149,1.352.094.52.717.114.925.52-4.98,1.45-10.4,2.277-13.911,6.862-.52,1.2-1.4,2.989-.317,4.159-.52.156-.915.572-1.56.431a1.04,1.04,0,0,1-.723-.972c-.629-.291-.379.6-.915.78-.234.359.094.655.307.92.925.348,1.96-.166,2.766-.3a6.919,6.919,0,0,0-1.8,4.419l-1.56.1c-.385.151-.234.567-.052.863-.686,0-.733,1.04-.993,1.559-.114.52-.135,1.253.52,1.362.27.265.743.2.988.405L43.7,44.721,16.52,73.453,2.558,88.434a.863.863,0,0,0,.572.619L15.9,101.227c-.431,1.341-1.643,2.365-2.464,3.535-.3.239-.92.307-.556.868,1.482,2.4,4.424,1.887,6.8,2.49a17.222,17.222,0,0,0,5.1,4.944C22.514,120.3,18.08,126.7,15.3,133.7c-3.639,7.829-8.411,15.226-9.991,23.866-1.112,1.8-3.036,2.6-4.6,3.764q-.348.624-.707,1.237H2.672a8.759,8.759,0,0,1,3.821-2.781c1.871-3.02,2.37-6.628,3.467-9.97,3.81-8.634,7.278-17.414,11.878-25.732,2.843-3.925,3-8.952,5.6-12.98a17.926,17.926,0,0,1,3.363.177c2.318,2.745,3.187,6.238,5.8,8.863.3.322,1.014.2.634.858-.39-.3-.863,0-1.279,0-1.362-2.308-2.079-4.944-3.847-7.013-.686-.348-1.008.457-1.149.936.213.624-.587.483-.463,1.076a31.514,31.514,0,0,1,.676,10.849,45.092,45.092,0,0,1-6.488,14.7l-.239.062a12.518,12.518,0,0,1-2.724,4.013c-.993,1.762-1.627,3.706-2.953,5.266a55.721,55.721,0,0,1-3.119,5.443l.078-1.133.556-.66c.956-2.329,2.277-4.512,3.083-6.872a25.7,25.7,0,0,0,6.524-10.714c.192-1.461.8-3.311-.135-4.637-.7,1.138-.328,2.859-.79,4.159a31.574,31.574,0,0,1-4.346,8.4c-3.639,2.386-3.358,6.456-5.614,9.487A35.514,35.514,0,0,1,14.893,158a.442.442,0,0,0,.52.2c2.043-4.1,5.547-7.642,7.08-11.956a8.182,8.182,0,0,0,2.116-2.667c.52-.036.619-.6.853-.931,3.327-3.218,5.718-7.434,9.534-10.178,1.118-1.352,1.248-3.254,1.882-4.866.172-.775.338-1.877-.473-2.433.348-1.04,1.04-1.887.982-3.072.946-.364.639-1.611.988-2.417h-.3a13.188,13.188,0,0,1,.52-3.576c.27.416-.224,1.279.463,1.424a2.225,2.225,0,0,1,1.071-.078.2.2,0,0,0-.088-.172c.281-.182.686-.343.816-.665-1.112-2.485-4.159-5.136-6.238-6.685-.27-.088-.385.125-.561.276-.52-.52-1.586-1.144-1.445-1.773-1.731-.4-3.514-.561-5.3-.868-.208-.088-.421-.442-.717-.2-.088.031-.057.151-.057.208-2.973-1.024-5.541-4.9-8.978-2.708a13.053,13.053,0,0,1-2.079.229,65.5,65.5,0,0,1,3.4-5.947v-.359c3.94-6.919,9.076-13.287,11.566-20.778,2.76-6.306,5.308-12.653,10.225-18.1a22.073,22.073,0,0,0,8.837-4.372,63.612,63.612,0,0,0,9.03-1.164c1.606-.078,2.6,1.284,3.743,2.251,4.549,5.4,11.213,5.775,16.021,10.6h.239c.166-1.19-1.123-2.012-1.965-2.838l.146-.12c1.648,1.263,3.119,2.973,4.886,4,.234-.239-.125-.593-.307-.832l-3.457-3.327c-.218-1.3-.561-2.88-.042-4.159,1.279.2,2.365,1.346,3.639,1.092l.353-.52a6.285,6.285,0,0,1,1.378.847l6.373,1.388c.27.442,1.31.166.931,1.04-1.081-1.18-2.506-.868-3.878-1.331l-3.727-1.092c-.265.39-.327-.088-.567-.2-.265.327.213.473.218.769a42.267,42.267,0,0,0,7.855,6.285c-1.1.25-2.293-.452-3.363-.177a23.729,23.729,0,0,1-3.639-1.689.738.738,0,0,0-.65.213c1.144,1.237,2.869,1.606,4.309,2.4,3.462.915,7.179,1.086,10.464,2.454a105.994,105.994,0,0,1,19.993,9.227c1.2.551,2.48.837,3.675,1.393l.057-.062c1.825,4.159,3.27,8.447,5.832,12.284,1.04,1.981,1.04,4.424,1.2,6.758.457,10.08.2,20.227,4.008,28.872-.083.52.483.946.582,1.482l.156.52-4.59-4.029a107.044,107.044,0,0,1-1.851-12.533c0-5.505-1.092-10.7-.671-16.2-.27-.208-.333-.769-.52-1.123-.967-1.476-.988-3.322-1.949-4.767.2-.52-.483-.827-.723-1a8.691,8.691,0,0,1-1.4-2.838c1.081,1.237,1.695,2.838,3.249,3.686.239.026.52-.036.561-.3-1.83-1.409-2.6-3.426-4.039-5.074a.884.884,0,0,0-.52-1.008c-.234.39-.624-.172-.863.218.6.52.343,1.393.52,2.079.868,3.441,4.159,5.968,3.966,9.8a29.47,29.47,0,0,1-3.171,12.351c-.452,2.147.6,3.982.567,6.124l-.712,6.165c-.208-.026-.52-.322-.593.068.619,5.406,3.223,9.96,3.961,15.309-.426,1.851-1,3.608-1.253,5.515-1.518-3.077-2.8-6.274-4.226-9.388a1.258,1.258,0,0,0-1.076-.348l-.426-.858-6.066-5.859h-.92a16.063,16.063,0,0,1-6.134-5.344c-.177.031-.478-.114-.561.125,1.154,2.6,2.875,4.907,4.06,7.454l2.339,4.616c-.982-.229-1.944-1.289-2.921-.686.156.593.78.884,1.2,1.206a45.308,45.308,0,0,0,5.162,1.674c1.84,2.48,4.647,3.821,6.43,6.155l1.242,2.485c-1.9-2.079-3.732-4.455-6.066-6.009a.983.983,0,0,0-1.008.489,3.27,3.27,0,0,1,.255,1.424,14.591,14.591,0,0,1-1.04-2.043l-.717-.52-11.53-4.413c-.52.156-1.1-.348-1.424.25a39.468,39.468,0,0,0,3.758,6.862.676.676,0,0,1-.634-.764c-.364-.52-.962-.884-.879-1.56-1.929-2.75-3.509-5.645-5.38-8.421a.863.863,0,0,0-.925-.14c.042,1.071,1.04,1.892,1.456,2.9-2.843-1.637-5.479-3.691-8.317-5.328L79.732,110.5c-5.2-9.435-5.328-21.038-8.317-31.419-1.081-4.122-1.56-8.52-3.6-12.216a.411.411,0,0,0-.6-.14c-.109-1.695.291-3.753-.676-4.933-.3-.114-.385.239-.353.452a62.721,62.721,0,0,1,.286,7.7l.151.208a103.412,103.412,0,0,0,6,28.643c.816,1.559,1.56,3.166,2.454,4.616a4.089,4.089,0,0,0-.291-2.287c-2.979-6.1-4.159-12.954-5.905-19.572-.556-4.814-1.731-9.321-1.663-14.41,1.83,4.263,2.381,9.076,3.587,13.62,1.8,7.418,2.651,15.262,4.777,22.561l3.6,8.77,8.562,17.04,1.456,2.958c-4.159-6.591-8.016-13.334-11.624-20.138a3.119,3.119,0,0,0-1.081-1.149l-.146.151c4.819,9.081,9.357,18.288,15.6,26.761v.359c-2.646-2.859-5.536-6.4-8.863-8.894-1.242.489-2.266-.811-3.462-1.04A75.14,75.14,0,0,1,74.2,121.9c-.12,0-.177.151-.265.239l.151.473,4.1,4.954v.239a135.024,135.024,0,0,1,12.429,14.155l.447.265,3.831-.52c2.246,1.435,4.84,2.007,7.169,3.119-4.4-.047-8.317-1.4-12.861-1.149l-.27-.2a58.923,58.923,0,0,1-17.612-3.181c-1.871.2-2.251-2.147-3.306-3.181-.208.062-.52-.114-.655.156,1.56,3.166,2.391,7.174,6.238,8.837-.681.036-1.3.608-1.929.317-1.206-1.622-3.327-2.464-3.4-4.549-2.994-8.12-6.94-15.845-7.9-24.848-.156-.624-.224-1.367-.79-1.778-.52-1.56-.52-3.265-1.326-4.679-.775,0,0,.655-.348,1.04a44.5,44.5,0,0,0,1.346,6.529l.3,8.655c3.784,6.685,4.611,14.706,9.788,20.752-.057.119-.208.031-.3.062-4.611-5.812-6.758-12.632-9.976-19.026a.988.988,0,0,0-.868-.556c-.265.478.489.977,0,1.341-.042,2.079.754,3.8.775,5.853-.52.39.068.863.25,1.216l.717.556c2.412,3.743,5.458,7.382,8.057,11.109l-2.277,1.092c-3.441-1.9-5.588-5.505-8.146-8.317-.333-.681-.431-1.663-1.3-1.918-.442.182-.114.712,0,.982a57.7,57.7,0,0,1,2.277,7.413,16.571,16.571,0,0,0,6.1,2.942l-.146.151-2.412-.333c-1.1.25-2.251,1.04-3.415.452-1.258-.967-1.456-2.516-1.825-3.909-.691-3.5-1.352-7.039-2.334-10.4l-.421-.593c-1.663-5.458-2.818-11.124-4.3-16.635-1.216-2.485-1.56-5.308-2.313-7.979.088-.088.146-.182.3-.151,1.814,5.781,4.013,11.384,5.027,17.529a39.962,39.962,0,0,0,2.89,9.253l.359.265a60.439,60.439,0,0,1-.686-8.978c.057.031.088.088.151.057-.073-1.336-1.1-2.516-1.04-3.914a135.3,135.3,0,0,1-3.639-26.735,47.086,47.086,0,0,1,.52-8.068c0-.208-.239-.234-.416-.2-.385.27-.322.749-.405,1.133a55.9,55.9,0,0,1-1.663-8.7c-.359-.057-.723-.764-1.071-.2a24.429,24.429,0,0,0,.322,5.5,40.749,40.749,0,0,1-2.9,7.943l-.52.6a26.958,26.958,0,0,0-.042,4.907c-.12.031-.27-.057-.353.094a30.727,30.727,0,0,1,.177-6.238l-.244-.442c.853-6.851,1.533-13.251,2.079-20.216.624-2.921-.385-5.885-.088-8.775a6.82,6.82,0,0,1,.125-2.438,28.329,28.329,0,0,1,5.38,8.51,2.2,2.2,0,0,0-1.04-1.118h-.775c.473,2.521,1.154,5.313,1.419,8.135a63.272,63.272,0,0,0-.624,9.139c.182.327.39.114.567,0,.494-1.2.213-2.677.468-3.93l.6-5.094A53.3,53.3,0,0,1,51.276,73.2c.749.468.827,2.37,2.007,1.5a.665.665,0,0,0-.213-.65l.3-.27c-.255-1.487-1.56-2.485-1.674-4-1.882-3.7-4.335-8.1-8.458-9.908a1.149,1.149,0,0,0-1.066.369l.068.655c1.3-.457,2.656.894,3.587,1.809l-.405,1.222c-.868,5.6-1.819,11.171-2.266,16.947A18.438,18.438,0,0,0,40.032,88.2c-1.5,4.923-4.07,9.409-6.134,14.1-.114.327-.109.832.307.951.624.052.946-.665,1.18-1.081,2.329-4.845,4.84-9.565,5.651-14.992a12.777,12.777,0,0,1,1.8-4.361c-.879,4.231-.057,8.926-1.357,13-.946,3.28-2.885,6.155-3.2,9.669.359.234.094.593.452.8,1.253.374,2.189,1.492,3.3,2.256.239.146.125.52.452.561a.639.639,0,0,0,.712-.364c.962-4.98,3.384-9.357,5.422-13.916.317,1.9-.977,3.582-1.559,5.313-1.482,3.379-2.636,6.955-3.972,10.3.088.177.27.146.416.146a5.286,5.286,0,0,0,.993-1.648c.889-.483,2.194-.437,2.693-1.456a91.953,91.953,0,0,1,2.4-9.721c-.707,3.457-.967,7.122-2.079,10.433-2.137.676-3.639,2.417-5.406,3.92a22.479,22.479,0,0,0-1.144,4.351l-.062-.057a.551.551,0,0,1-.042.172c.047.109.1.218.14.328-.026.52-.416.52-.863.52v.068c-1.84.52-1.487,2.812-1.892,4.361-.125,2.443.764,4.933-.52,7-2.35,6.586-8.749,11.675-13.661,17.087-2.147,5.255-7.61,9.149-8.718,14.81.1.587.187,1.19.26,1.8h1.658c-.182-.6-.385-1.19-.608-1.752,1.726-2.844,3.213-5.833,5.479-8.473,1.736-2.038,2.422-4.486,4.07-6.524,4.356-4.715,9.664-9.357,12.554-14.852,1.32-1.949.671-4.439,1-6.794l.208-.213L52.872,136.3a133.153,133.153,0,0,0,2.636,14.836,3.325,3.325,0,0,0,1.653,1.767,4.908,4.908,0,0,0,4.725-.671l2.412.244a8.286,8.286,0,0,0-.177,3.213c-.146.478.993.884.073,1.159a34.1,34.1,0,0,1-2.033,5.718h1.949c.317-1.04.66-2.079,1.04-3.119.146-.239.593-.125.561-.483a2.079,2.079,0,0,1,.13-1.783,5.552,5.552,0,0,0,2.6-.026,118.981,118.981,0,0,1,13.89-2.875c-1.211,2.921-2.8,6.436-5.64,8.276h1.934a6.971,6.971,0,0,0,1.216-1.471c.821-1.2,1.559-2.516,2.251-3.712.681-.452.405-1.1.754-1.731.587-.52.483-2.235,1.767-1.653,0,.3-.52.52-.556.868-.353.6-.4,1.43-1.04,1.793a16.489,16.489,0,0,1-2.5,5.905h2.552a37.463,37.463,0,0,0,6.046-2.485A27.251,27.251,0,0,0,104.4,159.2l.411-.52a23.117,23.117,0,0,1,.639,3.862h1.336a18.854,18.854,0,0,0-.712-5.365,2.173,2.173,0,0,0-1.081-.853,2,2,0,0,0-.338,1.788c-2.142.109-4.159.962-6.321,1.284a31.419,31.419,0,0,1-8.926-.478l-.442.52-5.484,1.96v-.27a26.853,26.853,0,0,1,5.479-2.344c.2-.743,1.008-.338,1.419-.671,1.237,1.622,3.639.437,5.51.66.327-.151.894-.068,1.008-.483,0-.478-.6-.38-.863-.291a17.323,17.323,0,0,1-4.642.047.806.806,0,0,0-.52-.769,30.481,30.481,0,0,0-8.031,3.057c.146-.3.078-1.253.7-1.289.353-.421.166-1.071.4-1.56.26-.686.613-1.372.9-2.079.359.088.421.65.868.348l.208-.208a61.388,61.388,0,0,1,1.118-10.1,9.4,9.4,0,0,1,1.991-.229c-.489,1.523-.146,3.119-.369,4.679a32.785,32.785,0,0,0,.062,6.155.556.556,0,0,0,.775,0,2.651,2.651,0,0,0,.218-1.788c4.039-.546,8.837-.265,12.845-.7a2.4,2.4,0,0,0,1.445,1.773c2.417.806,5.443.213,7.7-.317l.572.52c1.159-.161,2.412.3,3.509.114a10.917,10.917,0,0,1-.265,3.155l.208.208a.224.224,0,0,1,.208-.094.182.182,0,0,0,.239.234c.3.088.411-.27.561-.452,0-3.691,1.086-7.475.036-11.067a2.812,2.812,0,0,1,1.845.192c1.1,2.428.473,5.645.234,8.146a3.946,3.946,0,0,1-.52,2.355.442.442,0,0,0,.213.52c.52.114.619-.452.915-.723a22.351,22.351,0,0,1,1.1,2.843l1.559,1.56h1.736c-.7-.733-1.383-1.471-2.012-2.251.12.026.151-.088.208-.12l-.717-.229c.265-.094.681-.276.442-.629-.182-.146-.3-.416-.52-.146l-.146.151a4.892,4.892,0,0,1-.593-2.792l.359.083a5.583,5.583,0,0,0,1.45,2.334v.27c-.088,0-.177,0-.208.088.447-.125.6.442.988.613l.094.359c.6.749,1.232,1.513,1.892,2.261h1.128a18.109,18.109,0,0,1-4.278-6.3,23.819,23.819,0,0,1,3.992.676l.3-.3c.385-3.119.057-6.337-1.929-8.546h-.151c-.27-3.3.769-6.1,1.487-9-.083-2.318-.993-4.242-1.492-6.352l.411-.359a37.831,37.831,0,0,1,1.793,6.82c-.983,2.9-2.173,5.942-1.632,9.18a2.729,2.729,0,0,0,1.5,1.326c.972,1.981,1.622,4.678.665,6.862-.3.27-.567,0-.8.426.13,1.19,1.04,2.079,1.31,3.2l.889,2.4H134.6a28.7,28.7,0,0,1-1.248-8.135c1.18,2.672,2.168,5.427,3.27,8.135h1.04c-1.159-3.041-2.246-6.1-3.379-9.066-1.258-.7-2.807-1.04-4.159-1.684-.93-.91-1.092-2.308-1.612-3.462l.146-.151c.962,1.149.925,3.057,2.537,3.6a7.833,7.833,0,0,0,2.651.52A15.109,15.109,0,0,1,132.163,148c-.151-.177-.27-.473-.6-.348-.956-.52-1.476-1.653-2.225-2.474a61.65,61.65,0,0,0-.52-10.048,16.052,16.052,0,0,0-1.19-3.119l2.807,1.19a21.464,21.464,0,0,0,.083,8.271l.421.65c1.809,5.453,5.011,10.329,7.387,15.543q.7,2.448,1.357,4.912h1.731c-.691-2.214-1.32-4.465-1.975-6.711-1.092-4.985-5.411-8.6-6.623-13.557-1.175-1.773-.551-4.424-.66-6.566a18.646,18.646,0,0,0,4.211-1.471c-.613-1.721-1.559-3.254-2.043-5.037l13.984-14.493L172.741,89.3l2.079-1.658.2-.567Zm-71.7,96.112c-.057.088-.208.151-.208.27-2.3-.78-4.076-2.843-6.316-3.712L20,105.189C22.457,105.875,24.318,108.235,26.74,108.895Zm-6.649-1.43a13.288,13.288,0,0,1-3.639-1.45C17.794,106.4,20.071,105.183,20.092,107.465ZM61.018,24.578c-.239-.265.14-.686.2-.925a6.852,6.852,0,0,0,4.679-2.693,2.4,2.4,0,0,0,1.908.7C65.977,23.429,63.737,25.238,61.018,24.578ZM64.7,35.546c-1.5-1.591-1.851-3.67-1.991-5.838-.062-.088-.182-.146-.151-.265.234-.094.442-.151.65-.244a12.788,12.788,0,0,0,2.417,6.846c-.239.239-.759-.14-.925-.5Zm-1.923-7.8c-.062-.177.114-.447-.156-.561-.088.031-.239-.057-.3.094v-.52c2.308-1.04,4.944-2.163,6.238-4.642.244.52-.405,1.04-.457,1.559-1.679,1.528-3.036,4.07-5.318,4.1Zm6.29-4.616c.265-.062,1.123-.577,1.071.2-.146.327-.229.863-.707.868-.65.094-.239-.681-.359-1.04ZM77.076,18.2a20.321,20.321,0,0,0,4.86-1.981c-.671,1.284-1.845,2.693-3.421,2.74a.452.452,0,0,0-.114.717c.3.322.712,0,1.071,0,.062.359.421.52.723.65a4.778,4.778,0,0,0,1.689-.463c-.031.12.088.146.151.208a14.139,14.139,0,0,0-3.561.837c-1.372-.639-3.218-.3-4.637.047.379-.52.577-1.908,1.767-1.6a5.053,5.053,0,0,0,1.476-1.133Zm-3.447-2.464,2.079-.821,2.859.27a9.667,9.667,0,0,1-4.933.577Zm4.133,5.718c.359.177.717.52,1.076.52l.2-.447c1.487-.135,3.025-.951,4.429-.463,3.181-.328,6.378-1.611,9.633-.66A14.914,14.914,0,0,1,95.067,23.6c-.359-.083-.291.447-.291.421-.431-1.3-1.014-2.994-2.6-3.395a19.925,19.925,0,0,0-8.406,1.3c-.286.956.286,1.9.52,2.849,1.357,1.949,2.6,5.089,5.495,5.089a3.985,3.985,0,0,0,4.055-1.913,1.731,1.731,0,0,1,.556-.78,2.079,2.079,0,0,1-.639,1.7c-1.263,1.591-3.259,1.222-5.042,1.211-2.355-.452-3.6-3-4.273-4.954-.39-.172-.691-.587-1.227-.431-.452-.827-.645-1.929-1.56-2.485-.712.068-1.487.135-1.866.821a3.062,3.062,0,0,0-.7,1.559c-.088.12-.265.031-.416.062-.4-.712.192-1.559-.52-2.137-2.365-1.762-5.053.348-7.548.494l-.146.151-.3-.52A18.019,18.019,0,0,1,77.767,21.5Zm12.8-4.964a8.692,8.692,0,0,1,2.656,3.01c-1.2-.613-1.211-.088-4.055-.14a30.608,30.608,0,0,0-5.552.977l-.925-.286a4.6,4.6,0,0,0,2.88-3.717c.92-.276,1.715-.79,2.636-1.1C88.455,16.359,89.671,16.38,90.566,16.494ZM89.671,13.2a14.455,14.455,0,0,0-2.542-4.528,4.606,4.606,0,0,1,2.542,4.549Zm1.456,8.64a11.987,11.987,0,0,1-1.612,2.308c.172-.837,1.617-1.71.52-2.443-.8.307-.941,1.258-1.409,1.861.146-.416.79-1.315.489-1.908a11.067,11.067,0,0,1,3.421-.182l.27.353A18.364,18.364,0,0,0,90.5,26.049c.286-1.19,1.492-2.485,1.559-4-.25-.307-.639-.567-.931-.182Zm2.3.837.27.353-.354.213a33.713,33.713,0,0,0-1.949,4.216h-.151a32.634,32.634,0,0,1,2.183-4.757Zm.79,1.627.062.52-1.4,2.157a13.266,13.266,0,0,1,1.341-2.651Zm-7.278.577c-.2.478-.109,1.071-.608,1.435A5.675,5.675,0,0,1,85,24.193c.582-.421,1.539.042,1.934.723Zm-2.9,1.518c-.026.12-.239.062-.359.062a.639.639,0,0,1-.156-.769c.385-.068.447.468.509.733Zm-4.845.109c-.177.27-.3.151-.52.094l.405-1.164a1.382,1.382,0,0,1,.109,1.1ZM73.92,23.086l.447-.151A16.783,16.783,0,0,1,71.914,27.3c.333-1.409,1.45-2.76,2-4.19Zm-2.376,3.3c-.281-1.185.634-2.147,1.248-3.015H73Zm3.805-3.119A11.718,11.718,0,0,1,73.271,26.9a14.139,14.139,0,0,1,2.074-3.6ZM69.632,25.1a2.484,2.484,0,0,1,.322,2.438c-.3.3-.229,1.133-.853.931-.785-1.04.244-2.292-.094-3.358-.385.036-.52.52-.645.868a2.952,2.952,0,0,0,.328,2.854,3.844,3.844,0,0,0,2.027,3.608,5.443,5.443,0,0,0,5.037-1.892L76.9,28.96a5.731,5.731,0,0,1-4.45,3.909,3.831,3.831,0,0,1-3.582-1.482L68.5,30.53l-.65-5.2.52-.717a1.159,1.159,0,0,0,1.279.53ZM67.552,36.9a1.663,1.663,0,0,1-.717-.52l.561-9.076c.068,3.187.322,6.456.172,9.638ZM70.7,60.072a4.387,4.387,0,0,1-.988-.52l.192-1.788,1.076.556Zm1.31.343v.151c-.182-.088-.478,0-.52-.291l.192-1.56c.977.073.192,1.149.343,1.747Zm1.56.551-.27-.057a2.5,2.5,0,0,1,.405-1.222,8.977,8.977,0,0,0-.125,1.32Zm-.78-.52.135-1.279.416.2Zm2.454,1.643c-1.341-.1-.936-1.6-.827-2.433a5.012,5.012,0,0,0,.925.14,8.451,8.451,0,0,0-.083,2.355ZM77.107,63.5c-.359-.353-.957-.613-1.081-1.04a7.168,7.168,0,0,1,.12-2.651,1.6,1.6,0,0,1,1.071-.1,9.164,9.164,0,0,0-.1,3.852Zm6.378-19.577a10.516,10.516,0,0,1-4.159-.879c-.775-.052-.853,1.04-1.56,1.04-1.591,1.653-2.8,5.266-5.609,4.252-.624.036-1.04-1.56-1.643-.608a2.516,2.516,0,0,0,1.8,1.767,11.535,11.535,0,0,1,.1,4.159,14.587,14.587,0,0,0,7.065,4.273c.738-.483.52.587.931.853l.634,1.154c-1.939-.754-3.972-1.747-6.2-1.3h-.239c.114-.208-.125-.353-.27-.416l-.561.213c-.842-.8-3.691-.468-2.464-2.324.645-3.873-1.56-6.675-1.237-10.485,0-.655.312-1.669-.317-2.079s-.8.483-1,.811c-.291.52-.1,1.9-1.268,1.289-1.409-1.263-.364-3.5-.676-5.2-.073-1.248-1.211-2.22-.9-3.441.593-.156,1.17.7,1.851.489.182.561.743.083,1.04.437.447.057.7,1.092,1.133.343.276-2-1.908-3.374-1.04-5.432v-.224c1.284.286-.042,1.726.8,2.4.426.8,1.372.551,2.079.483,2.079-.853,3.3-2.8,5.074-4.335a12.874,12.874,0,0,1,.7-1.435l.925-2.448c.27.146.66.379.925.078a2.014,2.014,0,0,0,.546-1.882c-.151-.385-.6-.858,0-1.19a1.923,1.923,0,0,1,2.2.036c.244.473.9.853.463,1.482-.405,1.1,1.648,1.289.738,2.282.078,1.606,2.4,2.417,1.825,4.117a3.218,3.218,0,0,1-1.507,1.175.39.39,0,0,0,.3.265c1.133.229,1.263-1.679,2.49-1.008.416-.27.8-.754.645-1.227l-1.44-1.627.208-.151,3.743,2.6a23.527,23.527,0,0,1-2.469,3.031c.151.385.749.619,1.081,1.04-.442.182-1.04.457-1.513.135-1.913-.873-4.081-3.587-6.238-1.482-.749-.229-1.56-.759-2.412-.333l-1.414,1.144a7.8,7.8,0,0,1-1.2,1.944,3.426,3.426,0,0,1-1.372-.639c-.806-.052-.405.988-1.118,1.289-.088.3.27.473.421.593.686.26,1.04-.873,1.663-.166.3.234.775.348,1.138.613,2.344-.676,4.289.639,6.633.172a4.013,4.013,0,0,0,3.145-.686c.624-.094,1.726.192,2.287-.229.12,0,.031.239.062.353l-.561.421c-.062-.12-.208-.026-.3-.057-.348.6.369,1.1.224,1.783a6.5,6.5,0,0,1-.816,2.376c-1.081-.7-2.2.416-3.358.457Zm5.084-6.389a2.324,2.324,0,0,1-1.154.634c-1.128.192-2.033-.842-3.218-.593-1.913-.842-3.712.452-5.718.057-.858.276-1.56,1.206-2.49,1.1l2.272-2.079c1.939.307,3.561-.956,5.557-.322,1.1.047,1.882.873,2.807,1.31.769.447,1.352-.717,1.949-.036ZM91.439,62.4h-.265a12.159,12.159,0,0,0-1.752-2.9c.244-2.532,1.528-4.678,2.428-6.955l1.211-.936a.691.691,0,0,0,.3.416c.322-.39.8-.6,1.04-1.081l-1.154.665A28.62,28.62,0,0,1,91.065,47.5c1.814-.286,3.228-1.43,4.767-2.277-.951,2.927,0,6.368-1.274,9.175L91.5,61.211Zm.863.14a9.923,9.923,0,0,1,1.326-4.205c.962-2.183,2.131-4.247,2.225-6.758.25,4.159-2.459,7.132-2.537,11.15a2.953,2.953,0,0,1-1.008-.125ZM95.374,69.3l-.416-.146a8.832,8.832,0,0,0-.411-5.2c.416-.031.208.177.364.442a9.4,9.4,0,0,1,.468,4.959Zm.863.291c-.338-.951.608-1.762.182-2.651L96.211,67a12.94,12.94,0,0,0-.385-2.849,2.942,2.942,0,0,1,.785,1.154,20.023,20.023,0,0,1,.613,4.637,5.474,5.474,0,0,0-.977-.3Zm1.643.546a16.635,16.635,0,0,0-.712-5.718,42.571,42.571,0,0,1,2.292,6.238c.27.114.385-.182.416-.364a26.3,26.3,0,0,0-1.84-5.718c.353-.094.125.328.3.442a9.4,9.4,0,0,1,2.474,6.061,15.559,15.559,0,0,1-2.921-.884Zm3.53-35.214a.187.187,0,0,1-.146-.1c.1,1.253-.624,2.5-.634,3.816.166,1.487.837,3.53-.52,4.647-.738.452-.988-.556-1.637-.281-.094-.385-.073-1.128-.577-1.04-.109.951.26,2.256-.265,3.155,2.266,6.311-2.532,11.629-.889,18.194-1.107-.463-3.421.3-2.729-1.908.915-3.519,3.207-6.488,2.448-10.672-.083-2.142.343-4.159.385-6.129.114-.447.733-.931.192-1.372-.925-.405-1.393.7-2.079,1.04-1.9.437-4.621,2.079-6.274.062-.447-.234-.811-.676-1.378-.7.671-1.138,1.315-2.542.821-3.873a1.206,1.206,0,0,0,.707-.723c.354-.52-.691-.827.078-1.222a.577.577,0,0,0,.769-.218c-.25-1.04-1.118-1.6-1.809-2.329L90.4,32.089a6.815,6.815,0,0,0,4.985-1.123l1.04.286c.728,1.3,1.336,2.693,2.121,3.966.92-.187,1.32-1.71,2.485-1.3.026.062.047.125.073.182.483-.572,1.362-1.913,1.185-2.6a1.9,1.9,0,0,0-1.383-1.56c-.457-1.274.78-2.3.317-3.639-.218-.951-.759-1.508-.65-2.6-.213-.712-.962-.941-1.528-1.206-1.534-1.534-3.639-2.6-4.741-4.237a6.385,6.385,0,0,0,1.8-3.795l-.062-.088c-.7,1.107-1.071,2.75-2.464,3.384l-.645-1.112a2.838,2.838,0,0,0,2.079-1.388c.431-1.492,1.008-3.55-.255-4.845-.177,0-.359-.026-.447.151a5.4,5.4,0,0,1,.192,4.19,1.56,1.56,0,0,1-.946.7c.842-1.882.224-4.226-.624-5.911a3.462,3.462,0,0,0-2.308-1.611c-.52.39.187.769.369,1.128a4.98,4.98,0,0,1,.821,4.99,1.986,1.986,0,0,1-.561.66c-.619-2.521-1.128-5.718-4.05-6.592-.738.452-1.284-.463-1.939-.634-.567-.14-1.372-.551-1.871,0,.068.951,1.284.494,1.882.9,2.277,1.435,2.776,3.987,3.836,6.118-1.606-3.254-4.741-6.971-8.7-7.2a.806.806,0,0,0-.8.364c.52.52-.619.78-.135,1.222s1.279.2,1.877.457c2.355.691,4.159,3.228,5.406,5.2l-.208.208c-1.731-3.582-5.552-4.793-9.123-5.115-.593.244-1.559,0-1.778.79.717.348,1.606-.135,2.292.125a11.812,11.812,0,0,1,4.512,2.079,14.555,14.555,0,0,0-7.1-1.653c-.146.12-.3.333-.146.52.213.265.868.613.52,1.008a.457.457,0,0,0-.52.213c3.244.026,6.342.385,8.837,2.261a2.826,2.826,0,0,1-.416,2.714,4.109,4.109,0,0,1-3.55,1.762,12.633,12.633,0,0,0,3.259-4.107c.146-.52-.483-.707-.811-.853-2.417-1.04-5.245-1.107-7.927-1.5a16.523,16.523,0,0,1-3.207.629,4.131,4.131,0,0,1,3.119-.982c.12-.12.3-.213.234-.421-.925-.405-1.877-.073-2.859-.27l-.712-.052c.613-1.04,2.407-.411,3.322-1.1a4.145,4.145,0,0,0-2.5,0,3.4,3.4,0,0,0-1.773,1.086.624.624,0,0,0,.364.712H71.82l-2.688,2.022a2.741,2.741,0,0,0,2.079.276,4.985,4.985,0,0,1,1.336-.161c-.733,1.2-3.119-.624-3.2,1.31.421.411.769-.156,1.216-.073-.915.873-2.126,1.419-3.041,2.324-.057.239.125.385.276.561a9.009,9.009,0,0,1,2.937-.52c.353-.125.114-.52.26-.717.7-1.559,1.56.25,2.5.036l1.877.13c-2.823.473-5.578,1.185-8.494,1.456-.208.151-.385.421-.2.629l.567.348a13.515,13.515,0,0,0,2.942-.52,4.242,4.242,0,0,1-3.207.655.749.749,0,0,1-.307-1.128c.031-.062-.031-.12-.062-.146l-.442.3a25.11,25.11,0,0,1-2.344,2.4c1.258-2.183,3.3-3.779,5.152-5.406.026-.12-.088-.146-.151-.208-2.251,1.092-4.876,3.119-5.567,5.677l.208.208c-.177,0-.2.3-.416.244a6.95,6.95,0,0,1,3.894-5.635l2.339-1c.12-.12.026-.3.057-.447-.567-.353-1.159.1-1.695.255a14.893,14.893,0,0,0-3.072,1.877,36.2,36.2,0,0,0,3.686-3.4c-.151-.146-.359,0-.52.094-1.092.816-2.24,1.778-3.306,2.443-.411-2.344,1.949-4.45,3.868-5.749a24.084,24.084,0,0,1,11.145-3.68c.52-.39,1.84-.286,1.71-1.237a9.754,9.754,0,0,0-2.921-.686c2.35,0,5.115-.172,7.21.879.265-.239.52.052.775.109a3.046,3.046,0,0,0,.364.52c.52-.244,0-.567-.068-.863L84.567,3.951c1.814-.078,3.81.083,4.866,1.736,0,.177-.234.328-.052.52.52.146,1.071.229,1.56.4,2.334,1.164,4.159,3.675,5.323,5.749a.3.3,0,0,0,.239.353c.6.083.769-.634.972-1.04h-.057v-.208h.057c.291,2.318-.1,4.679-2.079,6.087-.234.567.52.946.582,1.424l5.339,4.647a7.393,7.393,0,0,1-.244,5.3c.25,1.128,1.523.639,1.741,1.825.1,1.06-.447,3.545-1.393,4.237ZM95.9,51.037h.057V51.4H95.9ZM96,25.394l-.2.806c-.712.187-.452-.707-.52-1.008-.182-.473.052-.951.047-1.43.27.088.567.052.717.348v.567c-.208.062-.567,0-.712.213-.036.5.5.468.676.556Zm.224,1.367c1.508,2.007,2.007,4.439,3.369,6.54l-.65.572c-.853-2.012-2.183-3.966-2.708-6.191-.026-.27-.868-.832-.005-.868Zm10.4,99.839a23.7,23.7,0,0,0,4.159,2.459l.723.707c-1.981-.166-4.367-.92-4.9-3.114ZM90.955,140.735c-2.8-2.979-5.094-6.612-8.453-9.555l-.125-.447c3.92,2.37,5.895,6.425,8.874,9.638C91.309,140.548,91.075,140.672,90.955,140.735ZM60.322,126.263c0-1.695-.031-3.332-.052-4.85,1.783,8.546,5.37,16.307,8.546,24.245-3.779-5.853-5.131-13.162-8.494-19.4Zm-5.38,3.415v1.279h-.057v-1.279Zm31.008,16.167c-3.748.068-7.278,1.32-10.839,1.835-2.22,1.242-7.106.426-6.529,4.5.608,1.419,2.36,1.284,3.732,1.45a12.956,12.956,0,0,1,3.509-.244,70.994,70.994,0,0,0,7.751-1.149,2.358,2.358,0,0,1,.1.92c-5.978.239-11.436,2.048-17.1,3.176,2.256-.676,4.507-1.326,6.758-2a.4.4,0,0,0-.364-.52c-1.606.135-3.862.634-4.741-1.04.047-1.222-.234-2.6.468-3.571,2.365-1.45,5.308-1.56,7.766-2.786,3-.327,6.176-1.284,9.539-.957Zm-11.572,6.03c-1.222,0-3.322.868-4.434-.431a1.986,1.986,0,0,1,.343-1.164l2.137-.437a3.93,3.93,0,0,0,1.955,2.033Zm16.271-5.994v-.8c3.327-.421,6.368.265,9.435.707v.12C97.017,145.9,93.768,145.283,90.649,145.881Zm12.024,3.639c.858-.691,2.137-.291,3.093-.119v.951c-1.029-.062-2.4-.021-3.093-.816Zm9.6,2.464c-.078.982-.244,2.079-1.2,2.511-2.079-.25-4.58.135-6.493-.8-.988-.613-1.118-1.741-1.04-2.906l1.159.135a1.8,1.8,0,0,0,.52,1.929,6.56,6.56,0,0,0,5.3.156c1.658-.582.655-2.714.821-4.023-.405-1.752-2.537-.78-3.79-1.242-.832,0-1.882-.723-2.5,0a1.081,1.081,0,0,0-.229.806l-1.43-.073a2.187,2.187,0,0,1,.691-2.079c2.469.094,4.647.816,7.091.91,2.033.78.754,3.114,1.1,4.689Zm-4.507-1.648-1.513.073.14-.925c.52,0,1.518-.135,1.372.608Zm4.762-2.906c.208-.062.208.057.27.208a7.563,7.563,0,0,0,2.708.239l.094.52c-.832-.2-2.854.322-3.072-.951Zm3.68,11.176-.088-.031.083-.832h.057Zm-.4-11.634a8.176,8.176,0,0,0-2.8-.327l-.265.359c-1.981-1.585-4.975-.665-7.158-1.71-1.679-1.352-3.639-1.955-5.474-2.947-1.56.073-2.667-1.819-3.639-2.88.52-.125,1.128-.042,1.56-.374l1.71,1.617c.863-.156,1.289.821,1.944,1.144a10.027,10.027,0,0,0,6.17,1.424l7.865,1.346a16.191,16.191,0,0,0,2.521,2.079A3.753,3.753,0,0,0,115.809,146.973Zm4.679,2.183-.062-.52c.743-.125,2.168-.437,2.266.4a6.886,6.886,0,0,0-2.235.114Zm4.481-45.111c.494,7.46.9,15.486,2.137,22.914l-1.138-.582-.468-4.99-.873-15.813Zm1.809,26.189c-1.19-.224-2.043.884-3.051,1.4-.068-.8-1.419-2.079.068-2.438-.031-.8.426-1.133.993-1.788l-.14-.707a1.112,1.112,0,0,1,.094.717l1.383.951a7.442,7.442,0,0,1-.135-1.175,3.8,3.8,0,0,1,1.227.847,3.332,3.332,0,0,1,.146,1.18l1.32.91c0-.307-.083-.645-.088-.972L132.7,132.9a1.444,1.444,0,0,0,.561-.213,2.6,2.6,0,0,1,.364.769,60.165,60.165,0,0,1-6.877-3.223Z" transform="translate(11.551 24.573)"/><path class="h" d="M0,.057A2.221,2.221,0,0,0,.208.733,2.641,2.641,0,0,0,.042,0Z" transform="translate(112.612 58.715)"/><path class="h" d="M2.948.559C3.067.5,3.332.435,3.3.2A8.318,8.318,0,0,0,1.009.014C.712.253-.005-.038,0,.533.78.851,1.908.45,2.948.559Z" transform="translate(90.955 46.028)"/><path class="h" d="M1.225,3.1C2.561,2.816,2.873,1.2,3.694.274L3.481.009C1.994-.152,1.505,1.963.05,2.088-.262,3.32.98,2.176,1.225,3.1Z" transform="translate(88 54.543)"/><path class="h" d="M1.617,2.778a2.02,2.02,0,0,0,1.56-.166c.12-.088.057-.239.146-.359C2.246,1.733,1.9-.232.442.023.234.142.026.236,0,.5.619,1.239.868,2.248,1.617,2.778Z" transform="translate(92.811 54.513)"/><path class="h" d="M1.227,2.362c.265-.12.624-.333.707-.6C1.159,1.5,1.6.512,1.263.07A.452.452,0,0,0,.7.138,4.85,4.85,0,0,1,0,2.019C.307,2.4.754,2.368,1.227,2.362Z" transform="translate(91.013 56.467)"/><path class="h" d="M3.648.2C2.837-.54,3.237,1,2.53,1.238c-.359.125-.769.754-1.159.218-.379.567.192,1.279.109,1.991C1.137,4.7-.5,5.49.149,7.029c.088.208.364.473.567.291,0-1.456,2.152-1.658,1.991-3.171.062.208.27.322.213.561A7.278,7.278,0,0,0,2.4,7.45a.993.993,0,0,1,.276.624c.239-.031.146-.327.353-.421-.25-1.04.369-1.877.478-2.859L2.468,2.662c-.3-.52.052-.863.52-1.076l.3.416c.177.057.655.114.561-.276C3.455,1.321,3.6.666,3.648.2Z" transform="translate(108.496 59.063)"/><path class="h" d="M.644,2.859c.2-.52-.307-1.128.042-1.637C.649.743,1.689.379,1.028,0,.586.686-.24,1.04.067,2,.254,2.313.171,2.833.644,2.859Z" transform="translate(83.497 61.107)"/><path class="h" d="M3.176,5.115c-1.081-.884-.65-2.37-.66-3.415A8.916,8.916,0,0,0,.208,0C.057.088-.146.421.156.567,1.2.827.2,2.261,1.008,2.49c.327-.125.738-.66,1.008-.307a10.012,10.012,0,0,0-.7,1.523c-.114.717-.192,1.7.676,2.048a1.591,1.591,0,0,0,1.56-.135C3.769,5.318,3.472,5.084,3.176,5.115Z" transform="translate(77.845 61.886)"/><path class="h" d="M1.835.218C1.144-.546.712.941,0,.951c.213.593,1.04.645,1.643.7C2.235,1.378,1.663.759,1.835.218Z" transform="translate(83.74 64.298)"/><path class="h" d="M.057,0,0,.026.062.385.151.353Z" transform="translate(106.025 74.575)"/><path class="h" d="M19.889,11.312c.894-2.6,1.2-5.427,2.417-7.875a1.508,1.508,0,0,1,.608-1.56C22.7,1.2,23.377.561,23.341,0c-.327,0-.587.717-.858.244-1.372-.286-2.22,1.211-3.119,2.079C17.487,5,15.408,7.579,13.812,10.36l.27.146c2.6-2.942,4.393-6.675,7.4-9.149v.208q-3.738,5.718-7.231,11.494h.359a61.734,61.734,0,0,0,5.131-7.189l.442-.364c-1.253,2.63-.681,5.957-3.431,7.979C10.615,20.8,6.711,28.991,2,36.919c-.717-.229-1.258-.91-2-1.04.062.416.52.738.873,1,2.682.567,4.351,3.639,7.382,3.348a.775.775,0,0,0,.561-.572c-.52-.353-.224-1.4,0-1.934a70.066,70.066,0,0,1,4.892-10.49h.14A69.086,69.086,0,0,0,9.814,37.36,7.965,7.965,0,0,0,9.2,40.849a.437.437,0,0,0,.52-.213c.66-2.417,1.44-4.8,2.277-7.163C15.309,26.345,18.335,19.12,19.889,11.312Zm-6.04,15.767.146-.239.062.057-.146.208Z" transform="translate(31.897 85.762)"/><path class="h" d="M9.485,6.922c.27.026.52.52.775.109.177-.239,0-.52-.125-.712C8.394,4.879,6.444,3.351,4.589,1.973L1.568.128A1.378,1.378,0,0,0,.144.289c-.3.182-.052.52,0,.712C3.58,2.166,6.377,4.962,9.485,6.922Z" transform="translate(118.654 101.874)"/><path class="h" d="M.843,2.433c-.187-.863.665-1.643,0-2.35C.4-.207.13.328.073.656A2.036,2.036,0,0,0,.448,2.584a.244.244,0,0,0,.4-.151Z" transform="translate(131.242 107.813)"/><path class="h" d="M1.752,5.4c1.518,2.927,2.6,6.16,3.9,9.243L13.23,31.852a1.128,1.128,0,0,0-.925-.14v.239A109.573,109.573,0,0,0,25.04,41.219a35.754,35.754,0,0,0,4.133,5.671l2.6,5.417c.39.385.369,1.3,1.144,1.118.624-.125.2-.717.14-1.071.374-1.4-.151-2.973.1-4.346-.244-.561-.4-1.274-.936-1.56a134.421,134.421,0,0,1-7.61-11.493c-2.339-4.616-6.129-8.713-9.705-12.752a3.228,3.228,0,0,1-1.435-.608L9.908,13.122l.265-.52L4.346,6.193c-.239-.3-.307-.832-.723-.858A6.342,6.342,0,0,1,1.6,2.081C1.2,1.312,1.159-.055,0,0L.369,1.483A16.532,16.532,0,0,1,1.752,5.4ZM3.914,7.316a62.159,62.159,0,0,1,5.2,5.656c1.19,3.119,2.682,6.129,4.018,9.18,3.7,4.185,7.8,8.458,10.22,13.313a116.923,116.923,0,0,0,8.9,13.115c.13,1.04.047,1.632.088,2.708a18.835,18.835,0,0,1-2.079-4.528c-4.065-5.016-6.758-10.61-10.4-15.839a87.43,87.43,0,0,1-8.005-8.962,5.848,5.848,0,0,0-1.154-2.37l-.146.151c.9,3.592,2.272,7,3.317,10.527.031.327-.062-.151-.151-.208l-.057.359c.14-.743-.962-1.123-.52-1.929l-.447-.265A239.675,239.675,0,0,1,2.828,5.871c.39.556.868.842,1.081,1.445Z" transform="translate(101.555 112.329)"/><path class="h" d="M9.107,3.57a7.106,7.106,0,0,1-3.795-1.6C3.322,2.052,2.079-.105,0,0A24.139,24.139,0,0,1,3.02,1.756L2.469,3.128A2.256,2.256,0,0,1,1.32,4.209c-.057.177-.322.359-.114.567a23.206,23.206,0,0,1,4.876,2.6.593.593,0,0,0,.78.52c.769-.52,2.287-.322,2.277-1.6C8.816,5.327,9.445,4.428,9.107,3.57Z" transform="translate(30.691 123.103)"/><path class="h" d="M5.96,5.273,6.376,5c.177-.151,0-.359-.062-.52-2.3-.52-4.19-2.6-5.755-4.434-.447-.2-.65.276-.52.572A10.568,10.568,0,0,0,5.96,5.273Z" transform="translate(43.315 126.209)"/><path class="h" d="M.843,1.019c-.114.717-1.086,1.258-.785,2C1.305,2.62,1.5,1.1,1.544,0,1.1.068.957.619.843,1.019Z" transform="translate(44.866 130.38)"/><path class="h" d="M3.524,3.535c.12.088.416.146.52-.094a3.15,3.15,0,0,0-.156-.92A15.137,15.137,0,0,0,.353,0L0,.27C1.06,1.268,2.74,2.2,3.524,3.535Z" transform="translate(50.429 131.56)"/><path class="h" d="M6.16,3.015c-.27-.088-.624.156-.8.364A9.458,9.458,0,0,0,1.279,0,7.346,7.346,0,0,0,0,2.958c1.71,1.32,3.9,2.875,4.777,4.86a17.524,17.524,0,0,0,.837-2.776A13.784,13.784,0,0,0,6.16,3.015Z" transform="translate(47.435 131.996)"/><path class="h" d="M.962.021C.639,3.66.021,7.231,0,10.886c.088.088.12.3.3.2A7.8,7.8,0,0,0,.567,7.663c.52-1.133.125-2.6.52-3.784.348-.775-.166-1.9.39-2.6C1.211.941,1.934-.166.962.021Z" transform="translate(97.874 170.375)"/><path class="h" d="M.295,9.631A38.586,38.586,0,0,0,.56.347c.083-.359-.749-.556-.52,0C.737,3.326.082,6.569.295,9.631Z" transform="translate(128.947 172.742)"/><path class="h" d="M0,.364A.847.847,0,0,0,.567.712C.983.826,1.58.852,1.783.431A3.862,3.862,0,0,1,.14,0Z" transform="translate(82.207 175.408)"/><path class="h" d="M14.243.972c.177-.119.473-.3.348-.6A.967.967,0,0,0,13.6.026,83.645,83.645,0,0,0,3.343,3.145C2.22,3.811.853,4.154,0,5.11A50.127,50.127,0,0,1,9.69,1.653,12.774,12.774,0,0,1,14.243.972Z" transform="translate(77.351 179.93)"/><path class="h" d="M.452,2c.52-.572,1.04-1.232.811-2A5.443,5.443,0,0,0,0,1.8C.036,2.007.276,2.033.452,2Z" transform="translate(91.247 180.247)"/><path class="h" d="M.789.139c-.3.213-.92.426-.764.931a1.128,1.128,0,0,0,.359.3c.946-.483,2,.307,2.854-.177-.12-.177,0-.478-.156-.624A2.293,2.293,0,0,0,.789.139Zm.52.52a1.253,1.253,0,0,1,1.159.2Z" transform="translate(118.498 180.405)"/><path class="h" d="M.525.005c-.3-.026-.567.036-.52.364L1.955,2.137h.208c.057-.151.2-.239.146-.416A12.289,12.289,0,0,0,.525.005Z" transform="translate(134.065 181.812)"/><path class="h" d="M0,2.079C.951,1.892,1.04.671,1.258,0A2.412,2.412,0,0,0,0,2.079Z" transform="translate(89.791 182.774)"/><path class="h" d="M.717.564C.686.268.354-.263,0,.153c.3.473.042,1.31.52,1.559C.873,1.515.811.949.717.564Z" transform="translate(121.808 182.652)"/><path class="h" d="M1.346,1.069C.9.716.65-.173,0,.03.036.685.754,1.21,1.294,1.444,1.409,1.345,1.315,1.168,1.346,1.069Z" transform="translate(136.701 184.512)"/><path class="h" d="M1.919.151,1.857,0C1.238.629-.036.941,0,1.861A2.968,2.968,0,0,0,1.919.151Z" transform="translate(87.373 185.066)"/><path class="h" d="M.128,0A2.079,2.079,0,0,0,.294,1.783c.12.026.208-.094.3-.151C.44,1.154.933.078.128,0Z" transform="translate(122.21 185.243)"/><path class="h" d="M.39.114C.421.073.457.036.483,0,.338.042.177.078,0,.114Z" transform="translate(86.537 187.026)"/><path class="h" d="M.03.276A.953.953,0,0,1,.238.432H.93L.5,0C.269.006-.11-.051.03.276Z" transform="translate(138.386 186.708)"/><path class="g" d="M38.026,24.978a7.389,7.389,0,0,0,.244-5.3l-5.344-4.642c-.062-.473-.811-.853-.582-1.424,1.981-1.388,2.37-3.774,2.079-6.087h-.057v.208h.057c-.2.39-.374,1.1-.972,1.04a.3.3,0,0,1-.239-.353c-1.18-2.079-2.989-4.58-5.323-5.749-.52-.172-1.071-.255-1.559-.4-.182-.177.057-.327.052-.52C25.342.1,23.33-.062,21.516.016L23.465,1.84c.062.3.572.619.068.863a3.048,3.048,0,0,1-.364-.52c-.239-.057-.52-.353-.775-.109-2.079-1.04-4.855-.9-7.21-.879a10.429,10.429,0,0,1,2.921.686c.13.951-1.18.842-1.71,1.237A24.084,24.084,0,0,0,5.25,6.8C3.332,8.1.972,10.2,1.383,12.549c1.04-.665,2.214-1.627,3.306-2.443.151-.088.354-.239.52-.094a36.192,36.192,0,0,1-3.686,3.4A14.9,14.9,0,0,1,4.575,11.53c.52-.156,1.123-.608,1.695-.255-.026.151.062.328-.057.447L3.868,12.741A6.95,6.95,0,0,0,0,18.371c.208.057.234-.239.416-.244l-.208-.208c.686-2.537,3.317-4.585,5.567-5.677.062.057.177.088.151.208C4.07,14.077,2.033,15.673.775,17.856A25.112,25.112,0,0,0,3.1,15.486l.442-.3c.031.031.088.088.062.146a.749.749,0,0,0,.307,1.128A4.242,4.242,0,0,0,7.117,15.8a13.515,13.515,0,0,1-2.942.52l-.567-.348c-.182-.208,0-.478.2-.629,2.911-.27,5.671-.977,8.494-1.456l-1.877-.13c-.92.218-1.8-1.617-2.5-.036-.146.208.094.593-.26.717a9.009,9.009,0,0,0-2.937.52c-.151-.177-.328-.322-.276-.561.915-.9,2.126-1.45,3.041-2.324-.447-.083-.8.483-1.216.073.1-1.934,2.469-.114,3.2-1.31A4.985,4.985,0,0,0,8.141,11a2.737,2.737,0,0,1-2.079-.276L8.749,8.7H7.527a.624.624,0,0,1-.364-.712A3.405,3.405,0,0,1,8.936,6.9a3.816,3.816,0,0,1,2.5,0c-.915.691-2.708.088-3.322,1.1l.712.052c.982.2,1.934-.14,2.859.27.062.208-.114.3-.234.421a4.144,4.144,0,0,0-3.119.982A16.522,16.522,0,0,0,11.54,9.1c2.682.39,5.51.478,7.927,1.5.327.146.957.348.811.853a12.472,12.472,0,0,1-3.259,4.107A4.109,4.109,0,0,0,20.57,13.8a2.812,2.812,0,0,0,.416-2.714C18.5,9.206,15.4,8.848,12.149,8.822a.457.457,0,0,1,.52-.213c.353-.39-.307-.738-.52-1.008-.151-.177,0-.385.146-.52a14.555,14.555,0,0,1,7.1,1.653,11.1,11.1,0,0,0-4.512-2.079c-.686-.26-1.56.224-2.292-.125.229-.806,1.185-.546,1.778-.79,3.571.322,7.392,1.534,9.123,5.115l.208-.208c-1.268-1.949-3.051-4.491-5.406-5.2-.6-.26-1.367,0-1.877-.457s.65-.691.135-1.222a.806.806,0,0,1,.8-.364c3.956.229,7.091,3.946,8.7,7.2C25,8.473,24.484,5.926,22.207,4.486c-.6-.411-1.814.047-1.882-.9.52-.572,1.3-.161,1.871,0,.655.172,1.2,1.086,1.939.634,2.927.894,3.431,4.07,4.05,6.592a1.986,1.986,0,0,0,.561-.66,4.98,4.98,0,0,0-.821-4.99c-.182-.353-.9-.733-.369-1.128A3.462,3.462,0,0,1,29.864,5.64c.847,1.684,1.466,4.029.624,5.911a1.56,1.56,0,0,0,.931-.723,5.4,5.4,0,0,0-.192-4.19c.088-.177.265-.151.447-.151,1.263,1.294.686,3.353.255,4.845a2.838,2.838,0,0,1-2.079,1.388l.665,1.123c1.393-.639,1.762-2.277,2.464-3.384l.062.088a6.476,6.476,0,0,1-1.8,3.795c1.086,1.653,3.207,2.7,4.741,4.237.567.26,1.315.494,1.528,1.206-.109,1.1.432,1.663.65,2.6.463,1.362-.78,2.386-.317,3.639.775.109,1.138.879,1.383,1.56a2.2,2.2,0,0,1-.483,2c.031.151.182.473.421.353.946-.691.691-2.079.624-3.161C39.549,25.617,38.275,26.085,38.026,24.978Z" transform="translate(74.627 28.497)"/><path class="g" d="M0,0A14.141,14.141,0,0,1,2.542,4.528,4.606,4.606,0,0,0,0,0Z" transform="translate(98.675 33.269)"/><path class="g" d="M2.079,0,0,.821A9.907,9.907,0,0,0,4.933.265Z" transform="translate(85.18 39.507)"/><path class="d" d="M5.515,0C4.6.307,3.8.821,2.88,1.1A4.6,4.6,0,0,1,0,4.814L.925,5.1c1.747-.551,8.411-1.45,9.607-.837A8.692,8.692,0,0,0,7.875,1.232C6.981,1.118,5.765,1.1,5.515,0Z" transform="translate(94.241 39.835)"/><path class="d" d="M0,4.736c1.424-.343,3.265-.686,4.637-.047a14.139,14.139,0,0,1,3.545-.837C8.12,3.795,8,3.764,8.031,3.644a4.777,4.777,0,0,1-1.689.463c-.3-.114-.655-.291-.723-.65-.359,0-.769.333-1.071,0a.452.452,0,0,1,.114-.717C6.222,2.693,7.413,1.284,8.083,0a20.32,20.32,0,0,1-4.86,1.981A5.053,5.053,0,0,1,1.747,3.124C.572,2.828.385,4.2,0,4.736Z" transform="translate(85.388 40.807)"/><path class="f" d="M.3,3.116l.146-.151C2.942,2.819,5.645.714,8,2.471c.717.587.135,1.424.52,2.137.151-.031.327.057.416-.062a3.062,3.062,0,0,1,.7-1.56c.379-.686,1.154-.754,1.866-.821.925.556,1.118,1.653,1.559,2.485.52-.156.837.26,1.227.431.676,1.955,1.918,4.5,4.273,4.954,1.783,0,3.779.379,5.042-1.211a2.079,2.079,0,0,0,.639-1.7,1.731,1.731,0,0,0-.556.78,4.007,4.007,0,0,1-4.055,1.913c-2.885,0-4.159-3.119-5.495-5.089-.218-.951-.79-1.9-.52-2.849A19.925,19.925,0,0,1,22.046.563c1.56.4,2.163,2.079,2.6,3.395,0,.031-.062-.52.291-.421A14.913,14.913,0,0,0,22.972.345C19.717-.606,16.52.677,13.339,1c-1.4-.489-2.942.327-4.429.463l-.2.447c-.359.031-.717-.317-1.076-.52A17.083,17.083,0,0,0,0,2.6Zm9.976-1.736a8.317,8.317,0,0,1,2.292.187c.031.239-.234.3-.354.359-1.04-.109-2.168.291-2.947-.031.016-.567.712-.291,1.008-.515Z" transform="translate(81.687 44.662)"/><path class="g" d="M4.957,0A6.923,6.923,0,0,1,.278,2.693c-.057.239-.442.66-.2.925C2.794,4.273,5.034,2.469,6.89.7A2.4,2.4,0,0,1,4.957,0Z" transform="translate(72.499 45.532)"/><path class="d" d="M4.179.411,3.909.058A11.067,11.067,0,0,0,.489.24C.79.832.146,1.732,0,2.148.468,1.55.608.588,1.409.287,2.485,1.019,1.04,1.9.889,2.73A12.221,12.221,0,0,0,2.5.422c.3-.39.681-.125.925.2-.042,1.518-1.253,2.807-1.56,4A19.076,19.076,0,0,1,4.179.411Z" transform="translate(100.193 46.01)"/><path class="g" d="M5.781,1.56c.052-.567.7-1.076.457-1.56C4.954,2.48,2.318,3.608,0,4.642v.52c.057-.151.208-.062.3-.094.27.114.094.385.156.561C2.755,5.573,4.112,3.031,5.781,1.56Z" transform="translate(73.863 46.749)"/><path class="f" d="M.383,1.291c.473,0,.561-.52.707-.868C1.142-.352.284.163.019.225.139.579-.272,1.353.383,1.291Z" transform="translate(80.602 47.511)"/><path class="d" d="M2.1.567,2.454.353,2.183,0A31.7,31.7,0,0,0,0,4.782H.135A33.7,33.7,0,0,1,2.1.567Z" transform="translate(102.792 47.258)"/><path class="d" d="M2.012.151C1.461,1.585.343,2.932,0,4.367A16.784,16.784,0,0,0,2.454,0Z" transform="translate(83.454 47.534)"/><path class="d" d="M0,3.639A11.718,11.718,0,0,0,2.079,0C1.1.977.671,2.412,0,3.639Z" transform="translate(84.79 47.887)"/><path class="d" d="M.052,3.02,1.508,0H1.3C.686.873-.229,1.83.052,3.02Z" transform="translate(83.038 47.96)"/><path class="d" d="M21.58,15.424c.088.031.239-.062.3.057l.561-.421c-.031-.12.057-.359-.062-.354-.561.421-1.663.135-2.287.229a4.013,4.013,0,0,1-3.145.686c-2.344.468-4.294-.847-6.633-.172-.359-.265-.837-.379-1.138-.613-.6-.707-.977.426-1.663.166-.151-.12-.52-.291-.421-.593C7.8,14.1,7.4,13.069,8.2,13.121a3.426,3.426,0,0,0,1.372.639,7.8,7.8,0,0,0,1.2-1.944l1.414-1.144c.827-.426,1.669.1,2.412.333,2.152-2.079,4.32.608,6.238,1.482.478.322,1.071.047,1.513-.135-.333-.442-.931-.676-1.081-1.04a23.529,23.529,0,0,0,2.469-3.031L20,5.682l-.208.151,1.445,1.622c.151.473-.229.956-.645,1.227-1.227-.671-1.357,1.232-2.49,1.008a.39.39,0,0,1-.3-.265A3.218,3.218,0,0,0,19.309,8.25c.577-1.7-1.752-2.511-1.825-4.117.915-.993-1.144-1.18-.738-2.282.442-.629-.218-1.008-.463-1.482a1.923,1.923,0,0,0-2.2-.047c-.593.333-.14.806,0,1.19a2.018,2.018,0,0,1-.546,1.882c-.265.3-.655.068-.925-.078l-.925,2.448a12.876,12.876,0,0,0-.7,1.435c-1.767,1.56-3,3.483-5.074,4.335-.712.068-1.663.312-2.079-.483-.842-.676.483-2.116-.8-2.4v.27C2.165,11,4.353,12.357,4.078,14.353c-.437.749-.686-.291-1.133-.343-.27-.353-.832.125-1.04-.437-.681.213-1.258-.639-1.851-.489-.312,1.222.827,2.194.9,3.441.317,1.695-.733,3.935.676,5.2,1.164.613.972-.754,1.268-1.289.2-.327.437-1.164,1-.811s.312,1.424.317,2.079C3.87,25.514,6.1,28.315,5.455,32.188c-1.232,1.856,1.622,1.528,2.464,2.324l.561-.213c.151.057.39.2.27.416H8.99c2.225-.437,4.257.551,6.2,1.3l-.634-1.154c-.39-.265-.192-1.336-.93-.853A14.587,14.587,0,0,1,6.562,29.74a11.563,11.563,0,0,0-.1-4.159,2.516,2.516,0,0,1-1.8-1.767c.587-.93,1.04.645,1.643.608,2.807,1.014,4.018-2.6,5.609-4.252.712,0,.79-1.076,1.56-1.04a10.516,10.516,0,0,0,4.159.879c1.159-.042,2.277-1.154,3.358-.452a6.5,6.5,0,0,0,.811-2.36C21.949,16.52,21.227,16.021,21.58,15.424Zm-5.718-9.43c1.456-.255,1.8,1.705,2.88,2.23-.088.12-.026.27-.146.359a2.035,2.035,0,0,1-1.559.166c-.749-.52-1-1.56-1.6-2.277C15.446,6.207,15.644,6.113,15.862,5.994Zm-.993,2c.333.442-.1,1.43.671,1.689-.088.27-.442.478-.707.6-.478,0-.92.042-1.222-.343a5.021,5.021,0,0,0,.7-1.882A.452.452,0,0,1,14.869,8Zm-4.221.1c1.456-.135,1.939-2.251,3.431-2.079l.213.265c-.821.931-1.133,2.542-2.469,2.823-.25-.931-1.492.213-1.175-.988ZM3.974,18.964a1.591,1.591,0,0,1-1.559.135c-.868-.348-.785-1.331-.676-2.048a10.006,10.006,0,0,1,.7-1.523c-.27-.353-.681.187-1.008.307-.806-.229.161-1.669-.853-1.923-.3-.146-.094-.473.052-.567a8.915,8.915,0,0,1,2.308,1.7c0,1.04-.421,2.532.66,3.415C3.911,18.428,4.207,18.662,3.974,18.964Zm2.188-4.393c-.307-.977.52-1.315.962-2,.66.379-.379.749-.343,1.222-.353.52.161,1.1-.042,1.637-.478-.031-.4-.551-.577-.863Z" transform="translate(77.407 48.542)"/><path class="f" d="M.834.348C.684.052.387.083.117,0,.117.478-.112.951.07,1.43c.062.3-.2,1.19.52,1.008l.2-.806c-.182-.088-.712-.052-.66-.52C.278.9.653.957.845.9Z" transform="translate(106.771 48.391)"/><path class="d" d="M0,.177A5.758,5.758,0,0,0,1.331,2.3c.52-.364.405-.957.608-1.435C1.544.193.587-.27,0,.177Z" transform="translate(96.544 48.615)"/><path class="f" d="M.52,0,0,.717.655,5.936l.369.92A3.831,3.831,0,0,0,4.606,8.338a5.732,5.732,0,0,0,4.45-3.909L7.912,6.02A5.419,5.419,0,0,1,2.875,7.912,3.862,3.862,0,0,1,.847,4.3,2.966,2.966,0,0,1,.52,1.45c.146-.328.26-.837.645-.868C1.5,1.648.473,2.88,1.258,3.94c.629.2.556-.629.853-.93A2.484,2.484,0,0,0,1.788.572,1.159,1.159,0,0,1,.52,0Z" transform="translate(79.4 49.166)"/><path class="d" d="M1.341,0A13.267,13.267,0,0,0,0,2.662L1.4.5Z" transform="translate(104.424 48.906)"/><path class="d" d="M.5,1.071C.561.775.645.265.405,0L0,1.164C.218,1.222.327,1.341.5,1.071Z" transform="translate(90.233 50.039)"/><path class="d" d="M.067.011A.639.639,0,0,0,.223.78C.342.78.55.837.581.718.514.453.451-.083.067.011Z" transform="translate(95.006 50.283)"/><path class="f" d="M.4.92c.52,2.225,1.856,4.159,2.708,6.191l.65-.572C2.394,4.46,1.9,2.007.388,0-.475.036.367.6.4.92Z" transform="translate(107.395 51.386)"/><path class="f" d="M.717,9.575C.863,6.389.593,3.124.561,0L0,9.076a1.664,1.664,0,0,0,.717.5Z" transform="translate(78.401 51.942)"/><path class="d" d="M.005.224C-.026.343.093.4.156.489.3,2.662.644,4.736,2.147,6.326c.182.353.691.738.925.52A12.788,12.788,0,0,1,.655,0C.452.068.234.13.005.224Z" transform="translate(74.103 53.792)"/><path class="d" d="M14.81,2.947c-1.164-.405-1.56,1.118-2.485,1.3C11.54,2.979,10.932,1.591,10.2.286L9.165,0A10.182,10.182,0,0,1,2.989,1.076L.65,3.935c.691.738,2.563,1.658,2.812,2.7a.577.577,0,0,1-.769.218c-.769.4-.78.769-1.133,1.31-.088.3-.483.036-.78.13A4.853,4.853,0,0,1,0,12.258,9.3,9.3,0,0,1,2.459,13.37c1.658,2.007,4.377.374,6.274-.062.681-.333,1.144-1.44,2.079-1.04.52.442-.078.925-.192,1.372-.042,1.991-.468,3.992-.385,6.129.759,4.185-1.56,7.153-2.448,10.672-.691,2.209,1.622,1.44,2.729,1.908-1.643-6.586,3.15-11.9.889-18.194.52-.9.156-2.2.265-3.155.52-.062.483.681.577,1.04.65-.275.9.733,1.637.281,1.357-1.112.681-3.161.52-4.647C14.425,6.046,15.548,4.517,14.81,2.947Zm-.821,2.511-.3-.416c-.442.213-.8.52-.52,1.076l1.04,2.131c-.109.982-.728,1.819-.478,2.859-.208.094-.114.39-.353.421a.993.993,0,0,0-.276-.624,7.277,7.277,0,0,1,.52-2.74c.057-.239-.151-.354-.213-.561.166,1.518-2.007,1.715-1.991,3.171-.208.182-.478-.083-.567-.291-.639-1.56.988-2.329,1.331-3.582.083-.717-.489-1.424-.109-1.991.39.52.8-.1,1.159-.218.712-.213.307-1.757,1.118-1.04-.057.478-.2,1.133.161,1.518C14.628,5.567,14.15,5.515,13.989,5.458Z" transform="translate(97.776 55.586)"/><path class="d" d="M10.636,1.491C9.71,1.054,8.926.227,7.829.181,5.827-.454,4.19.81,2.272.5L0,2.582c.951.109,1.627-.821,2.49-1.1,2,.4,3.8-.9,5.718-.057,1.185-.25,2.079.78,3.218.593a2.324,2.324,0,0,0,1.154-.634C11.967.732,11.384,1.9,10.636,1.491Z" transform="translate(87.561 60.76)"/><path class="d" d="M6.41,0C4.85.847,3.457,1.991,1.643,2.277A28.623,28.623,0,0,0,3.826,6.389L4.98,5.723c-.26.478-.738.691-1.04,1.081a.691.691,0,0,1-.3-.416l-1.211.936C1.528,9.6.239,11.748,0,14.28a12.16,12.16,0,0,1,1.757,2.9h.265l.078-1.19,3.057-6.81C6.415,6.368,5.458,2.916,6.41,0ZM5.053,4.741,5.11,4.71l.094.353-.088.031Z" transform="translate(100.993 69.861)"/><path class="d" d="M.062,0H0L.005.354H.062Z" transform="translate(107.46 75.662)"/><path class="d" d="M3.55,0C3.457,2.5,2.287,4.564,1.326,6.758A10.146,10.146,0,0,0,0,10.963c.328.083.686.14,1.014.2C1.092,7.132,3.8,4.159,3.55,0Z" transform="translate(103.858 76.229)"/><path class="i" d="M25.472,62.014a22.477,22.477,0,0,1,1.175-4.356c1.767-1.508,3.27-3.244,5.406-3.92,1.128-3.311,1.388-6.976,2.079-10.433a90.075,90.075,0,0,0-2.4,9.721c-.52,1.04-1.8.972-2.693,1.456a5.248,5.248,0,0,1-.993,1.648c-.151,0-.328.031-.416-.146,1.336-3.342,2.49-6.924,3.972-10.3.608-1.731,1.9-3.41,1.56-5.313-2.038,4.543-4.46,8.941-5.422,13.916a.639.639,0,0,1-.712.364c-.327-.057-.213-.416-.452-.561-1.107-.764-2.043-1.882-3.3-2.256-.359-.2-.094-.561-.452-.8.322-3.514,2.256-6.389,3.2-9.669,1.3-4.06.478-8.749,1.357-13a12.778,12.778,0,0,0-1.8,4.361c-.806,5.422-3.317,10.147-5.651,14.992-.234.416-.556,1.133-1.18,1.081-.416-.114-.421-.619-.307-.951,2.079-4.679,4.637-9.18,6.134-14.1A18.439,18.439,0,0,1,27.7,26.426c.447-5.775,1.4-11.348,2.266-16.947l.405-1.222c-.931-.915-2.282-2.266-3.587-1.809l-.068-.655a1.149,1.149,0,0,1,1.066-.369c4.122,1.8,6.576,6.212,8.458,9.908.135,1.518,1.424,2.516,1.674,4l-.3.27a.665.665,0,0,1,.213.65c-1.18.873-1.258-1.04-2.007-1.5A52.419,52.419,0,0,0,36.9,24.472l-.6,5.094c-.255,1.253.026,2.734-.468,3.93-.177.12-.385.333-.567,0a62.594,62.594,0,0,1,.624-9.139c-.265-2.823-.951-5.614-1.419-8.135h.775a2.2,2.2,0,0,1,1.04,1.118c-1.4-2.989-2.885-6.04-5.38-8.51a6.82,6.82,0,0,0-.125,2.438c-.3,2.89.712,5.853.088,8.775-.556,6.966-1.232,13.37-2.079,20.216l.244.442a30.726,30.726,0,0,0-.177,6.238c.088-.151.239-.062.353-.094a26.959,26.959,0,0,1,.042-4.907l.52-.6a40.964,40.964,0,0,0,2.9-7.943,25.706,25.706,0,0,1-.322-5.5c.348-.567.717.14,1.071.2a55.9,55.9,0,0,0,1.663,8.7c.083-.39,0-.863.405-1.133.177-.031.416,0,.416.2a41.08,41.08,0,0,0-.52,8.068,134.2,134.2,0,0,0,3.639,26.735c-.073,1.4.946,2.6,1.04,3.914-.057.031-.088-.031-.151-.057a59.54,59.54,0,0,0,.686,8.978l-.359-.265a39.963,39.963,0,0,1-2.89-9.253c-1.014-6.144-3.213-11.748-5.027-17.529-.151-.031-.208.062-.3.151.769,2.667,1.1,5.495,2.313,7.979,1.482,5.515,2.641,11.187,4.3,16.635l.421.593c.988,3.353,1.648,6.883,2.334,10.4.369,1.393.567,2.937,1.825,3.909,1.164.582,2.318-.2,3.415-.452L49.041,96l.146-.151a16.572,16.572,0,0,1-6.1-2.942,57.7,57.7,0,0,0-2.277-7.413c-.12-.265-.452-.8,0-.982.863.26.962,1.237,1.3,1.918,2.558,2.828,4.7,6.436,8.146,8.317l2.277-1.092c-2.6-3.753-5.635-7.382-8.026-11.135l-.717-.556c-.182-.353-.754-.827-.25-1.216,0-2.053-.811-3.769-.775-5.853.473-.364-.276-.863,0-1.341a.988.988,0,0,1,.868.556c3.15,6.4,5.318,13.225,9.908,19.036.088-.031.239.057.3-.062-5.2-6.046-6-14.067-9.788-20.752l-.3-8.655c-.437-2.168-1.232-4.3-1.346-6.529.322-.359-.426-1.04.348-1.04.785,1.419.806,3.119,1.326,4.679.572.411.634,1.154.79,1.778.951,9,4.9,16.728,7.9,24.848.083,2.079,2.2,2.921,3.4,4.549.629.291,1.248-.281,1.929-.317-3.852-1.684-4.679-5.718-6.238-8.837.114-.27.447-.094.655-.156,1.04,1.04,1.43,3.379,3.306,3.181a58.684,58.684,0,0,0,17.612,3.181l.27.2c4.549-.255,8.458,1.107,12.861,1.149-2.334-1.138-4.928-1.705-7.169-3.119l-3.831.52-.447-.265A135.025,135.025,0,0,0,62.692,73.342V73.1l-4.1-4.954-.151-.473c.088-.088.146-.239.265-.239a75.146,75.146,0,0,0,5.417,6.238c1.19.224,2.214,1.523,3.462,1.04,3.327,2.5,6.238,6.035,8.863,8.894V83.25c-6.274-8.473-10.8-17.674-15.6-26.761L61,56.338a3.119,3.119,0,0,1,1.081,1.149c3.608,6.8,7.486,13.547,11.623,20.138l-1.456-2.958-8.53-17.045L60.1,48.862c-2.126-7.278-2.979-15.138-4.777-22.561-1.206-4.538-1.762-9.357-3.587-13.62-.068,5.089,1.107,9.6,1.663,14.41,1.731,6.618,2.932,13.474,5.905,19.572a4.107,4.107,0,0,1,.291,2.287c-.9-1.45-1.637-3.077-2.454-4.616a103.6,103.6,0,0,1-6-28.643L51,15.484a67.088,67.088,0,0,0-.286-7.7c-.031-.208.052-.567.353-.452.962,1.18.567,3.239.676,4.933a.411.411,0,0,1,.6.14c2.079,3.7,2.521,8.094,3.6,12.216,2.989,10.4,3.119,21.979,8.317,31.419l8.889,17.773c2.844,1.637,5.479,3.691,8.317,5.328-.4-1.008-1.419-1.83-1.456-2.9a.863.863,0,0,1,.925.14c1.871,2.776,3.447,5.677,5.38,8.421-.083.686.52,1.04.879,1.56a.676.676,0,0,0,.634.764,39.465,39.465,0,0,1-3.758-6.862c.322-.6.92-.1,1.424-.25l11.525,4.465.717.52a14.6,14.6,0,0,0,1.04,2.043,3.27,3.27,0,0,0-.255-1.424.982.982,0,0,1,1.008-.489c2.334,1.56,4.159,3.914,6.066,6.009l-1.242-2.485c-1.778-2.334-4.59-3.67-6.43-6.155a45.3,45.3,0,0,1-5.162-1.674c-.421-.322-1.04-.613-1.2-1.206.977-.608,1.939.457,2.922.686l-2.339-4.616c-1.185-2.547-2.906-4.876-4.06-7.454.088-.239.385-.094.561-.125a16.063,16.063,0,0,0,6.124,5.354h.92l6.066,5.859.426.858a1.258,1.258,0,0,1,1.076.348c1.43,3.119,2.708,6.311,4.226,9.388.25-1.908.827-3.665,1.253-5.515-.738-5.349-3.343-9.877-3.961-15.309.057-.385.385-.094.593-.068l.712-6.165c.036-2.142-1.04-3.977-.567-6.124a29.47,29.47,0,0,0,3.176-12.315c.2-3.836-3.119-6.363-3.966-9.8-.187-.681.073-1.56-.52-2.079.234-.39.629.172.863-.218a.884.884,0,0,1,.52,1.008c1.414,1.653,2.209,3.665,4.039,5.074-.057.27-.322.333-.561.3-1.559-.847-2.168-2.448-3.249-3.686a8.692,8.692,0,0,0,1.4,2.838c.239.177.925.468.723,1,.967,1.445.988,3.291,1.949,4.767.182.354.25.92.52,1.123-.421,5.505.671,10.7.671,16.2a107.036,107.036,0,0,0,1.851,12.533l4.559,4.018-.156-.52c-.094-.52-.665-.946-.582-1.482-3.805-8.645-3.55-18.792-4.008-28.872-.172-2.35-.166-4.788-1.2-6.758-2.568-3.842-4.008-8.141-5.833-12.284l-.057.062c-1.2-.556-2.48-.837-3.675-1.393a105.226,105.226,0,0,0-19.993-9.227c-3.285-1.367-7.007-1.559-10.464-2.454-1.435-.79-3.166-1.159-4.309-2.4a.738.738,0,0,1,.65-.213,23.731,23.731,0,0,0,3.639,1.689c1.066-.281,2.267.426,3.363.177a42.266,42.266,0,0,1-7.8-6.29c0-.3-.478-.442-.218-.769.239.114.3.593.567.2l3.727,1.092c1.372.463,2.8.151,3.878,1.331.379-.894-.66-.619-.931-1.04L67.7,7a6.288,6.288,0,0,0-1.378-.847l-.353.52c-1.279.249-2.36-.9-3.639-1.092-.52,1.253-.177,2.828.042,4.159l3.457,3.327c.182.234.52.587.307.832-1.767-1.04-3.239-2.734-4.886-4l-.146.12c.842.827,2.126,1.643,1.965,2.838h-.239c-4.808-4.829-11.473-5.2-16.021-10.6C45.673,1.282,44.675-.075,43.068,0a63.618,63.618,0,0,1-9.03,1.164A21.876,21.876,0,0,1,25.2,5.539c-4.928,5.375-7.475,11.722-10.236,18.028C12.476,31.058,7.34,37.426,3.395,44.33V44.7A65.513,65.513,0,0,0,0,50.64c.775.109,1.336-.25,2.079-.229,3.431-2.178,5.994,1.695,8.952,2.677,0-.057-.031-.177.057-.208.3-.239.52.114.717.2,1.788.307,3.576.468,5.3.868-.14.629.936,1.268,1.445,1.773.177-.151.3-.359.561-.275,2.079,1.56,5.131,4.2,6.238,6.685a.551.551,0,0,0,.042-.172Zm78.8-32.562c.057-.328.317-.868.769-.572.691.707-.161,1.487,0,2.35a.244.244,0,0,1-.416.151,2.077,2.077,0,0,1-.364-1.929Zm-12.476-6.3a1.378,1.378,0,0,1,1.424-.161l3.02,1.845c1.861,1.378,3.805,2.906,5.547,4.346.151.208.3.473.125.712-.234.39-.52-.083-.775-.109-3.119-1.96-5.905-4.762-9.357-5.916-.068-.213-.286-.535-.016-.717ZM76.151,35.388a6.342,6.342,0,0,0,2.027,3.254c.416,0,.483.561.723.858l5.838,6.425-.265.52,3.566,8.473a3.229,3.229,0,0,0,1.435.608c3.582,4.039,7.371,8.135,9.705,12.752a134.428,134.428,0,0,0,7.61,11.494c.52.291.7,1,.936,1.559-.255,1.372.265,2.942-.1,4.346.062.354.483.946-.14,1.071-.769.187-.749-.738-1.144-1.118l-2.6-5.417a35.754,35.754,0,0,1-4.133-5.671,109.576,109.576,0,0,1-12.793-9.284v-.239a1.128,1.128,0,0,1,.925.14L80.158,47.953c-1.31-3.083-2.386-6.311-3.9-9.243A16.533,16.533,0,0,0,74.882,34.8l-.369-1.482c1.17-.047,1.211,1.3,1.606,2.069ZM23.762,52.543A15.137,15.137,0,0,1,27.3,55.064a3.151,3.151,0,0,1,.156.92c-.088.239-.385.182-.52.094-.785-1.331-2.464-2.266-3.545-3.265ZM12.845,50.36c0,1.279-1.508,1.04-2.277,1.6a.593.593,0,0,1-.78-.52,22.816,22.816,0,0,0-4.876-2.6c-.208-.208.057-.385.114-.567a2.256,2.256,0,0,0,1.149-1.081l.551-1.372a22.824,22.824,0,0,0-3.02-1.752c2.079-.109,3.322,2.048,5.313,1.97a7.106,7.106,0,0,0,3.795,1.6c.291.878-.338,1.778-.021,2.724ZM14.1,47.552a7.965,7.965,0,0,1,.619-3.488,69.088,69.088,0,0,1,4-10.121h-.151a70.585,70.585,0,0,0-4.892,10.49c-.2.52-.52,1.559,0,1.934a.774.774,0,0,1-.561.572c-3.031.27-4.679-2.776-7.382-3.348-.327-.265-.811-.587-.873-1,.743.14,1.289.821,2,1.04,4.71-7.9,8.614-16.115,14.758-23.393,2.745-2.022,2.178-5.349,3.431-7.979l-.442.364a61.91,61.91,0,0,1-5.131,7.189h-.359q3.519-5.775,7.236-11.494V8.107c-3.01,2.469-4.814,6.207-7.4,9.149l-.27-.146c1.6-2.786,3.675-5.365,5.541-8.063.915-.873,1.762-2.365,3.119-2.079.27.473.52-.244.858-.244.036.567-.645,1.2-.426,1.877a1.507,1.507,0,0,0-.608,1.56c-1.227,2.454-1.523,5.282-2.417,7.875-1.56,7.8-4.58,15.039-7.927,22.124-.837,2.36-1.617,4.746-2.277,7.163a.437.437,0,0,1-.5.229Zm2.292.276c-.151-.3.052-.775.52-.572,1.56,1.861,3.457,3.894,5.755,4.434.062.146.244.354.068.52l-.416.27a10.568,10.568,0,0,1-5.978-4.658Zm1.56,6.56c-.307-.738.671-1.284.785-2,.114-.39.26-.956.7-1.04-.1,1.118-.3,2.636-1.544,3.036Zm7.278,6.41c-.884-1.986-3.067-3.54-4.777-4.86a7.345,7.345,0,0,1,1.279-2.958,9.548,9.548,0,0,1,4.081,3.379c.177-.208.52-.452.8-.364a13.78,13.78,0,0,1-.52,2.027,17.523,17.523,0,0,1-.9,2.8Z" transform="translate(27.031 79.017)"/><path class="f" d="M.956.327C.915.218.863.109.816,0,.686.322.3.483,0,.665A.2.2,0,0,1,.088.837C.546.858.925.832.956.327Z" transform="translate(51.578 141.145)"/><path class="d" d="M21.381,34.845C26.293,29.413,32.7,24.319,35.068,17.722c1.258-2.079.369-4.554.52-7,.4-1.559.052-3.836,1.892-4.361V6.3a2.224,2.224,0,0,0-1.071.078c-.686-.14-.187-1.008-.463-1.424a13.189,13.189,0,0,0-.52,3.576h.255c-.348.806-.036,2.053-.988,2.417.073,1.19-.634,2.079-.982,3.072.811.556.639,1.658.473,2.433-.639,1.612-.769,3.519-1.882,4.866-3.842,2.745-6.207,6.966-9.534,10.178-.234.328-.348.894-.853.931A8.181,8.181,0,0,1,19.8,35.09c-1.534,4.33-5.037,7.876-7.08,11.956a.442.442,0,0,1-.52-.2,35.512,35.512,0,0,0,.114-3.639c2.261-3.026,1.949-7.1,5.614-9.487a30.9,30.9,0,0,0,4.346-8.4c.463-1.284.088-3,.79-4.159.936,1.331.328,3.181.135,4.637a25.7,25.7,0,0,1-6.524,10.714c-.811,2.36-2.126,4.543-3.083,6.872l-.556.66-.062,1.2A55.723,55.723,0,0,0,16.094,39.8c1.32-1.56,1.96-3.5,2.953-5.266a12.518,12.518,0,0,0,2.724-4.013l.239-.062a45.25,45.25,0,0,0,6.488-14.7,31.514,31.514,0,0,0-.676-10.849c-.125-.593.681-.452.463-1.076.146-.478.463-1.284,1.149-.936,1.778,2.079,2.485,4.679,3.847,7.013.416-.036.889-.307,1.279,0,.379-.66-.333-.52-.634-.858-2.6-2.651-3.483-6.124-5.8-8.863A17.923,17.923,0,0,0,24.765.016c-2.6,4.044-2.734,9.071-5.578,13C14.6,21.33,11.119,30.11,7.309,38.744c-1.1,3.343-1.6,6.945-3.467,9.97A8.759,8.759,0,0,0,0,51.48H12.923c-.073-.608-.156-1.216-.26-1.8C13.765,44.015,19.229,40.127,21.381,34.845Z" transform="translate(14.223 135.66)"/><path class="d" d="M0,1.762a4.387,4.387,0,0,0,.988.52L1.268.556.192,0Z" transform="translate(81.281 82.451)"/><path class="d" d="M.192,0,0,1.559c.031.3.327.2.52.291V1.7C.353,1.128,1.138.052.192,0Z" transform="translate(83.075 83.309)"/><path class="d" d="M.135,0,0,1.284.551.208Z" transform="translate(84.359 83.803)"/><path class="d" d="M.27,1.279A8.98,8.98,0,0,1,.405,0,2.5,2.5,0,0,0,0,1.222Z" transform="translate(84.863 84.302)"/><path class="d" d="M.145,0C.035.832-.375,2.324.971,2.433A7.56,7.56,0,0,1,1.065.14,5.013,5.013,0,0,1,.145,0Z" transform="translate(85.841 84.296)"/><path class="d" d="M.191.162a7.169,7.169,0,0,0-.12,2.651c.125.447.723.707,1.081,1.04A9.164,9.164,0,0,1,1.262.043,1.6,1.6,0,0,0,.191.162Z" transform="translate(87.521 84.264)"/><path class="d" d="M0,0A8.831,8.831,0,0,1,.411,5.2l.416.146A9.4,9.4,0,0,0,.359.446C.213.181.416-.032,0,0Z" transform="translate(106.103 88.581)"/><path class="d" d="M0,0A12.679,12.679,0,0,1,.385,2.849l.208-.062c.426.889-.52,1.7-.182,2.651a5.476,5.476,0,0,1,.982.348A20.025,20.025,0,0,0,.78,1.149,2.943,2.943,0,0,0,0,0Z" transform="translate(107.387 88.777)"/><path class="d" d="M.868.156a24.908,24.908,0,0,1,1.84,5.718c-.026.177-.146.478-.416.364A42.576,42.576,0,0,0,0,0,16.636,16.636,0,0,1,.712,5.718a16.784,16.784,0,0,0,2.927.894A9.4,9.4,0,0,0,1.17.66C.993.483,1.227.062.868.156Z" transform="translate(108.723 89.105)"/><path class="d" d="M.2.057.146,0,0,.239.057.265Z" transform="translate(45.73 112.601)"/><path class="j" d="M10.324,22.592c-.437.806.665,1.185.52,1.929l.057-.359c.088.057.182.52.151.208-1.04-3.53-2.422-6.935-3.317-10.527l.146-.151c.66.52.816,1.56,1.154,2.37a87.433,87.433,0,0,0,8.005,8.962c3.639,5.23,6.326,10.823,10.4,15.839a18.831,18.831,0,0,0,2.079,4.528c-.042-1.071.042-1.669-.088-2.708a116.923,116.923,0,0,1-8.9-13.115C18.1,24.713,14,20.445,10.3,16.255c-1.341-3.051-2.828-6.04-4.018-9.18a62.976,62.976,0,0,0-5.2-5.656C.873.827.4.535,0,0A236.937,236.937,0,0,0,9.877,22.353Z" transform="translate(104.367 118.226)"/><path class="i" d="M1.341,22.332l1.138.582C1.242,15.491.837,7.465.343,0L0,1.523.873,17.336Z" transform="translate(136.15 128.607)"/><path class="d" d="M6.524,3.982c0-.12.146-.182.208-.27C4.315,3.051,2.448.691,0,0L.213.265C2.448,1.138,4.226,3.2,6.524,3.982Z" transform="translate(31.564 129.756)"/><path class="d" d="M0,0A13.353,13.353,0,0,0,3.639,1.45C3.623-.811,1.346.405,0,0Z" transform="translate(27.998 130.567)"/><path class="i" d="M.052,4.85c3.363,6.238,4.715,13.547,8.494,19.4C5.37,16.307,1.788,8.546,0,0,.016,1.518.031,3.15.052,4.85Z" transform="translate(71.82 145.98)"/><path class="i" d="M0,0C.52,2.194,2.916,2.947,4.881,3.166l-.723-.707A23.7,23.7,0,0,1,0,0Z" transform="translate(118.158 151.225)"/><path class="i" d="M10.209,5.489a1.444,1.444,0,0,1-.561.213L5.536,1.965c0,.322.109.66.088.972a.733.733,0,0,1-.369.608.681.681,0,0,1-.717-.291A2.282,2.282,0,0,1,4.3,2.027,3.333,3.333,0,0,0,4.158.847,3.805,3.805,0,0,0,2.931,0a7.44,7.44,0,0,0,.135,1.175,1.747,1.747,0,0,1-.229,1.383c-.265.062-.712.244-.863-.14L1.684.224C1.528.894.644,1.211.691,2.012-.791,2.355.561,3.649.629,4.45c1.008-.52,1.856-1.627,3.051-1.4a51.749,51.749,0,0,0,6.9,3.2,2.6,2.6,0,0,0-.374-.764Z" transform="translate(134.632 151.74)"/><path class="d" d="M0,0,.094.717A1.112,1.112,0,0,0,0,0Z" transform="translate(136.197 151.272)"/><path class="d" d="M.073,1.279.062,0H0L.016,1.279Z" transform="translate(66.43 154.245)"/><path class="i" d="M0,0,.125.447C3.488,3.389,5.786,7.023,8.577,10c.12-.062.354-.182.3-.359C5.879,6.425,3.92,2.37,0,0Z" transform="translate(93.929 155.306)"/><path class="d" d="M3.311,10.111l-.421-.65A21.465,21.465,0,0,1,2.807,1.19L0,0A16.233,16.233,0,0,1,1.19,3.119a62.9,62.9,0,0,1,.52,10.048c.754.826,1.268,1.949,2.225,2.474.328-.12.447.172.6.348a15.107,15.107,0,0,0,1.679,4.325,7.835,7.835,0,0,1-2.651-.52c-1.611-.551-1.56-2.454-2.537-3.6l-.146.151C1.4,17.5,1.56,18.9,2.49,19.806c1.346.639,2.9.983,4.159,1.684,1.133,2.968,2.22,6.03,3.379,9.066H12.06q-.665-2.464-1.357-4.912C8.323,20.44,5.12,15.564,3.311,10.111Z" transform="translate(139.186 156.574)"/><path class="d" d="M4.143,24.614c.234-.447.52-.156.8-.426.962-2.178.307-4.881-.665-6.862A2.729,2.729,0,0,1,2.776,16c-.52-3.239.65-6.285,1.632-9.18A37.821,37.821,0,0,0,2.615,0L2.2.359C2.724,2.464,3.613,4.393,3.7,6.711c-.712,2.89-1.757,5.718-1.487,9H2.36c1.986,2.209,2.313,5.448,1.929,8.546l-.3.3A23.3,23.3,0,0,0,0,23.881a18.179,18.179,0,0,0,4.278,6.3h.837a.951.951,0,0,0-.208-.156c-.151-.328.234-.27.442-.27l.431.431h.551l-.889-2.365C5.178,26.683,4.252,25.8,4.143,24.614Zm-1.4,2.365H2.532L.582,25.212c-.062-.328.2-.39.52-.364a12.293,12.293,0,0,1,1.8,1.705c.042.182-.1.276-.161.421Zm1.747,1.975c-.52-.234-1.258-.759-1.294-1.414.65-.187.9.707,1.346,1.04C4.512,28.716,4.606,28.892,4.486,28.955Z" transform="translate(133.504 156.964)"/><path class="i" d="M19.249,5.531,11.384,4.185A10.028,10.028,0,0,1,5.214,2.76c-.66-.322-1.081-1.3-1.944-1.144L1.56,0C1.118.333.52.249,0,.374c.993,1.04,2.079,2.953,3.639,2.88,1.825.993,3.795,1.6,5.474,2.947,2.183,1.04,5.2.125,7.158,1.71l.265-.359a8.177,8.177,0,0,1,2.812.333,3.754,3.754,0,0,1,2.438-.291A14.169,14.169,0,0,1,19.249,5.531Z" transform="translate(108.011 163.66)"/><path class="d" d="M0,.132v.8c3.119-.6,6.368,0,9.43,0V.813C6.373.4,3.337-.289,0,.132Z" transform="translate(102.189 169.516)"/><path class="d" d="M36.617,12.913c-.3.27-.411.837-.915.723a.442.442,0,0,1-.213-.52,3.945,3.945,0,0,0,.52-2.355c.244-2.5.863-5.718-.234-8.146a2.812,2.812,0,0,0-1.845-.192c1.04,3.587-.042,7.376-.036,11.067-.146.182-.26.52-.561.452a.182.182,0,0,1-.239-.234.224.224,0,0,0-.208.094l-.208-.208a10.916,10.916,0,0,0,.265-3.155c-1.1.187-2.35-.275-3.509-.114l-.572-.52c-2.256.52-5.282,1.123-7.7.317a2.4,2.4,0,0,1-1.445-1.773c-4.013.426-8.8.151-12.845.7a2.651,2.651,0,0,1-.218,1.788.556.556,0,0,1-.775,0,32.786,32.786,0,0,1-.062-6.155C6.04,3.072,5.7,1.5,6.186,0A9.4,9.4,0,0,0,4.2.229a61.385,61.385,0,0,0-1.118,10.1l-.208.208c-.442.3-.52-.26-.868-.348-.291.686-.639,1.372-.9,2.079-.234.52-.047,1.159-.4,1.559-.624.036-.556.988-.7,1.289a30.481,30.481,0,0,1,8.031-3.057.806.806,0,0,1,.52.769,17.322,17.322,0,0,0,4.642-.047c.265-.094.863-.187.863.291-.114.416-.681.333-1.009.483-1.845-.218-4.273.967-5.51-.66-.411.333-1.222-.078-1.419.671A26.86,26.86,0,0,0,.639,15.907v.27l5.5-1.96.442-.52a31.814,31.814,0,0,0,8.926.478c2.137-.322,4.159-1.175,6.321-1.284a2,2,0,0,1,.338-1.788,2.173,2.173,0,0,1,1.081.853,18.853,18.853,0,0,1,.717,5.38h.359a46.547,46.547,0,0,0-.619-4.8l.208-.213c.567-.094.52.52.723.858.172,1.315.333,2.734.39,4.159h4.133a24.767,24.767,0,0,0-.9-5.058l.3-.3c.3-.151.52.2.78.437a15.856,15.856,0,0,1,.7,4.918h4.05V15.278a.608.608,0,0,1,.712-.364,9.82,9.82,0,0,1,1.154,2.417h3.311l-1.56-1.56A22.345,22.345,0,0,0,36.617,12.913ZM4.944,1.866c-.556.691-.042,1.814-.39,2.6-.405,1.164-.031,2.646-.52,3.784a7.8,7.8,0,0,1-.265,3.426c-.177.088-.208-.114-.3-.2,0-3.639.639-7.236.962-10.864C5.4.405,4.673,1.513,4.944,1.866Zm19.525,10.1a1.128,1.128,0,0,1-.359-.3c-.156-.52.468-.717.764-.931a2.293,2.293,0,0,1,2.292.421c.151.146.036.447.156.624C26.465,12.268,25.415,11.478,24.469,11.961ZM27.4,13c.353-.421.686.109.717.411.094.385.156.951-.2,1.164-.478-.265-.218-1.1-.52-1.57Zm.993,4.065c-.088.062-.177.182-.3.151a2.079,2.079,0,0,1-.166-1.783C28.731,15.517,28.237,16.593,28.388,17.066Zm6.441-4.5c-.208-3.062.442-6.311-.244-9.279-.244-.561.593-.364.52,0a38.59,38.59,0,0,1-.276,9.279Z" transform="translate(94.412 169.804)"/><path class="d" d="M9.887,1.009C7.434,2.251,4.486,2.34,2.121,3.8c-.7.988-.421,2.355-.468,3.571.879,1.658,3.119,1.159,4.741,1.04a.4.4,0,0,1,.364.52C4.5,9.6,2.251,10.252,0,10.927,5.671,9.8,11.124,7.99,17.1,7.751a2.359,2.359,0,0,0-.1-.92A74.207,74.207,0,0,1,9.253,7.98a12.754,12.754,0,0,0-3.509.244C4.372,8.058,2.625,8.2,2.012,6.774,1.435,2.7,6.321,3.52,8.541,2.277,12.107,1.758,15.631.51,19.379.442l.057-.359C16.058-.285,12.887.666,9.887,1.009Z" transform="translate(78.131 170.017)"/><path class="d" d="M7.8.91C5.361.816,3.183.094.709,0A2.154,2.154,0,0,0,.017,2.079l1.43.073a1.081,1.081,0,0,1,.229-.806c.619-.749,1.663,0,2.5,0,1.253.463,3.384-.52,3.79,1.242C7.8,3.9,8.8,6.03,7.144,6.612a6.561,6.561,0,0,1-5.3-.156,1.8,1.8,0,0,1-.52-1.929L.168,4.393C.09,5.552.22,6.685,1.208,7.3c1.913.931,4.408.551,6.493.8.946-.426,1.118-1.528,1.2-2.511C8.569,3.966,9.847,1.632,7.8.91Z" transform="translate(114.913 171.031)"/><path class="d" d="M.27.223C.208.072.208-.042,0,.015.218,1.294,2.24.769,3.072.966L2.979.446A7.562,7.562,0,0,1,.27.223Z" transform="translate(124.079 171.998)"/><path class="d" d="M0,.154l.062.52a6.886,6.886,0,0,1,2.2-.109C2.173-.283.743.045,0,.154Z" transform="translate(131.944 173.06)"/><path class="d" d="M3.093.27C2.142.1.858-.3,0,.39c.691.8,2.079.754,3.119.832Z" transform="translate(114.223 173.719)"/><path class="d" d="M.344.437A1.986,1.986,0,0,0,0,1.6c1.112,1.3,3.218.442,4.434.431A3.93,3.93,0,0,1,2.48,0Zm.936,1.268a.847.847,0,0,1-.567-.348L.858,1A3.861,3.861,0,0,0,2.5,1.43C2.293,1.845,1.68,1.809,1.279,1.705Z" transform="translate(81.494 174.415)"/><path class="d" d="M.14.012,0,.937,1.513.865V.6C1.658-.123.676.007.14.012Z" transform="translate(117.8 174.06)"/><path class="d" d="M5.432.988C5.458.63,5.994.416,5.988.12,4.7-.462,4.808,1.233,4.221,1.773,3.873,2.4,4.143,3.052,3.467,3.5,2.8,4.7,2.038,6.015,1.216,7.216A6.97,6.97,0,0,1,0,8.687H1.887a16.489,16.489,0,0,0,2.5-5.905C5.037,2.418,5.089,1.586,5.432.988Z" transform="translate(90.217 178.453)"/><path class="d" d="M18.2,0A118.967,118.967,0,0,0,4.33,2.875a5.551,5.551,0,0,1-2.6.026A2.079,2.079,0,0,0,1.6,4.684c.031.359-.416.244-.561.483C.639,6.207.3,7.246,0,8.286H10.87c.172-.042.338-.078.483-.114a1,1,0,0,1-.094.114h1.362C15.4,6.436,16.993,2.921,18.2,0ZM14.046,5.988A2.412,2.412,0,0,1,15.3,3.909c-.177.671-.286,1.892-1.237,2.079Zm2.719-4.606a2.178,2.178,0,0,1-.811,2c-.177.031-.416,0-.447-.2a5.443,5.443,0,0,1,1.3-1.8ZM1.637,6.2c.853-.962,2.22-1.3,3.343-1.965A83.647,83.647,0,0,1,15.242,1.112a.967.967,0,0,1,.988.348c.125.3-.172.478-.348.6a12.434,12.434,0,0,0-4.543.671A50.132,50.132,0,0,0,1.637,6.2ZM11.649,8.089c-.042-.92,1.237-1.232,1.856-1.861l.062.151a2.968,2.968,0,0,1-1.918,1.69Z" transform="translate(75.724 178.865)"/><path class="d" d="M1.248,8.135H3.27C2.168,5.427,1.19,2.672,0,0A28.7,28.7,0,0,0,1.248,8.135Z" transform="translate(144.909 179.005)"/><path class="d" d="M0,.063l1.159.2A1.253,1.253,0,0,0,0,.063Z" transform="translate(119.796 180.979)"/><path class="d" d="M2.607,3.389c-.39-.171-.52-.738-.988-.613.026-.088.12-.088.208-.088v-.27A5.692,5.692,0,0,1,.377.083L.018,0A4.892,4.892,0,0,0,.611,2.792l.146-.151c.208-.27.328,0,.52.146.239.353-.172.52-.442.629l.717.229c-.057.031-.088.151-.208.12.624.775,1.3,1.518,2.012,2.251H4.609c-.66-.754-1.3-1.513-1.892-2.261Z" transform="translate(132.066 181.152)"/><path class="d" d="M0,.832.088.863.14,0H.083Z" transform="translate(127.671 182.332)"/><path class="d" d="M21.329.509a27.254,27.254,0,0,1-15.283.868A39.3,39.3,0,0,1,0,3.862H22.353A23.121,23.121,0,0,0,21.714,0Z" transform="translate(94.657 183.278)"/><path class="f" d="M39.144,19.281l-5.3,2.516,4.122,4.179-5.843.546,2.443,5.339-5.682-1.482.478,5.853L24.526,32.9l-1.559,5.656-3.395-4.788-3.4,4.788L14.613,32.9,9.778,36.232l.478-5.853L4.575,31.861l2.443-5.339-5.843-.546L5.3,21.8,0,19.281l5.3-2.521L1.175,12.585l5.843-.551L4.575,6.7l5.682,1.476L9.778,2.329l4.834,3.332L16.172,0l3.4,4.793L22.966,0l1.559,5.661L29.36,2.329l-.478,5.848L34.564,6.7l-2.443,5.334,5.843.551-4.122,4.174Z" transform="translate(140.688 105.095)"/><path class="d" d="M5.573,8.058H.021V6.888l2-2.017q.884-.91,1.159-1.258a2.8,2.8,0,0,0,.39-.65,1.653,1.653,0,0,0,.12-.619.9.9,0,0,0-.265-.712,1.04,1.04,0,0,0-.7-.234,2.032,2.032,0,0,0-.894.213,4.617,4.617,0,0,0-.91.6L0,1.134A5.992,5.992,0,0,1,.972.427,3.54,3.54,0,0,1,1.814.11,4.318,4.318,0,0,1,2.854,0a3.03,3.03,0,0,1,1.315.27,2.079,2.079,0,0,1,.884.759A2.022,2.022,0,0,1,5.37,2.153a2.743,2.743,0,0,1-.192,1.04,3.945,3.945,0,0,1-.6.988A14.554,14.554,0,0,1,3.155,5.62l-1.04.962V6.66H5.578Z" transform="translate(148.018 120.294)"/><path class="d" d="M5.548,4.119A5.53,5.53,0,0,1,4.867,7.2a2.365,2.365,0,0,1-2.079,1A2.339,2.339,0,0,1,.708,7.155a5.453,5.453,0,0,1-.7-3.046A5.753,5.753,0,0,1,.693.99a2.641,2.641,0,0,1,4.159.047A5.469,5.469,0,0,1,5.548,4.119Zm-3.883,0A6.173,6.173,0,0,0,1.92,6.2a.873.873,0,0,0,.852.634.884.884,0,0,0,.847-.639,8.494,8.494,0,0,0,0-4.185.879.879,0,0,0-1.695,0A6.166,6.166,0,0,0,1.66,4.119Z" transform="translate(154.353 120.262)"/><path class="d" d="M3.946,7.938H2.282V2.589l.026-.826q-.421.416-.582.551l-.915.733L0,2.038,2.558,0H3.94Z" transform="translate(160.946 120.415)"/><path class="g" d="M2.49,5.651l-.426-.416L2.937.821h0q-.426.52-.811.9L.343,3.556,0,3.218,3.119,0,3.54.411l-.868,4.4h0l.353-.4c.2-.224.343-.385.437-.473L5.276,2.116l.348.343Z" transform="translate(113.392 46.229)"/><path class="g" d="M1.793,4.964,0,3.218,3.119,0,4.912,1.747l-.322.333L3.171.7,2.163,1.736l1.331,1.3-.322.327L1.84,2.064.686,3.249,2.105,4.632Z" transform="translate(116.812 49.566)"/><path class="g" d="M2.329,6.321,1.96,5.963,3.41,3.176c.062-.125.146-.281.25-.463a2.877,2.877,0,0,1,.2-.317,6.978,6.978,0,0,1-.775.483L.369,4.408,0,4.05,2.277,0l.4.385L1.248,2.864a10.431,10.431,0,0,1-.582.9,7.629,7.629,0,0,1,.941-.613l2.48-1.393.4.385L3.161,4.71a8.272,8.272,0,0,1-.572.941,9.359,9.359,0,0,1,.9-.608L5.926,3.556l.4.385Z" transform="translate(119.832 51.682)"/><path class="g" d="M3.623.989A1.471,1.471,0,0,0,2.443.527,1.991,1.991,0,0,0,1.2,1.192,2.027,2.027,0,0,0,.541,2.455a1.466,1.466,0,0,0,.52,1.164,4,4,0,0,0,.884.629l-.322.327A3.3,3.3,0,0,1,.676,3.9,1.949,1.949,0,0,1,0,2.4,2.485,2.485,0,0,1,.806.8,2.692,2.692,0,0,1,1.846.111a1.861,1.861,0,0,1,1.1-.052,2.266,2.266,0,0,1,1.04.6,2.78,2.78,0,0,1,.7,1.04l-.473.166A2.37,2.37,0,0,0,3.623.989Z" transform="translate(125.4 57.986)"/><path class="g" d="M3.748,3.729a2.469,2.469,0,0,1-1.56.832A1.913,1.913,0,0,1,.671,3.947,1.939,1.939,0,0,1,0,2.445,2.963,2.963,0,0,1,2.381,0,1.955,1.955,0,0,1,3.9.641a1.913,1.913,0,0,1,.655,1.5A2.469,2.469,0,0,1,3.748,3.729Zm-2.563-2.5A2.131,2.131,0,0,0,.5,2.5a1.586,1.586,0,0,0,1.617,1.56A2.693,2.693,0,0,0,4.045,2.081,1.357,1.357,0,0,0,3.566.963,1.388,1.388,0,0,0,2.423.511a2.111,2.111,0,0,0-1.232.743Z" transform="translate(128.29 60.731)"/><path class="g" d="M0,3.218,3.119,0l.374.364-2.8,2.88L2.111,4.627l-.333.338Z" transform="translate(131.232 63.617)"/><path class="g" d="M0,3.218,3.119,0l.374.364L.691,3.239,2.111,4.621l-.328.338Z" transform="translate(133.597 65.92)"/><path class="g" d="M1.793,4.964,0,3.218,3.119,0,4.912,1.747l-.322.333L3.171.7,2.163,1.736,3.5,3.036l-.322.327L1.84,2.064.717,3.249,2.137,4.632Z" transform="translate(135.999 68.265)"/><path class="g" d="M3.623.989A1.466,1.466,0,0,0,2.443.527,1.986,1.986,0,0,0,1.2,1.2,2.027,2.027,0,0,0,.541,2.46a1.466,1.466,0,0,0,.52,1.164,4.011,4.011,0,0,0,.884.629l-.322.327a3.3,3.3,0,0,1-.946-.676A1.949,1.949,0,0,1,0,2.4,2.48,2.48,0,0,1,.806.8,2.694,2.694,0,0,1,1.846.111a1.861,1.861,0,0,1,1.1-.052,2.272,2.272,0,0,1,1.04.6,2.776,2.776,0,0,1,.7,1.04l-.473.166A2.38,2.38,0,0,0,3.623.989Z" transform="translate(139.16 71.392)"/><path class="g" d="M.374,4.575,0,4.211,2.812,1.326,1.773.333,2.095,0,4.507,2.35l-.322.333-1.04-.993Z" transform="translate(142.06 73.172)"/><path class="g" d="M0,3.218,3.119,0l.374.364L.374,3.582Z" transform="translate(143.994 76.036)"/><path class="g" d="M3.748,3.729a2.474,2.474,0,0,1-1.56.832A1.918,1.918,0,0,1,.671,3.947,1.939,1.939,0,0,1,0,2.445,2.49,2.49,0,0,1,.806.844,2.464,2.464,0,0,1,2.366,0,1.955,1.955,0,0,1,3.889.641a1.913,1.913,0,0,1,.655,1.492A2.469,2.469,0,0,1,3.748,3.729Zm-2.563-2.5A2.131,2.131,0,0,0,.5,2.5a1.585,1.585,0,0,0,1.617,1.56,2.163,2.163,0,0,0,1.237-.728,2.142,2.142,0,0,0,.686-1.248A1.357,1.357,0,0,0,3.561.963,1.383,1.383,0,0,0,2.418.511a2.105,2.105,0,0,0-1.232.733Z" transform="translate(145.891 77.885)"/><path class="g" d="M2.5,5.666,2.069,5.25l.873-4.4h0q-.426.52-.811.9L.343,3.556,0,3.218,3.119,0,3.54.411l-.868,4.4h0l.354-.4q.3-.338.437-.473l1.8-1.845.348.343Z" transform="translate(148.849 80.762)"/><path class="g" d="M.374,3.582,0,3.218,3.119,0,4.912,1.747l-.322.333L3.171.7,2.022,1.871l1.331,1.3L3.031,3.5,1.7,2.2Z" transform="translate(153.497 85.31)"/><path class="g" d="M3.748,3.729a2.475,2.475,0,0,1-1.56.832A1.918,1.918,0,0,1,.671,3.947,1.939,1.939,0,0,1,0,2.445,2.49,2.49,0,0,1,.806.844,2.459,2.459,0,0,1,2.366,0,1.95,1.95,0,0,1,3.889.641a1.918,1.918,0,0,1,.655,1.492A2.469,2.469,0,0,1,3.748,3.729Zm-2.563-2.5A2.126,2.126,0,0,0,.5,2.5a1.585,1.585,0,0,0,1.617,1.56A2.693,2.693,0,0,0,4.045,2.081,1.357,1.357,0,0,0,3.566.963,1.383,1.383,0,0,0,2.423.511a2.106,2.106,0,0,0-1.232.717Z" transform="translate(156.47 88.209)"/><path class="g" d="M1.679,2.246.374,3.582,0,3.218,3.119,0,4,.858a1.944,1.944,0,0,1,.655,1.081,1.143,1.143,0,0,1-.379.957,1.2,1.2,0,0,1-1.487.234l-.52,2.3L1.83,5l.52-2.079Zm.312-.322.52.52a1.237,1.237,0,0,0,.733.411.816.816,0,0,0,.645-.291.748.748,0,0,0,.26-.645A1.424,1.424,0,0,0,3.68,1.19L3.192.717Z" transform="translate(159.407 91.07)"/><path class="g" d="M1.4,4.585,3.088.671h0q-.3.369-.754.837L.343,3.556,0,3.218,3.119,0l.567.551L2.126,4.19h0L5.739,2.537l.556.52L3.176,6.274,2.8,5.911,4.819,3.831q.348-.354.785-.743h0L1.731,4.86Z" transform="translate(163.478 95.036)"/><path class="g" d="M1.793,4.964,0,3.218,3.119,0,4.912,1.747l-.322.333L3.171.7,2.163,1.736l1.331,1.3-.322.327-1.336-1.3L.681,3.249,2.1,4.632Z" transform="translate(167.569 99.003)"/><path class="g" d="M2.49,5.651l-.426-.416L2.937.821h0q-.426.52-.811.9L.343,3.556,0,3.218,3.119,0,3.54.411l-.868,4.4h0l.354-.4q.3-.338.437-.473l1.8-1.845.348.343Z" transform="translate(170.142 101.519)"/><text style="font-family: 'Niramit', sans-serif;" class="k" transform="translate(166.149 127.618)"><tspan x="0" y="0">9</tspan></text></g></g><text style="font-family: 'Niramit', sans-serif;" class="l" transform="translate(486.692 755.641)"><tspan x="0" y="23">Hi guys, fashion </tspan><tspan x="0" y="47">summer poster </tspan></text><text style="font-family: 'Niramit', sans-serif;" class="m" transform="translate(552.747 853.609)"><tspan x="0" y="23"></tspan><tspan class="n" y="23"></tspan></text><text style="font-family: 'Niramit', sans-serif;" class="l" transform="translate(664.817 980.938)"><tspan x="0" y="0">Shared </tspan><tspan class="o" y="0"></tspan></text><text style="font-family: 'Niramit', sans-serif;" class="p" transform="translate(816.223 957.094)"><tspan x="0" y="0">Admin</tspan></text><text style="font-family: 'Niramit', sans-serif;" class="q" transform="translate(486.692 751.055)"><tspan x="0" y="0">Dave</tspan></text><text style="font-family: 'Niramit', sans-serif;" class="r" transform="translate(637.356 751.055)"><tspan x="0" y="0">Guest</tspan></text><text style="font-family: 'Niramit', sans-serif;" class="r" transform="translate(697.473 856.445)"><tspan x="0" y="0">Member</tspan></text></g></svg>