<svg id="tile-2"  xmlns="http://www.w3.org/2000/svg" viewBox="0 0 439.52 120.667"><defs><style>.a{fill:#f1fffa;}.b{fill:#ffb86f;}.c{fill:#dce8e4;}.d{fill:#fff;}</style></defs><g transform="translate(-1071 -280)"><g transform="translate(1071 280)"><path class="a" d="M23.045,0H3.955A3.96,3.96,0,0,0,0,3.955v19.09A3.96,3.96,0,0,0,3.955,27h19.09A3.96,3.96,0,0,0,27,23.045V3.955A3.96,3.96,0,0,0,23.045,0ZM13.553,20.566a7.119,7.119,0,1,1,7.119-7.119A7.127,7.127,0,0,1,13.553,20.566ZM21.463,7.91a2.373,2.373,0,1,1,2.373-2.373A2.376,2.376,0,0,1,21.463,7.91Zm0,0"/><path class="a" d="M392.791,90a.791.791,0,1,0,.791.791A.791.791,0,0,0,392.791,90Zm0,0" transform="translate(-371.328 -85.254)"/><path class="a" d="M157.537,150a5.537,5.537,0,1,0,5.537,5.537A5.544,5.544,0,0,0,157.537,150Zm0,0" transform="translate(-143.984 -142.09)"/></g><path class="a" d="M23.045,0H3.955A3.96,3.96,0,0,0,0,3.955v19.09A3.96,3.96,0,0,0,3.955,27h7.963V17.455H8.754V12.709h3.164V9.492a4.751,4.751,0,0,1,4.746-4.746h4.8V9.492h-4.8v3.217h4.8l-.791,4.746H16.664V27h6.381A3.96,3.96,0,0,0,27,23.045V3.955A3.96,3.96,0,0,0,23.045,0Zm0,0" transform="translate(1172 280)"/><path class="a" d="M12.308,27a28.307,28.307,0,0,1-4.372-.347,20.519,20.519,0,0,1-5.981-2.177L0,23.408l2.116-.7c2.313-.761,3.72-1.233,5.462-1.971a7.267,7.267,0,0,1-3.736-4.328l-.492-1.495.4.062a7.341,7.341,0,0,1-.919-1.134A6.96,6.96,0,0,1,1.655,9.708l.093-1.3.781.3a7.3,7.3,0,0,1-.708-1.983,7.546,7.546,0,0,1,.8-5.081L3.3.394l.91,1.093A16.745,16.745,0,0,0,15.063,7.594a6.488,6.488,0,0,1,.394-3.447,6.454,6.454,0,0,1,2.624-3.008A7.881,7.881,0,0,1,22.655.015a7.306,7.306,0,0,1,4.491,1.852,15.076,15.076,0,0,0,1.644-.549c.36-.136.769-.29,1.281-.466L31.955.2l-1.229,3.51c.081-.007.165-.013.252-.016l2.013-.091L31.8,5.232c-.068.093-.086.12-.11.156-.1.144-.215.324-1.848,2.5a3.075,3.075,0,0,0-.575,2,18.941,18.941,0,0,1-1.034,7.618,13.481,13.481,0,0,1-3.619,5.361,15.983,15.983,0,0,1-7.576,3.663A23.323,23.323,0,0,1,12.308,27Zm0,0" transform="translate(1273 280)"/><g transform="translate(1380 280)"><path class="a" d="M30.254,0H5.192A5.2,5.2,0,0,0,0,5.192V21.808A5.2,5.2,0,0,0,5.192,27H30.254a5.2,5.2,0,0,0,5.192-5.192V5.192A5.2,5.2,0,0,0,30.254,0ZM12.531,20.66V6.543l12.5,6.942Zm0,0"/><path class="a" d="M211,145.488v7.241l6.41-3.679Zm0,0" transform="translate(-196.499 -135.537)"/></g><path class="a" d="M3.213,14.673c.034-.084.372-1.383.4-1.471A9.073,9.073,0,0,1,2.944,7.7c.485-3.1,3.767-4.62,6.866-4.62V3.071c3.88,0,6.784,2.161,6.787,5.879,0,2.91-1.751,6.756-4.744,6.756h0a4.268,4.268,0,0,1-2.776-.96A2.126,2.126,0,0,1,8.782,12.8a25.745,25.745,0,0,0,1.285-5.07A1.915,1.915,0,0,0,8.061,5.622a2.842,2.842,0,0,0-2.6,1.954,5.255,5.255,0,0,0,.031,3.832c.192.54-.852,4.06-1.187,5.206-.831,2.847-1.969,6.45-1.726,8.456L2.813,27l1.18-1.546c1.632-2.137,3.32-7.664,3.77-9.009,1.329,1.722,4.1,1.771,4.421,1.771,3.965,0,8.461-3.937,8.333-9.416C20.4,4,16.887,0,10.569,0V.007C4.558.007,1.05,3.215.191,7.269c-.786,3.759.963,6.619,3.022,7.4Zm0,0" transform="translate(1490.001 279.999)"/><path class="a" d="M1.814,16.481a6.861,6.861,0,0,0-.126,1.238C1.688,22.836,7.477,27,14.456,27s12.656-4.164,12.656-9.281a6.861,6.861,0,0,0-.126-1.238A3.369,3.369,0,1,0,23.163,11a15.143,15.143,0,0,0-8.046-2.538L16.731,2.2l3.641,1.274A3.4,3.4,0,1,0,20.76,1.82L15.556,0,13.37,8.478A15.437,15.437,0,0,0,5.638,11a3.37,3.37,0,1,0-3.824,5.481ZM19.519,13.5a2.531,2.531,0,1,1-2.531,2.531A2.534,2.534,0,0,1,19.519,13.5Zm-.361,7.454.722,1.524a12.738,12.738,0,0,1-5.423,1.147,13.258,13.258,0,0,1-5.536-1.147l.722-1.524A12.209,12.209,0,0,0,19.158,20.954ZM9.281,13.5A2.531,2.531,0,1,1,6.75,16.031,2.534,2.534,0,0,1,9.281,13.5Zm0,0" transform="translate(1172 373)"/><g transform="translate(1070.902 373)"><path class="a" d="M1.62,6.931A13.41,13.41,0,0,1,13.569,0a13.654,13.654,0,0,1,8.8,3.456,3.123,3.123,0,0,0-2.152.44,3.029,3.029,0,0,0-.053,5.229c1.406.879,1.906,3.078,1.859,4.422s-3.268,7.525-3.268,7.525L15.615,10.3s-.108-.756-.108-.973a1.308,1.308,0,0,1,.26-.8c.117-.128.3-.4.506-.4H17.76v-1.2H9.677v1.2h.251c.265,0,.524.356.773.612a12.9,12.9,0,0,1,1.117,2.641l1.175,3.871L10.46,21.1,7.681,9.407s.082-.8.25-.938c.11-.094.278-.341.472-.341H8.48v-1.2H1.62ZM3.2,8.964s-.654-.835-1.348-.835h-.7A13.64,13.64,0,0,0,.1,13.478,13.367,13.367,0,0,0,8.339,25.8ZM25.161,6.825a8.652,8.652,0,0,1-.3,4.309c-1.3,4.217-4.526,11.8-5.775,14.692a13.362,13.362,0,0,0,7.95-12.192A13.227,13.227,0,0,0,25.161,6.825ZM13.841,18.211,10.4,26.623a13.579,13.579,0,0,0,6.452-.025Z" transform="translate(0)"/></g><g transform="translate(1278.999 373)"><g transform="translate(0.001)"><path class="a" d="M18.4.351A.837.837,0,0,0,17.72,0H9.282a.844.844,0,0,0-.8.577L.045,25.89A.843.843,0,0,0,.845,27h5.4a5.056,5.056,0,0,0,4.8-3.461L18.521,1.11A.842.842,0,0,0,18.4.351Z" transform="translate(-0.001)"/></g><g transform="translate(14.392 3.512)"><path class="a" d="M285.455,88.97,278,66.592l-5.108,15.326,1.568,4.7a5.053,5.053,0,0,0,4.8,3.459h5.4a.847.847,0,0,0,.8-1.11Z" transform="translate(-272.888 -66.592)"/></g></g><g transform="translate(1384 373)"><path class="b" d="M27.667,13.833a13.762,13.762,0,0,1-1.807,6.84c-.085.149-.18.308-.284.476A13.885,13.885,0,0,1,19.4,26.5a13.639,13.639,0,0,1-1.3.493q-.391.127-.792.231-.355.092-.717.165A13.835,13.835,0,1,1,12.969.027Q13.239.01,13.51,0h0q.16,0,.321,0A13.833,13.833,0,0,1,27.667,13.833Z" transform="translate(0 0)"/><path class="c" d="M328.914,76.549c-.085.149-.18.308-.284.476a13.885,13.885,0,0,1-6.176,5.352,13.638,13.638,0,0,1-1.3.493q-.391.127-.792.231L322.1,59.067l2.161,1.891,2.323.054Z" transform="translate(-303.055 -55.875)"/><path class="d" d="M66.143,3.508C65.553,1.972,64.618.6,63.085.847A1.98,1.98,0,0,0,61.58,0h0c-.044,0-.089,0-.134,0a3.143,3.143,0,0,0-.407.027C58.653.339,56.7,3.359,55.968,6.811L52.636,7.893,50.813,22.107a13.907,13.907,0,0,0,3.639,3.384l10.21,1.9a13.62,13.62,0,0,0,1.509-.4l.946-23.8Zm-9.118,2.96a25.238,25.238,0,0,1,1.123-2.845C58.8,2.273,60.9.328,62.092,1.057a1.184,1.184,0,0,1,.1.071c-1.365.63-2.437,2.1-2.984,4.63Zm6-1.947-2.681.87s.512-2.783,2.406-3.466A6.79,6.79,0,0,1,63.021,4.522ZM64.01,4.2a7.9,7.9,0,0,0-.421-2.4c.972.1,1.47,1.142,1.716,1.978Z" transform="translate(-48.067 0)"/><path class="b" d="M111.882,186.551a7.554,7.554,0,0,0,1.534.938,3.4,3.4,0,0,0,.748.218,1.111,1.111,0,0,0,1.184-.394,1.239,1.239,0,0,0,.049-1.33,2.36,2.36,0,0,0-.631-.765q-.488-.427-.984-.843a3.54,3.54,0,0,1-1.215-3.421,4.944,4.944,0,0,1,4.428-4.3,6.647,6.647,0,0,1,2.986.217c.22.074.242.164.171.366q-.46,1.324-.891,2.658c-.058.18-.106.209-.289.134a4.247,4.247,0,0,0-2.343-.353,1.3,1.3,0,0,0-1.185.949,1.059,1.059,0,0,0,.339,1.077,14.715,14.715,0,0,0,1.369,1.1,5.458,5.458,0,0,1,1.438,1.521,4.254,4.254,0,0,1,.317,3.447,3.8,3.8,0,0,1-4.334,2.807,5.857,5.857,0,0,1-3.167-1.371.488.488,0,0,1-.182-.62c.214-.6.378-1.218.562-1.829C111.807,186.679,111.81,186.6,111.882,186.551Z" transform="translate(-105.173 -167.034)"/></g></g></svg>