<svg xmlns="http://www.w3.org/2000/svg" viewBox="0 0 259.739 163.165">
  <defs>
    <style>
      .cls-1 {
        fill: #594ed0;
      }

      .cls-2 {
        fill: #020202;
      }

      .cls-3 {
        fill: #8fc3ff;
      }

      .cls-4 {
        fill: #fff;
      }

      .cls-12, .cls-5, .cls-8 {
        fill: none;
        stroke-miterlimit: 10;
      }

      .cls-5 {
        stroke: #020202;
      }

      .cls-6 {
        fill: #f6b736;
      }

      .cls-7 {
        fill: #322a7d;
      }

      .cls-8 {
        stroke: #000;
      }

      .cls-9 {
        fill: #d69522;
      }

      .cls-10 {
        fill: #f2eee3;
      }

      .cls-11 {
        fill: #fa7447;
      }

      .cls-12 {
        stroke: #8fc3ff;
      }
    </style>
  </defs>
  <g id="Group_29" data-name="Group 29" transform="translate(-555.827 -375.916)">
    <g id="Group_8" data-name="Group 8" transform="translate(555.827 375.916)">
      <path id="Path_16" data-name="Path 16" class="cls-1" d="M699.569,529.1c-5.853,5.617-24.638,24.835-50.264,18.844a48.443,48.443,0,0,1-8.266-2.752l8.433-14.491s1.778.352,4.483.649c6.189.682,17.235,1.087,22.96-3.634,8.23-6.788,9.506-9.487,12.613-9.665s2.508,3.127,2.508,3.127l9.984-1.487C703.322,519.493,706.035,522.891,699.569,529.1Z" transform="translate(-524.643 -430.079)"/>
      <path id="Path_17" data-name="Path 17" class="cls-2" d="M653.954,564.314,649.3,580.908a48.438,48.438,0,0,1-8.266-2.752l8.433-14.491S651.249,564.017,653.954,564.314Z" transform="translate(-524.643 -463.048)"/>
      <path id="Path_18" data-name="Path 18" class="cls-3" d="M588.018,522.825s-4.4,13.575-15.492,17.827a39.006,39.006,0,0,0-5.571-4.393,42.2,42.2,0,0,1-8.372-6.821,27.016,27.016,0,0,1-5.517-8.555c-5.834-15.074,10.358-11.049,10.358-11.049s1.179,1.135,3.151,2.738c.857.693,1.864,1.476,2.99,2.294C574.372,518.35,581.343,522.433,588.018,522.825Z" transform="translate(-460.157 -423.797)"/>
      <path id="Path_19" data-name="Path 19" class="cls-2" d="M575.188,520.975l-11.47,1.792,3.479,15.074a42.192,42.192,0,0,0,8.372,6.821l2.61-21.393Z" transform="translate(-468.771 -432.2)"/>
      <path id="Path_20" data-name="Path 20" class="cls-1" d="M273.757,398.487a64.83,64.83,0,0,1-10.314-2.818c-10.608-3.781-26.07-12.059-29.632-28.805-2.793-13.126,3.2-25.9,10.361-36.838,7.06-10.791,15.251-19.79,17.257-25.576,2.824-8.144-2.846-13.576-9.076-16.583a31.622,31.622,0,0,0-7.723-2.558c-7.49-1.387-27.185,6.38-22.469-3.051,3.656-7.312,24.494-6.954,37.03,2.757a24.312,24.312,0,0,1,8.186,10.824c4.308,11.759-8.5,25.01-18.4,38.888-6.674,9.359-12.02,19-9.9,28.669,4.142,18.857,22.161,23.626,29.687,24.8a32.514,32.514,0,0,0,3.323.374Z" transform="translate(-221.441 -256.046)"/>
      <path id="Path_21" data-name="Path 21" class="cls-2" d="M383.172,687.634a64.83,64.83,0,0,1-10.314-2.818l5.326-7.47a32.516,32.516,0,0,0,3.323.375Z" transform="translate(-330.855 -545.193)"/>
      <path id="Path_22" data-name="Path 22" class="cls-2" d="M308.2,355.087l-4.807-4.7c7.06-10.791,15.251-19.79,17.257-25.576,2.824-8.144-2.846-13.576-9.077-16.583l6.838-2.852a24.312,24.312,0,0,1,8.186,10.824C330.9,327.958,318.09,341.209,308.2,355.087Z" transform="translate(-280.656 -276.407)"/>
      <path id="Path_23" data-name="Path 23" class="cls-3" d="M412.475,507.041s-14.7,34.12-13.592,68.24h61.312s-4.564-28.666-5.278-39.945c-.88-13.911-3.051-31.9-3.051-31.9Z" transform="translate(-349.617 -419.525)"/>
      <g id="Group_3" data-name="Group 3" transform="translate(91.554 109.153)">
        <path id="Path_24" data-name="Path 24" class="cls-4" d="M551.488,595.267l9.513-.832.832,13.454-10.319,1.248Z" transform="translate(-551.488 -594.435)"/>
        <path id="Path_25" data-name="Path 25" class="cls-5" d="M551.488,595.99l4.859,4.161,4.581-4.716" transform="translate(-551.488 -595.158)"/>
      </g>
      <line id="Line_1" data-name="Line 1" class="cls-5" x2="2.634" y2="53.564" transform="translate(86.577 102.191)"/>
      <path id="Path_26" data-name="Path 26" class="cls-1" d="M422.345,622.476l-1.284,1.92S420.7,641.6,432.91,646.868l5.722,1.983.271-1.266,4.947,1.627.271-1.266s9-3.177,13.219-6.529l6.4-3.072a4.434,4.434,0,0,0,5.254-.576c2.57-2.286,8.331-4.456,11.03-5.579,0,0,5.554-5.619,3.216-9.714,0,0-7.943-2.647-9.764-2.092,0,0-4.366-1.692-7.04.194-1.743,1.23-13.5,9.5-21.189,11.5-4.1,1.072-3.654-2.434-5.78-4.8C433.362,620.486,422.345,622.476,422.345,622.476Z" transform="translate(-365.686 -503.528)"/>
      <path id="Path_27" data-name="Path 27" class="cls-3" d="M415.5,519.095s8.155.629,10.126,8.785,3.252,25.262,3.252,25.262L406.278,556l.379-25.982S405.65,519.735,415.5,519.095Z" transform="translate(-355.005 -430.841)"/>
      <path id="Path_28" data-name="Path 28" class="cls-5" d="M439.534,519.095s8.155.629,10.126,8.785,3.252,25.262,3.252,25.262" transform="translate(-379.035 -430.841)"/>
      <path id="Path_29" data-name="Path 29" class="cls-6" d="M630.714,375.706v13c10.837,8.86,21.524-.531,22.516-9.421a9.372,9.372,0,0,0-3.377-8.72C636.308,359.84,630.714,375.706,630.714,375.706Z" transform="translate(-517.182 -320.824)"/>
      <path id="Path_30" data-name="Path 30" class="cls-2" d="M634.928,374.061v19.668l10.929-1.079-4.028-24.686Z" transform="translate(-520.227 -321.634)"/>
      <path id="Path_31" data-name="Path 31" class="cls-5" d="M661.1,399.031s-6.843-.266-10.726,8.106" transform="translate(-531.386 -344.082)"/>
      <path id="Path_32" data-name="Path 32" class="cls-6" d="M304.176,355.874V372.7a20.839,20.839,0,0,1-6.993,3.892c-11.329,3.515-21.091-6.513-22.159-16.089a12.135,12.135,0,0,1,4.372-11.29c8.133-6.438,14.053-5.473,18.061-2.588C302.093,349.968,304.176,355.874,304.176,355.874Z" transform="translate(-260.09 -304.606)"/>
      <path id="Path_33" data-name="Path 33" class="cls-2" d="M362.151,361.681v16.83a20.838,20.838,0,0,1-6.993,3.892l.269-29.967h.006C360.068,355.775,362.151,361.681,362.151,361.681Z" transform="translate(-318.065 -310.412)"/>
      <path id="Path_34" data-name="Path 34" class="cls-1" d="M507.04,533.339l7.352,9.986,6.934-9.986Z" transform="translate(-427.815 -441.134)"/>
      <path id="Path_35" data-name="Path 35" class="cls-7" d="M505.9,533.339l5.965,9.986-5.965,4.161-2.358-14.147Z" transform="translate(-425.286 -441.134)"/>
      <path id="Path_36" data-name="Path 36" class="cls-7" d="M538.535,536.339l-4.992,9.154,6.8,3.051,1.248-12.206Z" transform="translate(-446.967 -443.302)"/>
      <path id="Path_37" data-name="Path 37" class="cls-1" d="M445.153,316.688c6.289,17.937-16.827,24.78-16.827,24.78-20.822,6.153-40.281,1.179-51.843-10.322a36.281,36.281,0,0,1-10.849-24.816c-.926-27.185,21.149-35.033,33.471-36.617,35.876-4.6,45.643,11.875,47.51,26.564A56.627,56.627,0,0,1,445.153,316.688Z" transform="translate(-325.615 -250.069)"/>
      <path id="Path_38" data-name="Path 38" class="cls-6" d="M467.092,359.887c6.289,17.937-16.827,24.78-16.827,24.78-20.821,6.153-40.281,1.179-51.843-10.322-2.469-4.447-4.549-11.853,1.448-20.192,0,0-2.588-34.788,36.431-21.093,0,0,20.317-13.215,32.253,6.416A56.629,56.629,0,0,1,467.092,359.887Z" transform="translate(-347.554 -293.268)"/>
      <g id="Group_4" data-name="Group 4" transform="translate(52.673)">
        <path id="Path_39" data-name="Path 39" class="cls-3" d="M472.688,294.5s26.553,22.8,46.023,13.1c0,0,8.737-4.909,1.814-12.109s-5.367-4.781-6.185-8.292S472.688,294.5,472.688,294.5Z" transform="translate(-455.666 -262.77)"/>
        <path id="Path_40" data-name="Path 40" class="cls-3" d="M470.326,228.837c-1.346,2.216-10.224,4.939-10.224,4.939-25.634,7.625-47.174-6.157-47.174-6.157l-1.059-6.011-.018-.105c-2.669-7.036,5.6-8.489,7.516-8.13s10.621-1.527,16.193-3.606,8.732-12.169,24.67-7.684,9.51,20.547,9.51,20.547Z" transform="translate(-411.325 -200.946)"/>
        <path id="Path_41" data-name="Path 41" class="cls-2" d="M471.741,282.662c-1.346,2.216-10.224,4.939-10.224,4.939-25.634,7.625-47.174-6.157-47.174-6.157l-1.059-6.011a87.136,87.136,0,0,0,32.148,4.165c18.945-1.138,25.723-3.143,25.723-3.143Z" transform="translate(-412.74 -254.771)"/>
        <ellipse id="Ellipse_1" data-name="Ellipse 1" class="cls-4" cx="3.562" cy="5.243" rx="3.562" ry="5.243" transform="translate(18.58 23.966) rotate(3.509)"/>
        <path id="Path_42" data-name="Path 42" class="cls-6" d="M561.846,255.37l-4.17,1.817s-.179,2.925-2.184,3.234c0,0-.55,9.553,10.5,13.6,0,0,5.766-5.606,3.883-15.737a3.067,3.067,0,0,1-2.949-2.6Z" transform="translate(-515.497 -240.273)"/>
        <ellipse id="Ellipse_2" data-name="Ellipse 2" class="cls-8" cx="2.758" cy="5.171" rx="2.758" ry="5.171" transform="translate(44.559 19.3) rotate(-11.818)"/>
      </g>
      <path id="Path_43" data-name="Path 43" class="cls-2" d="M470.109,416.4s-.56-7.5-5.049-7.282-3.758,8.147-3.758,8.147,1.335-6.429,4.079-6.552S470.109,416.4,470.109,416.4Z" transform="translate(-394.733 -351.367)"/>
      <path id="Path_44" data-name="Path 44" class="cls-2" d="M616.916,413.328s-.56-7.5-5.049-7.282-3.758,8.147-3.758,8.147,1.335-6.429,4.079-6.552S616.916,413.328,616.916,413.328Z" transform="translate(-500.816 -349.149)"/>
      <g id="Group_6" data-name="Group 6" transform="translate(84.062 59.678)">
        <path id="Path_45" data-name="Path 45" class="cls-9" d="M524.477,419.968s13.825-7.126,21.773,2.58C546.25,422.548,538.919,409.914,524.477,419.968Z" transform="translate(-524.477 -416.083)"/>
        <g id="Group_5" data-name="Group 5" transform="translate(7.64 4.399)">
          <path id="Path_46" data-name="Path 46" class="cls-2" d="M553.88,434.575c.257,1.313.074,2.448-.408,2.535s-1.082-.906-1.338-2.219-.074-2.447.408-2.535S553.623,433.262,553.88,434.575Z" transform="translate(-552.017 -432.237)"/>
          <path id="Path_47" data-name="Path 47" class="cls-2" d="M569.707,434.225c.186,1.323-.058,2.448-.544,2.511s-1.032-.959-1.218-2.282.058-2.448.544-2.511S569.521,432.9,569.707,434.225Z" transform="translate(-563.482 -431.94)"/>
        </g>
      </g>
      <path id="Path_48" data-name="Path 48" class="cls-5" d="M311.7,393.418s7.392-1.761,15.435,7.48" transform="translate(-286.665 -339.93)"/>
      <line id="Line_2" data-name="Line 2" class="cls-5" y1="3.676" x2="21.988" transform="translate(51.351 116.157)"/>
      <line id="Line_3" data-name="Line 3" class="cls-5" y1="15.814" x2="12.935" transform="translate(108.434 97.631)"/>
      <g id="Group_7" data-name="Group 7" transform="translate(76.855 69.393)">
        <path id="Path_49" data-name="Path 49" class="cls-10" d="M521.409,484.4c-8.961,3.17-18.891-1.136-21.59-4.831-3.633-4.975.668-8.294,7.6-5.611a20.5,20.5,0,0,0,13.2.449s-2.7,2.657-1.757,5.558A11.5,11.5,0,0,0,521.409,484.4Z" transform="translate(-498.499 -466.929)"/>
        <path id="Path_50" data-name="Path 50" class="cls-5" d="M519.63,451.1s2.952,3.979,6.354,5.152c0,0-8.622,5.722-18.562,1.878-6.937-2.683-11.237.637-7.6,5.611,2.7,3.7,12.629,8,21.59,4.831" transform="translate(-498.498 -451.104)"/>
        <path id="Path_51" data-name="Path 51" class="cls-5" d="M500.572,478.3a26.734,26.734,0,0,0,19.789,4.782" transform="translate(-499.997 -470.755)"/>
      </g>
      <line id="Line_4" data-name="Line 4" class="cls-5" y1="2.099" x2="7.254" transform="translate(100.54 116.855)"/>
      <path id="Path_52" data-name="Path 52" class="cls-5" d="M610.031,630.647s7.438-.872,8.6-.879" transform="translate(-502.237 -510.814)"/>
      <line id="Line_5" data-name="Line 5" class="cls-5" y1="2.589" x2="8.725" transform="translate(109.408 120.619)"/>
      <line id="Line_6" data-name="Line 6" class="cls-5" y1="4.069" x2="10.025" transform="translate(108.96 123.208)"/>
      <path id="Path_53" data-name="Path 53" class="cls-5" d="M502.81,308.251s23.706,15.693,36.851,7.371c0,0,6.419-1.522-3.227-14.131" transform="translate(-424.759 -273.6)"/>
      <path id="Path_54" data-name="Path 54" class="cls-7" d="M406.278,564.68v4.514l15.251-2.257-2-4.046Z" transform="translate(-355.005 -462.488)"/>
      <path id="Path_55" data-name="Path 55" class="cls-11" d="M413.283,587.782l1.411,3.792,7.948-1.9v-4.066Z" transform="translate(-360.066 -478.907)"/>
      <path id="Path_56" data-name="Path 56" class="cls-5" d="M401.038,396.435a4.67,4.67,0,0,1,2.219,1.11" transform="translate(-351.218 -342.207)"/>
      <path id="Path_57" data-name="Path 57" class="cls-5" d="M400.038,382.435a4.955,4.955,0,0,1,2.219,1.11" transform="translate(-350.495 -332.09)"/>
      <path id="Path_58" data-name="Path 58" class="cls-5" d="M383.038,405.435a9.115,9.115,0,0,0,2.5.277" transform="translate(-338.211 -348.71)"/>
      <path id="Path_59" data-name="Path 59" class="cls-5" d="M486.476,699.209c-1.524-.853-2.986-1.837-4.438-2.774" transform="translate(-409.749 -558.987)"/>
      <path id="Path_60" data-name="Path 60" class="cls-5" d="M453.038,686.435a5.372,5.372,0,0,1,.555,2.774" transform="translate(-388.793 -551.761)"/>
      <path id="Path_61" data-name="Path 61" class="cls-5" d="M480.038,677.435a14.481,14.481,0,0,1,2.5,2.5" transform="translate(-408.304 -545.258)"/>
      <path id="Path_62" data-name="Path 62" class="cls-5" d="M462.7,332.209a7.713,7.713,0,0,0-1.664-2.774" transform="translate(-394.574 -293.792)"/>
      <path id="Path_63" data-name="Path 63" class="cls-5" d="M465.038,241.815c4.636,1.713,11.039-3.039,13.87-6.38" transform="translate(-397.465 -225.868)"/>
      <path id="Path_64" data-name="Path 64" class="cls-5" d="M291.038,271.435c1.168.9,1.7,2.431,2.5,3.606" transform="translate(-271.732 -251.882)"/>
      <path id="Path_65" data-name="Path 65" class="cls-5" d="M312.038,272.435c.874,1.344,1.154,3.427,1.664,4.993" transform="translate(-286.906 -252.604)"/>
      <path id="Path_66" data-name="Path 66" class="cls-5" d="M345.425,653.435c-.4,1.4-.254,3.094-1.387,4.161" transform="translate(-310.03 -527.915)"/>
      <path id="Path_67" data-name="Path 67" class="cls-2" d="M423,649.811l16.973-6.68-1.5-1.51-16.722,1.962Z" transform="translate(-366.189 -519.379)"/>
    </g>
    <g id="Group_11" data-name="Group 11" transform="translate(674.769 382.545)">
      <path id="Path_68" data-name="Path 68" class="cls-2" d="M915.934,229.465c0,.924-2.219,3.143-2.219,3.143s-.042.28-.144.791c-.938,4.619-6.9,28-32.22,30.833A9.575,9.575,0,0,1,874.5,261.1c-2.075-2.125-4.014-5.689-4.8-11.662,0,0,28.109-17.013,35.321-19.973,7.1-2.913,10.791-4.569,10.91-4.621-.044.13-1.5,4.261-2.771,4.807a2.391,2.391,0,0,0-.252.117C912.988,229.768,915.934,228.68,915.934,229.465Z" transform="translate(-808.816 -224.844)"/>
      <path id="Path_69" data-name="Path 69" class="cls-11" d="M739.54,438.374H683.228s-1.942-40.5,11.1-58.67a16.824,16.824,0,0,0,.322-3.581,14.925,14.925,0,0,0-5.315-11.814c-7.212-5.825-8.045-6.658-14.7-7.212-4.077-.338-12.289-1.476-18.056-4.494-3.651-1.909-6.325-4.572-6.355-8.266-.014-1.7,3.251-3.49,7.676-5.137,9.282-3.454,23.67-6.272,23.67-6.272s.277-9.4,3.606-11.337,1.942,1.387,1.942,1.387,10.818-10.264,23.3-8.877,26.075,7.49,26.075,7.49a44.517,44.517,0,0,1-3.329,25.779l-1.387,2.239s4.866-1.664,5.346,0-4.514,4.716-4.514,4.716,4.375-.555,4.544,1.664-7.318,6.957-7.318,12.078a12.748,12.748,0,0,0,.375,2.807c1.234,5.345,5.179,13.115,6.949,20.206C739.263,399.538,741.759,415.072,739.54,438.374Z" transform="translate(-650.218 -289.247)"/>
      <path id="Path_70" data-name="Path 70" class="cls-11" d="M737.216,491.877s-3.459,16.458-22.877,11.836c-10.014-2.386-12.455-16.083-12.491-28.991-.039-12.125,2.039-23.554,1.95-24.27-.183-1.478.924-1.3,1.3-4.624s5.917-11.465,6.841-11.465,1.85,3.7,3.662,3.606.777,4.344,1.886,4.344.555,1.664.555,4.96c0,3.223-1.592,15.568-2.18,21.815-.014.142-.028.277-.039.41-.555,6.1-.241,15.323,4.069,16.408,6.1,1.531,8.877-6.791,8.877-6.791Z" transform="translate(-687.525 -376.243)"/>
      <path id="Path_71" data-name="Path 71" class="cls-4" d="M825.261,586.6H768.95s-1.942-40.5,11.1-58.67a16.845,16.845,0,0,0,.322-3.581c7.664-.186,25.828-1.07,35.559-5.251,1.234,5.345,5.179,13.115,6.949,20.206C824.984,547.761,827.48,563.3,825.261,586.6Z" transform="translate(-735.94 -437.47)"/>
      <g id="Group_9" data-name="Group 9" transform="translate(37.594 91.002)">
        <line id="Line_7" data-name="Line 7" class="cls-5" y1="2.771" x2="41.216" transform="translate(4.424)"/>
        <line id="Line_8" data-name="Line 8" class="cls-5" y1="2.771" x2="43.616" transform="translate(1.869 5.46)"/>
        <line id="Line_9" data-name="Line 9" class="cls-5" y1="2.771" x2="50.752" transform="translate(0 10.92)"/>
        <line id="Line_10" data-name="Line 10" class="cls-5" y1="2.771" x2="46.638" transform="translate(3.959 16.38)"/>
        <line id="Line_11" data-name="Line 11" class="cls-5" y1="2.771" x2="46.638" transform="translate(3.803 21.84)"/>
        <line id="Line_12" data-name="Line 12" class="cls-5" y1="2.73" x2="49.334" transform="translate(3.648 27.341)"/>
        <line id="Line_13" data-name="Line 13" class="cls-5" y1="2.73" x2="49.335" transform="translate(3.493 32.801)"/>
        <line id="Line_14" data-name="Line 14" class="cls-5" y1="2.73" x2="49.335" transform="translate(3.338 38.261)"/>
        <line id="Line_15" data-name="Line 15" class="cls-5" y1="2.73" x2="49.334" transform="translate(3.183 43.721)"/>
        <line id="Line_16" data-name="Line 16" class="cls-5" y1="2.73" x2="49.335" transform="translate(3.027 49.18)"/>
        <line id="Line_17" data-name="Line 17" class="cls-5" y1="2.73" x2="49.334" transform="translate(2.872 54.64)"/>
      </g>
      <path id="Path_72" data-name="Path 72" class="cls-2" d="M809.44,517.613l-.224,5.377,37.754-5.377-1.624-5.351Z" transform="translate(-765.11 -432.533)"/>
      <path id="Path_73" data-name="Path 73" class="cls-3" d="M894.185,279.333c-1.847,2.4-2.774-2.036-7.95-7.029s-17.041-10.816-17.041-10.816L842.22,248.461s.139-.341.435-.91a22.447,22.447,0,0,1,3.676-5.046,20.492,20.492,0,0,1,9.759-5.709c10.172-2.588,30.259,2.913,36.212,14.741S896.035,276.931,894.185,279.333Z" transform="translate(-788.959 -233.027)"/>
      <g id="Group_10" data-name="Group 10" transform="translate(60.237 8.269)">
        <path id="Path_74" data-name="Path 74" class="cls-5" d="M867.368,258.614s18.372-6.613,26.523-2.752,14.532,8.577,15.641,11.906,2.325,24.412,2.325,24.412" transform="translate(-867.368 -254.652)"/>
        <path id="Path_75" data-name="Path 75" class="cls-5" d="M909.565,273.8s6.584-3.763,11.171-2.608a46.88,46.88,0,0,1,9.722,4.068s6.881,5.548,7.669,8.738,2.729,19.96,2.729,19.96" transform="translate(-897.86 -266.447)"/>
        <path id="Path_76" data-name="Path 76" class="cls-5" d="M947.56,294.786s3.821-1.8,6.466-.375,7.68,6.5,7.68,6.5" transform="translate(-925.315 -282.984)"/>
      </g>
      <path id="Path_77" data-name="Path 77" class="cls-2" d="M880.282,272.857l-7.96,3.229-28.533-12.025a22.444,22.444,0,0,1,3.676-5.046Z" transform="translate(-790.093 -249.536)"/>
      <path id="Path_78" data-name="Path 78" class="cls-3" d="M828.618,291.586s-14.662-2.928-21.838-3.173-9.986-.182-8.692-3.05,3.825-3.238,3.854-4.532-.341-3.884,1.139-5.178,3.884-3.884,3.884-3.884,20.528,2.885,37.356,11.706Z" transform="translate(-756.849 -258.752)"/>
      <path id="Path_79" data-name="Path 79" class="cls-11" d="M949.454,262.375c0,.924-2.219,3.143-2.219,3.143s-.042.28-.144.791c-.938,4.619-6.9,28-32.22,30.833a9.575,9.575,0,0,1-6.846-3.132c-2.075-2.125-4.014-5.689-4.8-11.662,0,0,28.109-17.013,35.321-19.973,7.1-2.913,10.791-4.569,10.91-4.621-.044.13-1.5,4.261-2.771,4.807a2.386,2.386,0,0,0-.253.117C946.508,262.678,949.454,261.59,949.454,262.375Z" transform="translate(-833.038 -248.625)"/>
      <path id="Path_80" data-name="Path 80" class="cls-4" d="M879.677,544.436s-7.582,0-9.986,7.4-4.808,23.117-4.808,23.117l20.688,4.253,1.5-24.041S888.739,545.731,879.677,544.436Z" transform="translate(-805.335 -455.782)"/>
      <path id="Path_81" data-name="Path 81" class="cls-5" d="M879.677,544.436s-7.582,0-9.986,7.4-4.808,23.117-4.808,23.117l20.688,4.253,1.5-24.041S888.739,545.731,879.677,544.436Z" transform="translate(-805.335 -455.782)"/>
      <path id="Path_82" data-name="Path 82" class="cls-2" d="M903.141,668.249l-3.709,26.127-7.4.185,8.507-26.312Z" transform="translate(-824.955 -545.249)"/>
      <path id="Path_83" data-name="Path 83" class="cls-3" d="M829.981,528.029s20.605-14.98,33.736-15.719,45.886,7.028,51.966,34.213-6.1,51.6-31.069,36.617-15.9-44.568-33.843-51.966c0,0-15.165,1.2-18.493,3.19a29.244,29.244,0,0,1-7.4,2.912Z" transform="translate(-776.43 -432.533)"/>
      <path id="Path_84" data-name="Path 84" class="cls-11" d="M805.153,593.683c-1.847,14.056-9.246,34.769-21.637,34.214s-22.006-4.993-25.335-18.68a18.3,18.3,0,0,1-.452-2.893c-1.1-13.751,10.738-33.477,12.289-35.2,1.664-1.85,4.622.186,5.917-2.219s8.877-4.069,6.439-1.85-1.259,7.029-1.259,7.029l2.588-.879s2.405-1.712,2.96,0-3.884,3.653-7.767,8.83c-2.946,3.928-6.53,14.988-4.213,20.9a5.592,5.592,0,0,0,4.213,3.692c8.877,1.85,10.541-15.9,10.541-15.9Z" transform="translate(-727.853 -471.372)"/>
      <path id="Path_85" data-name="Path 85" class="cls-2" d="M822.729,369.679s-.393-6.992-4.578-6.871-3.641,7.525-3.641,7.525,1.355-5.967,3.913-6.033S822.729,369.679,822.729,369.679Z" transform="translate(-768.919 -324.536)"/>
      <path id="Path_86" data-name="Path 86" class="cls-2" d="M656.573,418.318c-3.651-1.909-6.325-4.572-6.355-8.266-.014-1.7,3.251-3.49,7.676-5.137C659.733,407.38,662.371,412.715,656.573,418.318Z" transform="translate(-650.218 -354.963)"/>
      <path id="Path_87" data-name="Path 87" class="cls-2" d="M718.036,447.275c0,3.223-1.592,15.568-2.18,21.815-1.062-.974-1.936-1.842-1.936-1.842s.555,5.418-1.664,5.923-2.5-4.416-2.5-4.416-.555,5.853-2.219,6.1-1.942-5.409-1.942-5.409-.555,4.05-2.219,5.445c-.469.394-1,.247-1.531-.169-.039-12.125,2.039-23.554,1.95-24.27-.183-1.479.924-1.3,1.3-4.624s5.917-11.465,6.841-11.465,1.85,3.7,3.662,3.606.777,4.344,1.886,4.344S718.036,443.979,718.036,447.275Z" transform="translate(-687.525 -376.244)"/>
      <path id="Path_88" data-name="Path 88" class="cls-2" d="M778.895,582.032c-2.946,3.928-6.53,14.988-4.213,20.9-.632,1.148-1.309,2.186-1.734,2.305-.993.277-5.107-5.581-5.107-5.581s.555,5.859-1.387,6.413-3.051-4.438-3.051-4.438,0,4.438-2.641,6.1c-1.051.663-2.125-.172-3.032-1.415-1.1-13.751,10.738-33.477,12.289-35.2,1.664-1.85,4.622.186,5.917-2.219s8.877-4.069,6.439-1.85-1.259,7.029-1.259,7.029l2.588-.879s2.405-1.712,2.96,0S782.778,576.856,778.895,582.032Z" transform="translate(-727.853 -471.372)"/>
      <line id="Line_18" data-name="Line 18" class="cls-5" x2="20.355" y2="3.912" transform="translate(60.124 115.619)"/>
      <line id="Line_19" data-name="Line 19" class="cls-5" x2="20.106" y2="2.855" transform="translate(60.618 111.655)"/>
      <line id="Line_20" data-name="Line 20" class="cls-5" x2="19.175" y2="3.071" transform="translate(61.548 106.943)"/>
      <line id="Line_21" data-name="Line 21" class="cls-5" x2="18.397" y2="3.159" transform="translate(62.983 101.969)"/>
      <path id="Path_89" data-name="Path 89" class="cls-5" d="M842.217,567.522s19.737-9.578,33.976-7.471,17.754,5.674,17.754,5.674" transform="translate(-788.957 -466.846)"/>
      <path id="Path_90" data-name="Path 90" class="cls-5" d="M841.763,549.612s24.856-11.875,32.808-11.44,11.651,1.729,11.651,1.729" transform="translate(-788.629 -451.247)"/>
      <path id="Path_91" data-name="Path 91" class="cls-2" d="M944.977,397.168l-6.054.516,5.049,3.784Z" transform="translate(-858.837 -349.366)"/>
      <path id="Path_92" data-name="Path 92" class="cls-1" d="M961.81,299.774c-1.662,9.986-21.454,23.856-25.351,23.116a4.2,4.2,0,0,1-3.312-3.859,7.7,7.7,0,0,1-.067-1.773c2.059-3.39,14.2-10.058,22.023-14.111h0C958.989,301.139,961.81,299.774,961.81,299.774Z" transform="translate(-854.598 -278.989)"/>
      <path id="Path_93" data-name="Path 93" class="cls-4" d="M826.726,292.435l-2.358,5.409,10.125,2.391,1.8-5.766Z" transform="translate(-776.059 -273.685)"/>
      <line id="Line_22" data-name="Line 22" class="cls-5" x2="7.767" y2="7.8" transform="translate(50.667 18.75)"/>
      <line id="Line_23" data-name="Line 23" class="cls-5" y1="1.788" x2="5.964" transform="translate(48.309 22.371)"/>
      <path id="Path_94" data-name="Path 94" class="cls-5" d="M1013.078,389.9c3.329-.278,6.38,3.605,5.825,7.9s-10.4,5.123-10.541-1.6S1013.078,389.9,1013.078,389.9Z" transform="translate(-909.012 -344.105)"/>
      <line id="Line_24" data-name="Line 24" class="cls-5" x2="1.495" y2="2.893" transform="translate(104.652 55.227)"/>
      <line id="Line_25" data-name="Line 25" class="cls-5" x2="1.526" y2="1.813" transform="translate(107.118 55.227)"/>
      <line id="Line_26" data-name="Line 26" class="cls-5" x1="3.467" y2="0.698" transform="translate(97.131 49.952)"/>
      <path id="Path_95" data-name="Path 95" class="cls-2" d="M955.1,311.935l-21.956,15.884a7.71,7.71,0,0,1-.067-1.773C935.138,322.656,947.277,315.987,955.1,311.935Z" transform="translate(-854.598 -287.776)"/>
      <path id="Path_96" data-name="Path 96" class="cls-4" d="M784.173,438.914c11.82-4.577,3.853-14.979,3.853-14.979.46,4.734-3.584,8.8-7.042,11.369a6.574,6.574,0,0,1,2.506,1.53A5.3,5.3,0,0,1,784.173,438.914Z" transform="translate(-744.71 -368.708)"/>
      <path id="Path_97" data-name="Path 97" class="cls-5" d="M764.2,438.221s12.487-6.158,11.7-14.286c0,0,7.968,10.4-3.853,14.979" transform="translate(-732.582 -368.708)"/>
      <path id="Path_98" data-name="Path 98" class="cls-5" d="M796.094,433.558s-.717,6.993-6.076,10.229" transform="translate(-751.238 -375.661)"/>
      <path id="Path_99" data-name="Path 99" class="cls-5" d="M794.034,414.768s3.4,5.178,6.048,0" transform="translate(-754.14 -362.083)"/>
      <path id="Path_100" data-name="Path 100" class="cls-12" d="M750.555,460.845s-2.52,5.85-2.242,8.347" transform="translate(-721.086 -395.379)"/>
      <path id="Path_101" data-name="Path 101" class="cls-12" d="M738.953,448.435s-3.446,6.519-3.585,9.709" transform="translate(-711.747 -386.411)"/>
      <path id="Path_102" data-name="Path 102" class="cls-12" d="M722.667,450.935a80.516,80.516,0,0,0-.834,9.015" transform="translate(-701.957 -388.218)"/>
      <path id="Path_103" data-name="Path 103" class="cls-12" d="M827.272,568.957s-2.908,5.584-2.5,7.851" transform="translate(-776.325 -473.501)"/>
      <path id="Path_104" data-name="Path 104" class="cls-12" d="M811.636,581.405a19.422,19.422,0,0,0-1.613,5.416" transform="translate(-765.693 -482.496)"/>
      <path id="Path_105" data-name="Path 105" class="cls-12" d="M801.218,582.573s-1.507,3.01-1.27,5.092" transform="translate(-758.395 -483.34)"/>
      <path id="Path_106" data-name="Path 106" class="cls-5" d="M1093.473,632.435c2.032,5.744-2.19,12.943-6.1,16.644" transform="translate(-966.105 -519.37)"/>
      <path id="Path_107" data-name="Path 107" class="cls-5" d="M1062.37,679.319c1.5.106,4.8-2.053,4.993-3.884" transform="translate(-948.04 -550.442)"/>
      <path id="Path_108" data-name="Path 108" class="cls-5" d="M790.368,739.435a21.467,21.467,0,0,0,2.219,2.5" transform="translate(-751.491 -596.688)"/>
      <path id="Path_109" data-name="Path 109" class="cls-5" d="M836.368,760.435c.746.312,2.063.5,3.051.832" transform="translate(-784.73 -611.863)"/>
      <path id="Path_110" data-name="Path 110" class="cls-5" d="M863.368,740.99c1.064.244,2.143-.33,3.329-.555" transform="translate(-804.241 -597.411)"/>
      <path id="Path_111" data-name="Path 111" class="cls-5" d="M824.368,732.435a5.3,5.3,0,0,0,2.5,1.387" transform="translate(-776.059 -591.63)"/>
      <path id="Path_112" data-name="Path 112" class="cls-5" d="M877.368,715.822a4.419,4.419,0,0,0,1.387-1.387" transform="translate(-814.357 -578.623)"/>
      <path id="Path_113" data-name="Path 113" class="cls-5" d="M868.368,700.822c.505-.068,1.031-.64,1.387-1.387" transform="translate(-807.854 -567.784)"/>
      <path id="Path_114" data-name="Path 114" class="cls-5" d="M712.368,613.435c.41,1.075.665,2.026,1.11,3.051" transform="translate(-695.128 -505.641)"/>
      <path id="Path_115" data-name="Path 115" class="cls-5" d="M729.368,592.435l.832,1.664" transform="translate(-707.412 -490.466)"/>
      <path id="Path_116" data-name="Path 116" class="cls-5" d="M730.368,639.435a17.618,17.618,0,0,1,2.219,3.606" transform="translate(-708.135 -524.428)"/>
      <path id="Path_117" data-name="Path 117" class="cls-5" d="M747.368,626.435a3.586,3.586,0,0,1,1.664,1.387" transform="translate(-720.419 -515.034)"/>
      <path id="Path_118" data-name="Path 118" class="cls-5" d="M752.368,648.435a15.8,15.8,0,0,0,1.942,1.11" transform="translate(-724.032 -530.932)"/>
      <path id="Path_119" data-name="Path 119" class="cls-5" d="M836.368,499.435a29.372,29.372,0,0,1,1.387,3.606" transform="translate(-784.73 -423.264)"/>
      <path id="Path_120" data-name="Path 120" class="cls-5" d="M874.368,482.435a9.13,9.13,0,0,1,.832,3.329" transform="translate(-812.189 -410.98)"/>
      <path id="Path_121" data-name="Path 121" class="cls-5" d="M908.923,473.435c.5,1.168-.153,2.652-.555,3.884" transform="translate(-836.758 -404.476)"/>
      <path id="Path_122" data-name="Path 122" class="cls-5" d="M927.923,486.435a4.456,4.456,0,0,1-.555,2.5" transform="translate(-850.487 -413.87)"/>
      <path id="Path_123" data-name="Path 123" class="cls-5" d="M881.368,446.435a8.355,8.355,0,0,1,.277,3.051" transform="translate(-817.247 -384.966)"/>
      <path id="Path_124" data-name="Path 124" class="cls-5" d="M763.368,382.435c1.3.233,2.667.264,3.884.555" transform="translate(-731.98 -338.72)"/>
    </g>
  </g>
</svg>
