<svg xmlns="http://www.w3.org/2000/svg" viewBox="0 0 29.592 21.344">
  <defs>
    <style>
      .cls-1 {
        fill: #77567a;
      }
    </style>
  </defs>
  <g id="noun_Twitter_2072457" transform="translate(-170 232.742)">
    <path id="Path_101" data-name="Path 101" class="cls-1" d="M38.893,29.435a4.683,4.683,0,0,1,3.423,1.48,9.387,9.387,0,0,0,2.978-1.138,4.7,4.7,0,0,1-2.062,2.594,9.373,9.373,0,0,0,2.693-.738,9.529,9.529,0,0,1-2.339,2.427q.013.3.013.607A13.336,13.336,0,0,1,23.07,45.9a9.545,9.545,0,0,0,1.119.065,9.409,9.409,0,0,0,5.823-2.007A4.694,4.694,0,0,1,25.631,40.7a4.7,4.7,0,0,0,2.118-.08,4.692,4.692,0,0,1-3.761-4.6q0-.029,0-.059a4.67,4.67,0,0,0,2.124.59,4.7,4.7,0,0,1-1.451-6.262,13.312,13.312,0,0,0,9.665,4.9,4.7,4.7,0,0,1,4.568-5.758M47,27.641l-2.2,1.3a8.4,8.4,0,0,1-2.189.911,5.661,5.661,0,0,0-9.376,4.258,12.4,12.4,0,0,1-7.822-4.433L24.528,28.6l-.708,1.212a5.672,5.672,0,0,0-.452,4.709l-.323-.179-.029,1.615v.076a5.652,5.652,0,0,0,1.219,3.5L24.706,41a5.653,5.653,0,0,0,2.824,3.317A8.43,8.43,0,0,1,24.189,45a8.616,8.616,0,0,1-1.007-.059L19,44.449l3.546,2.273a14.262,14.262,0,0,0,7.711,2.26A13.728,13.728,0,0,0,40.89,44.3a14.784,14.784,0,0,0,3.679-9.636q0-.068,0-.136a10.452,10.452,0,0,0,2.161-2.358l1.861-2.783-2.536,1.125q.09-.217.162-.441L47,27.642h0Z" transform="translate(151 -260.383)"/>
  </g>
</svg>
