<svg xmlns="http://www.w3.org/2000/svg" viewBox="0 0 15.983 17.938">
  <defs>
    <style>
      .cls-1 {
        opacity: 0.75;
      }

      .cls-2 {
        fill: #fff;
      }
    </style>
  </defs>
  <g id="noun_Video_688591" class="cls-1" transform="translate(-15.639 -12.459)">
    <path id="Path_87" data-name="Path 87" class="cls-2" d="M16.163,22.588v6.256A1.556,1.556,0,0,0,17.716,30.4H30.068a1.556,1.556,0,0,0,1.554-1.554v-9.2a.359.359,0,0,0-.359-.359h-12.3l11.8-3.6A.359.359,0,0,0,31,15.232l-.512-1.673a1.556,1.556,0,0,0-1.939-1.033l-11.814,3.6a1.556,1.556,0,0,0-1.033,1.939l.464,1.518a.356.356,0,0,0,0,.055ZM30.9,28.843a.837.837,0,0,1-.837.837H17.716a.837.837,0,0,1-.837-.837v-5.9H30.9ZM30.9,20v2.23H27.917L30.145,20Zm-1.774,0-2.23,2.23H24.864L27.094,20Zm-3.05,0-2.228,2.23H21.644L23.874,20Zm-3.22,0-2.23,2.23H18.594L20.824,20Zm-3.05,0-2.23,2.23h-.7V20Zm8.95-6.791a.837.837,0,0,1,1.045.557l.406,1.334-.667.2L26.76,13.819Zm-2.971.908L28.574,15.6l-1.948.6-2.785-1.482Zm-2.919.889,2.785,1.482-2.108.643-2.785-1.482Zm-3.081.93,2.785,1.482-1.948.6L17.841,16.53Zm-2.907.906,2.775,1.484-2.869.873-.4-1.351A.834.834,0,0,1,16.882,16.841Z" transform="translate(0)"/>
    <path id="Path_88" data-name="Path 88" class="cls-2" d="M41.818,65.79a.359.359,0,0,0,.335.036L46.427,64.1a.359.359,0,0,0,0-.665L42.152,61.7a.359.359,0,0,0-.492.332v3.464a.359.359,0,0,0,.158.3Zm.559-3.227,2.962,1.2-2.962,1.2Z" transform="translate(-19.801 -37.449)"/>
  </g>
</svg>
